<svg width="39" height="39" viewBox="0 0 39 39" fill="none" xmlns="http://www.w3.org/2000/svg">
<circle cx="19.5" cy="19.5" r="19.5" fill="white"/>
<path d="M8.74075 19.0785C8.87456 19.0785 9.02017 19.0668 9.17759 19.0433C9.34288 19.012 9.46488 18.9729 9.54359 18.9259V17.9868L8.69353 18.0572C8.47314 18.0729 8.29211 18.1198 8.15044 18.1981C8.00876 18.2764 7.93792 18.3937 7.93792 18.5503C7.93792 18.7068 7.99696 18.8359 8.11502 18.9376C8.24095 19.0315 8.44953 19.0785 8.74075 19.0785ZM8.6463 14.4651C9.07133 14.4651 9.45701 14.5082 9.80332 14.5943C10.1575 14.6804 10.4566 14.8134 10.7006 14.9934C10.9525 15.1656 11.1453 15.3886 11.2791 15.6625C11.4129 15.9286 11.4798 16.2455 11.4798 16.6134V19.2428C11.4798 19.4463 11.4208 19.6146 11.3027 19.7476C11.1925 19.8728 11.0587 19.9824 10.9013 20.0763C10.3897 20.3815 9.66952 20.5341 8.74075 20.5341C8.3236 20.5341 7.9458 20.495 7.60735 20.4167C7.27677 20.3385 6.98948 20.2211 6.74549 20.0646C6.50936 19.908 6.32439 19.7085 6.19059 19.4659C6.06465 19.2233 6.00169 18.9416 6.00169 18.6207C6.00169 18.0807 6.16304 17.6659 6.48575 17.3764C6.80845 17.0868 7.30825 16.9068 7.98515 16.8364L9.53178 16.672V16.5899C9.53178 16.3629 9.42946 16.2025 9.22481 16.1086C9.02804 16.0068 8.74075 15.956 8.36295 15.956C8.06386 15.956 7.77264 15.9873 7.48928 16.0499C7.20593 16.1125 6.95013 16.1908 6.72187 16.2847C6.61955 16.2142 6.53297 16.1086 6.46213 15.9677C6.3913 15.819 6.35588 15.6664 6.35588 15.5099C6.35588 15.3064 6.4031 15.146 6.49755 15.0286C6.59987 14.9034 6.75336 14.7977 6.958 14.7117C7.18625 14.6256 7.45386 14.563 7.76083 14.5238C8.07566 14.4847 8.37082 14.4651 8.6463 14.4651Z" fill="#009EF0"/>
<path d="M15.5241 14.4651C15.8468 14.4651 16.1616 14.5121 16.4686 14.606C16.7834 14.6921 17.0549 14.8251 17.2832 15.0051C17.5193 14.8486 17.783 14.7195 18.0742 14.6178C18.3733 14.516 18.7314 14.4651 19.1486 14.4651C19.4477 14.4651 19.7389 14.5043 20.0223 14.5825C20.3135 14.6608 20.5693 14.786 20.7897 14.9582C21.0179 15.1225 21.199 15.3456 21.3328 15.6273C21.4666 15.9012 21.5335 16.2377 21.5335 16.6368V20.3346C21.4548 20.358 21.3288 20.3815 21.1557 20.405C20.9904 20.4285 20.8172 20.4402 20.6362 20.4402C20.463 20.4402 20.3056 20.4285 20.1639 20.405C20.0301 20.3815 19.916 20.3346 19.8216 20.2641C19.7271 20.1937 19.6523 20.0998 19.5972 19.9824C19.55 19.8572 19.5264 19.6967 19.5264 19.5011V16.6955C19.5264 16.4607 19.4595 16.2925 19.3257 16.1908C19.1919 16.0812 19.0109 16.0264 18.7826 16.0264C18.6724 16.0264 18.5543 16.0538 18.4284 16.1086C18.3025 16.1555 18.208 16.2064 18.1451 16.2612C18.1529 16.2925 18.1569 16.3238 18.1569 16.3551C18.1569 16.3786 18.1569 16.4021 18.1569 16.4255V20.3346C18.0703 20.358 17.9404 20.3815 17.7673 20.405C17.602 20.4285 17.4327 20.4402 17.2596 20.4402C17.0864 20.4402 16.929 20.4285 16.7873 20.405C16.6535 20.3815 16.5394 20.3346 16.4449 20.2641C16.3505 20.1937 16.2757 20.0998 16.2206 19.9824C16.1734 19.8572 16.1498 19.6967 16.1498 19.5011V16.6955C16.1498 16.4607 16.075 16.2925 15.9255 16.1908C15.7838 16.0812 15.6106 16.0264 15.406 16.0264C15.2643 16.0264 15.1423 16.0499 15.04 16.0968C14.9377 16.136 14.8511 16.1751 14.7803 16.2142V20.3346C14.7015 20.358 14.5756 20.3815 14.4025 20.405C14.2372 20.4285 14.064 20.4402 13.883 20.4402C13.7098 20.4402 13.5524 20.4285 13.4107 20.405C13.2769 20.3815 13.1628 20.3346 13.0683 20.2641C12.9739 20.1937 12.8991 20.0998 12.844 19.9824C12.7968 19.8572 12.7732 19.6967 12.7732 19.5011V15.956C12.7732 15.7447 12.8165 15.5764 12.9031 15.4512C12.9975 15.326 13.1234 15.2086 13.2809 15.099C13.5485 14.9112 13.879 14.7586 14.2726 14.6412C14.674 14.5238 15.0912 14.4651 15.5241 14.4651Z" fill="#009EF0"/>
<path d="M25.5043 14.4651C25.9766 14.4651 26.4134 14.5278 26.8148 14.653C27.2241 14.7704 27.5743 14.9543 27.8656 15.2047C28.1568 15.4551 28.385 15.7721 28.5503 16.1555C28.7156 16.5312 28.7983 16.9812 28.7983 17.5055C28.7983 18.0064 28.7274 18.4446 28.5858 18.8203C28.4441 19.1959 28.2434 19.5128 27.9836 19.7711C27.7239 20.0215 27.4091 20.2093 27.0391 20.3346C26.6771 20.4598 26.2717 20.5224 25.8231 20.5224C25.4846 20.5224 25.1698 20.4715 24.8786 20.3698V22.3184C24.7999 22.3419 24.6739 22.3654 24.5008 22.3888C24.3276 22.4202 24.1505 22.4358 23.9695 22.4358C23.7963 22.4358 23.6389 22.4241 23.4972 22.4006C23.3634 22.3771 23.2493 22.3302 23.1548 22.2597C23.0604 22.1893 22.9896 22.0915 22.9423 21.9663C22.8951 21.8489 22.8715 21.6923 22.8715 21.4967V15.8621C22.8715 15.6508 22.9148 15.4786 23.0014 15.3456C23.0958 15.2125 23.2217 15.0912 23.3792 14.9817C23.6232 14.8251 23.9262 14.6999 24.2883 14.606C24.6503 14.5121 25.0557 14.4651 25.5043 14.4651ZM25.5279 18.9494C26.3386 18.9494 26.744 18.4681 26.744 17.5055C26.744 17.0046 26.6416 16.6329 26.437 16.3903C26.2402 16.1477 25.9529 16.0264 25.5751 16.0264C25.4256 16.0264 25.2918 16.046 25.1737 16.0851C25.0557 16.1164 24.9533 16.1555 24.8668 16.2025V18.785C24.9612 18.832 25.0635 18.8711 25.1737 18.9024C25.2839 18.9337 25.402 18.9494 25.5279 18.9494Z" fill="#009EF0"/>
<path d="M30.0343 13.0565C30.0343 12.7591 30.1326 12.5087 30.3294 12.3052C30.5341 12.1017 30.8017 12 31.1322 12C31.4628 12 31.7265 12.1017 31.9233 12.3052C32.1279 12.5087 32.2302 12.7591 32.2302 13.0565C32.2302 13.3539 32.1279 13.6043 31.9233 13.8078C31.7265 14.0112 31.4628 14.113 31.1322 14.113C30.8017 14.113 30.5341 14.0112 30.3294 13.8078C30.1326 13.6043 30.0343 13.3539 30.0343 13.0565ZM32.1358 20.3346C32.0492 20.3502 31.9193 20.3698 31.7462 20.3933C31.5809 20.4246 31.4117 20.4402 31.2385 20.4402C31.0653 20.4402 30.9079 20.4285 30.7662 20.405C30.6324 20.3815 30.5183 20.3346 30.4239 20.2641C30.3294 20.1937 30.2546 20.0998 30.1995 19.9824C30.1523 19.8572 30.1287 19.6967 30.1287 19.5011V14.7234C30.2153 14.7078 30.3412 14.6882 30.5065 14.6647C30.6797 14.6334 30.8528 14.6178 31.026 14.6178C31.1991 14.6178 31.3526 14.6295 31.4864 14.653C31.6281 14.6764 31.7462 14.7234 31.8406 14.7938C31.9351 14.8643 32.0059 14.9621 32.0531 15.0873C32.1082 15.2047 32.1358 15.3612 32.1358 15.5569V20.3346Z" fill="#009EF0"/>
<path d="M6.31371 28C6.10457 28 6 27.8944 6 27.6831V24.8708C6 24.6595 6.10288 24.5538 6.30865 24.5538C6.51779 24.5538 6.62236 24.6595 6.62236 24.8708V24.9764C6.6932 24.8456 6.79946 24.7416 6.94113 24.6645C7.08281 24.584 7.24472 24.5438 7.42688 24.5438C7.64277 24.5438 7.83167 24.5957 7.99358 24.6997C8.15887 24.8037 8.28705 24.9513 8.37813 25.1424C8.46921 25.3303 8.51475 25.5567 8.51475 25.8216C8.51475 26.0832 8.46921 26.3113 8.37813 26.5058C8.28705 26.697 8.16056 26.8446 7.99864 26.9485C7.83673 27.0525 7.64614 27.1045 7.42688 27.1045C7.25147 27.1045 7.09293 27.0676 6.95125 26.9938C6.81295 26.9167 6.70669 26.8144 6.63248 26.6869V27.6831C6.63248 27.8944 6.52622 28 6.31371 28ZM7.24978 26.6266C7.43869 26.6266 7.59048 26.5595 7.70517 26.4253C7.81986 26.2878 7.87721 26.0866 7.87721 25.8216C7.87721 25.5533 7.81986 25.3537 7.70517 25.2229C7.59048 25.0888 7.43869 25.0217 7.24978 25.0217C7.06088 25.0217 6.90909 25.0888 6.7944 25.2229C6.67971 25.3537 6.62236 25.5533 6.62236 25.8216C6.62236 26.0866 6.67971 26.2878 6.7944 26.4253C6.90909 26.5595 7.06088 26.6266 7.24978 26.6266Z" fill="#009EF0"/>
<path d="M10.1684 27.1045C9.91208 27.1045 9.68944 27.0525 9.50054 26.9485C9.31164 26.8446 9.16491 26.697 9.06034 26.5058C8.95577 26.3113 8.90348 26.0832 8.90348 25.8216C8.90348 25.56 8.95577 25.3336 9.06034 25.1424C9.16491 24.9513 9.31164 24.8037 9.50054 24.6997C9.68944 24.5957 9.91208 24.5438 10.1684 24.5438C10.4248 24.5438 10.6474 24.5957 10.8363 24.6997C11.0252 24.8037 11.172 24.9513 11.2766 25.1424C11.3811 25.3336 11.4334 25.56 11.4334 25.8216C11.4334 26.0832 11.3811 26.3113 11.2766 26.5058C11.172 26.697 11.0252 26.8446 10.8363 26.9485C10.6474 27.0525 10.4248 27.1045 10.1684 27.1045ZM10.1684 26.6266C10.3573 26.6266 10.5091 26.5595 10.6238 26.4253C10.7385 26.2878 10.7959 26.0866 10.7959 25.8216C10.7959 25.5533 10.7385 25.3537 10.6238 25.2229C10.5091 25.0888 10.3573 25.0217 10.1684 25.0217C9.97954 25.0217 9.82775 25.0888 9.71306 25.2229C9.59837 25.3537 9.54102 25.5533 9.54102 25.8216C9.54102 26.0866 9.59837 26.2878 9.71306 26.4253C9.82775 26.5595 9.97954 26.6266 10.1684 26.6266Z" fill="#009EF0"/>
<path d="M12.821 27.0944C12.6456 27.0944 12.5241 27.0072 12.4567 26.8328L11.723 24.9714C11.6791 24.854 11.6808 24.7551 11.7281 24.6746C11.7787 24.5941 11.8664 24.5538 11.9912 24.5538C12.0654 24.5538 12.1261 24.5723 12.1733 24.6092C12.2205 24.6427 12.261 24.7081 12.2948 24.8054L12.8513 26.3197L13.4231 24.7651C13.4771 24.6243 13.5732 24.5538 13.7115 24.5538C13.8532 24.5538 13.9493 24.6243 13.9999 24.7651L14.5717 26.3348L15.1333 24.7903C15.1671 24.6997 15.2092 24.6377 15.2598 24.6041C15.3138 24.5706 15.3728 24.5538 15.4369 24.5538C15.5584 24.5538 15.6376 24.5974 15.6747 24.6846C15.7118 24.7685 15.7085 24.8641 15.6646 24.9714L14.936 26.8328C14.8652 27.0072 14.7437 27.0944 14.5717 27.0944C14.3929 27.0944 14.2715 27.0072 14.2074 26.8328L13.6913 25.4694L13.1853 26.8278C13.1212 27.0056 12.9998 27.0944 12.821 27.0944Z" fill="#009EF0"/>
<path d="M17.307 27.1045C17.0271 27.1045 16.7859 27.0525 16.5835 26.9485C16.3811 26.8446 16.2242 26.697 16.1129 26.5058C16.005 26.3146 15.951 26.0882 15.951 25.8266C15.951 25.5717 16.0033 25.3487 16.1079 25.1575C16.2158 24.9664 16.3625 24.8171 16.5481 24.7098C16.737 24.5991 16.9512 24.5438 17.1907 24.5438C17.5415 24.5438 17.8181 24.6544 18.0205 24.8758C18.2263 25.0972 18.3291 25.399 18.3291 25.7814C18.3291 25.9055 18.2482 25.9675 18.0863 25.9675H16.5582C16.6054 26.4069 16.8584 26.6266 17.3172 26.6266C17.4049 26.6266 17.5027 26.6165 17.6106 26.5964C17.722 26.5729 17.8265 26.5343 17.9244 26.4807C18.0121 26.4304 18.0863 26.4153 18.147 26.4354C18.2077 26.4522 18.2499 26.4874 18.2735 26.541C18.3005 26.5947 18.3038 26.6551 18.2836 26.7221C18.2667 26.7859 18.2195 26.8412 18.1419 26.8882C18.0239 26.962 17.8872 27.0173 17.7321 27.0542C17.5803 27.0877 17.4386 27.1045 17.307 27.1045ZM17.216 24.9714C17.0304 24.9714 16.8803 25.0284 16.7656 25.1424C16.651 25.2565 16.5818 25.4108 16.5582 25.6053H17.8029C17.7894 25.4007 17.7321 25.2447 17.6309 25.1374C17.5331 25.0267 17.3948 24.9714 17.216 24.9714Z" fill="#009EF0"/>
<path d="M19.1125 27.0944C18.8966 27.0944 18.7887 26.9871 18.7887 26.7725V24.8708C18.7887 24.6595 18.8916 24.5538 19.0973 24.5538C19.3031 24.5538 19.406 24.6595 19.406 24.8708V25.0267C19.5274 24.7383 19.7871 24.5773 20.1852 24.5438C20.3302 24.527 20.4112 24.6092 20.4281 24.7903C20.4449 24.968 20.3572 25.067 20.1649 25.0871L20.0536 25.0972C19.6387 25.1374 19.4313 25.3487 19.4313 25.7311V26.7725C19.4313 26.9871 19.325 27.0944 19.1125 27.0944Z" fill="#009EF0"/>
<path d="M23.583 27.1045C23.4008 27.1045 23.2389 27.0659 23.0972 26.9888C22.9556 26.9083 22.8493 26.801 22.7785 26.6668V26.7725C22.7785 26.9871 22.6756 27.0944 22.4698 27.0944C22.2607 27.0944 22.1561 26.9871 22.1561 26.7725V23.7841C22.1561 23.5728 22.2607 23.4671 22.4698 23.4671C22.6823 23.4671 22.7886 23.5728 22.7886 23.7841V24.9563C22.8628 24.8322 22.9691 24.7333 23.1074 24.6595C23.249 24.5823 23.4076 24.5438 23.583 24.5438C23.8022 24.5438 23.9928 24.5957 24.1547 24.6997C24.3167 24.8037 24.4432 24.9513 24.5342 25.1424C24.6253 25.3303 24.6709 25.5567 24.6709 25.8216C24.6709 26.0832 24.6253 26.3113 24.5342 26.5058C24.4432 26.697 24.315 26.8446 24.1497 26.9485C23.9878 27.0525 23.7989 27.1045 23.583 27.1045ZM23.4059 26.6266C23.5948 26.6266 23.7466 26.5595 23.8613 26.4253C23.976 26.2878 24.0333 26.0866 24.0333 25.8216C24.0333 25.5533 23.976 25.3537 23.8613 25.2229C23.7466 25.0888 23.5948 25.0217 23.4059 25.0217C23.217 25.0217 23.0652 25.0888 22.9505 25.2229C22.8358 25.3537 22.7785 25.5533 22.7785 25.8216C22.7785 26.0866 22.8358 26.2878 22.9505 26.4253C23.0652 26.5595 23.217 26.6266 23.4059 26.6266Z" fill="#009EF0"/>
<path d="M25.9633 27.1045C25.7845 27.1045 25.6243 27.071 25.4826 27.0039C25.3443 26.9334 25.2347 26.8395 25.1537 26.7221C25.0762 26.6048 25.0374 26.4723 25.0374 26.3247C25.0374 26.1436 25.0846 26.001 25.179 25.8971C25.2735 25.7898 25.427 25.7126 25.6395 25.6657C25.852 25.6187 26.137 25.5952 26.4946 25.5952H26.6717V25.4896C26.6717 25.3219 26.6346 25.2011 26.5604 25.1273C26.4862 25.0536 26.3614 25.0167 26.186 25.0167C26.0881 25.0167 25.9819 25.0284 25.8672 25.0519C25.7559 25.0754 25.6378 25.1156 25.513 25.1726C25.432 25.2095 25.3646 25.2145 25.3106 25.1877C25.2566 25.1575 25.2195 25.1123 25.1993 25.0519C25.1824 24.9882 25.1858 24.9244 25.2094 24.8607C25.2364 24.797 25.2887 24.75 25.3663 24.7198C25.5214 24.6561 25.6698 24.6108 25.8115 24.584C25.9566 24.5572 26.0881 24.5438 26.2062 24.5438C26.5671 24.5438 26.8353 24.6276 27.0107 24.7953C27.1861 24.9596 27.2738 25.2162 27.2738 25.565V26.7725C27.2738 26.9871 27.176 27.0944 26.9804 27.0944C26.7813 27.0944 26.6818 26.9871 26.6818 26.7725V26.6618C26.6245 26.7993 26.5334 26.9083 26.4086 26.9888C26.2838 27.0659 26.1354 27.1045 25.9633 27.1045ZM26.0949 26.6718C26.2602 26.6718 26.3968 26.6148 26.5047 26.5008C26.616 26.3868 26.6717 26.2425 26.6717 26.0681V25.9574H26.4997C26.1826 25.9574 25.9616 25.9826 25.8368 26.0329C25.7154 26.0799 25.6547 26.1671 25.6547 26.2945C25.6547 26.4052 25.6935 26.4958 25.771 26.5662C25.8486 26.6366 25.9566 26.6718 26.0949 26.6718Z" fill="#009EF0"/>
<path d="M28.1881 27.0944C27.979 27.0944 27.8744 26.9871 27.8744 26.7725V24.8708C27.8744 24.6595 27.9773 24.5538 28.1831 24.5538C28.3889 24.5538 28.4917 24.6595 28.4917 24.8708V24.9764C28.5761 24.8356 28.6891 24.7282 28.8307 24.6544C28.9758 24.5807 29.1377 24.5438 29.3165 24.5438C29.9001 24.5438 30.1918 24.8808 30.1918 25.555V26.7725C30.1918 26.9871 30.0873 27.0944 29.8781 27.0944C29.6656 27.0944 29.5594 26.9871 29.5594 26.7725V25.5852C29.5594 25.394 29.5223 25.2548 29.448 25.1676C29.3772 25.0804 29.2659 25.0368 29.1141 25.0368C28.9286 25.0368 28.7801 25.0955 28.6688 25.2129C28.5609 25.3269 28.5069 25.4795 28.5069 25.6707V26.7725C28.5069 26.9871 28.4007 27.0944 28.1881 27.0944Z" fill="#009EF0"/>
<path d="M31.1066 27.0944C30.8975 27.0944 30.7929 26.9871 30.7929 26.7725V23.7841C30.7929 23.5728 30.8975 23.4671 31.1066 23.4671C31.3191 23.4671 31.4254 23.5728 31.4254 23.7841V25.6405H31.4355L32.2704 24.7651C32.3378 24.698 32.3969 24.6461 32.4475 24.6092C32.4981 24.5723 32.5672 24.5538 32.6549 24.5538C32.7426 24.5538 32.8084 24.5773 32.8523 24.6243C32.8995 24.6679 32.9231 24.7215 32.9231 24.7852C32.9231 24.849 32.8927 24.9127 32.832 24.9764L32.073 25.7713L32.918 26.6769C32.9788 26.7406 33.0057 26.806 32.999 26.8731C32.9956 26.9368 32.9686 26.9905 32.918 27.0341C32.8674 27.0743 32.8033 27.0944 32.7258 27.0944C32.6313 27.0944 32.5554 27.076 32.4981 27.0391C32.4441 27.0022 32.3834 26.9469 32.3159 26.8731L31.4355 25.9574H31.4254V26.7725C31.4254 26.9871 31.3191 27.0944 31.1066 27.0944Z" fill="#009EF0"/>
</svg>
