<svg width="70" height="38" viewBox="0 0 70 38" fill="none" xmlns="http://www.w3.org/2000/svg">
<rect x="0.5" y="0.5" width="69" height="37" rx="5.5" stroke="#868789"/>
<path d="M21.0398 12.1873C20.5243 12.7632 19.6993 13.2162 18.8744 13.1515C18.7713 12.375 19.1769 11.5466 19.6512 11.0419C20.1668 10.453 21.0673 10.0324 21.8029 10C21.8854 10.8024 21.5485 11.5984 21.0398 12.1873ZM21.7891 13.3003C20.593 13.2356 19.5687 13.941 19.005 13.941C18.4275 13.941 17.5614 13.3327 16.6127 13.3521C15.3822 13.3715 14.241 14.0251 13.6154 15.067C12.323 17.1572 13.2786 20.244 14.5297 21.9459C15.1416 22.7872 15.8703 23.7126 16.8327 23.6802C17.747 23.6479 18.1044 23.1237 19.2044 23.1237C20.3111 23.1237 20.6342 23.6802 21.5967 23.6673C22.5935 23.6479 23.219 22.826 23.8309 21.9848C24.5252 21.027 24.8139 20.1016 24.8276 20.0499C24.807 20.0305 22.9028 19.3445 22.8822 17.2737C22.8616 15.5394 24.3877 14.7175 24.4564 14.6658C23.5971 13.4621 22.2566 13.3327 21.7891 13.3003ZM28.6911 10.9577V23.5702H30.774V19.2604H33.6544C36.2873 19.2604 38.1297 17.5584 38.1297 15.0994C38.1297 12.6403 36.3148 10.9577 33.7232 10.9577H28.6911ZM30.774 12.6079H33.1732C34.9812 12.6079 36.0124 13.5139 36.0124 15.1058C36.0124 16.6978 34.9812 17.6167 33.1663 17.6167H30.774V12.6079ZM41.9244 23.6673C43.2305 23.6673 44.4404 23.0461 44.9904 22.056H45.0316V23.5702H46.9565V17.2931C46.9565 15.4747 45.4097 14.2969 43.0311 14.2969C40.8245 14.2969 39.1883 15.4876 39.1265 17.1184H41.0032C41.1613 16.3418 41.9244 15.8306 42.9693 15.8306C44.241 15.8306 44.956 16.3871 44.956 17.4161V18.115L42.3575 18.2638C39.9445 18.3997 38.6384 19.3316 38.6384 20.9494C38.6453 22.5801 39.9927 23.6673 41.9244 23.6673ZM42.4881 22.1724C41.3813 22.1724 40.6732 21.6677 40.6732 20.9041C40.6732 20.1081 41.3538 19.6486 42.6531 19.5775L44.9629 19.4416V20.1534C44.9629 21.3312 43.8973 22.1724 42.4881 22.1724ZM49.5344 27C51.5623 27 52.5179 26.2687 53.3497 24.062L57 14.4199H54.8827L52.4354 21.8683H52.3941L49.9468 14.4199H47.7745L51.2942 23.6026L51.1017 24.1591C50.7855 25.1039 50.2699 25.4728 49.3488 25.4728C49.1838 25.4728 48.8675 25.4534 48.7369 25.4404V26.9547C48.8607 26.9806 49.3763 27 49.5344 27Z" fill="black"/>
</svg>
