<svg width="12" height="15" viewBox="0 0 12 15" fill="none" xmlns="http://www.w3.org/2000/svg">
<path fill-rule="evenodd" clip-rule="evenodd" d="M6.56916 2.94341C7.35175 2.54276 7.89387 1.68913 7.89387 0.694551C7.89387 -0.190926 7.45368 -0.0526052 6.79443 0.154555C6.4362 0.267123 6.01328 0.400018 5.56116 0.400018C5.10904 0.400018 4.68612 0.267123 4.32789 0.154555C3.66864 -0.0526052 3.22845 -0.190926 3.22845 0.694551C3.22845 1.68736 3.76863 2.53971 4.55932 2.94126C4.58776 2.9285 4.63034 2.92108 4.67662 2.92108H6.44382C6.49962 2.92108 6.54303 2.92934 6.56916 2.94341ZM6.55539 3.02113C6.52711 3.0324 6.48709 3.03889 6.44382 3.03889H4.67662C4.63673 3.03889 4.5996 3.03338 4.57189 3.02369C1.97885 3.94532 0.000366211 8.30512 0.000366211 11.2271C0.000366211 14.5023 2.49801 14.9735 5.57294 14.9735C8.64787 14.9735 11.1455 14.5023 11.1455 11.2271C11.1339 8.30242 9.16311 3.93724 6.55539 3.02113ZM7.90591 7.95177H6.37434C6.36256 7.57476 6.00912 7.50408 5.78527 7.50408C5.6439 7.50408 5.18442 7.50408 5.18442 7.81039C5.18442 8.06042 5.57638 8.11937 6.06843 8.19337C6.89796 8.31812 8.01195 8.48565 8.01195 9.68362C8.01195 10.8264 7.17547 11.2505 6.15049 11.333L6.22118 12.5465H5.27868L5.33758 11.3212C4.38329 11.2152 3.49969 10.7322 3.49969 9.70719H5.03127V9.74253C5.04305 10.1902 5.5143 10.2845 5.74993 10.2845C5.98556 10.2845 6.43325 10.2727 6.43325 9.94281C6.43325 9.67812 6.02323 9.60648 5.51547 9.51775C4.68983 9.37348 3.60572 9.18404 3.60572 8.04602C3.60572 6.9857 4.37151 6.57335 5.3258 6.49088L5.26689 5.26562H6.2094L6.13871 6.4791C7.06944 6.54979 7.90591 6.97392 7.90591 7.95177Z" fill="white"/>
</svg>
