<svg width="58" height="29" viewBox="0 0 58 29" fill="none" xmlns="http://www.w3.org/2000/svg">

<defs>
<linearGradient id="paint0_linear_135_8204" x1="2.82379" y1="0.00305412" x2="2.82379" y2="28.6297" gradientUnits="userSpaceOnUse">
<stop stop-color="#A8A8A8"/>
<stop offset="0.0627401" stop-color="#DEDEDE"/>
<stop offset="0.1191" stop-color="white"/>
<stop offset="0.3374" stop-color="white"/>
<stop offset="0.6236" stop-color="#DEDEDE"/>
<stop offset="0.7759" stop-color="#DEDEDE"/>
<stop offset="0.9283" stop-color="#A8A8A8"/>
<stop offset="1" stop-color="#737373"/>
</linearGradient>
<linearGradient id="paint1_linear_135_8204" x1="55.4231" y1="9.50386" x2="55.4231" y2="19.1287" gradientUnits="userSpaceOnUse">
<stop stop-color="#A8A8A8"/>
<stop offset="0.0627401" stop-color="#DEDEDE"/>
<stop offset="0.1191" stop-color="white"/>
<stop offset="0.3374" stop-color="white"/>
<stop offset="0.6236" stop-color="#DEDEDE"/>
<stop offset="0.7759" stop-color="#DEDEDE"/>
<stop offset="0.9283" stop-color="#A8A8A8"/>
<stop offset="1" stop-color="#737373"/>
</linearGradient>
<linearGradient id="paint2_linear_135_8204" x1="50.8359" y1="0.00305412" x2="50.8359" y2="28.6297" gradientUnits="userSpaceOnUse">
<stop stop-color="#A8A8A8"/>
<stop offset="0.0627401" stop-color="#DEDEDE"/>
<stop offset="0.1191" stop-color="white"/>
<stop offset="0.3374" stop-color="white"/>
<stop offset="0.6236" stop-color="#DEDEDE"/>
<stop offset="0.7759" stop-color="#DEDEDE"/>
<stop offset="0.9283" stop-color="#A8A8A8"/>
<stop offset="1" stop-color="#737373"/>
</linearGradient>
</defs>
    <path fill-rule="evenodd" clip-rule="evenodd" d="M2.48861 28.6301C0.741273 28.6301 -2.19345e-05 22.2229 -2.19345e-05 14.3151C-2.19345e-05 6.41305 0.747157 0 2.48861 0L5.64795 0L5.64795 28.6243H2.48861V28.6301Z" fill="url(#paint0_linear_135_8204)"/>
    <path opacity="0.2" fill-rule="evenodd" clip-rule="evenodd" d="M2.4886 28.6301C0.741256 28.6301 -3.98159e-05 22.2229 -3.98159e-05 14.3151C-3.98159e-05 6.41305 0.747139 0 2.4886 0L3.07104 0C1.3237 0 0.582409 6.40719 0.582409 14.3151C0.582409 22.2171 1.32959 28.6301 3.07104 28.6301H2.4886Z" fill="#979797"/>
    <path fill-rule="evenodd" clip-rule="evenodd" d="M56.6208 19.1276C57.5621 19.1276 57.9622 16.9704 57.9622 14.3149C57.9622 11.6594 57.5621 9.5022 56.6208 9.5022H52.8908V19.1276H56.6208Z" fill="url(#paint1_linear_135_8204)"/>
    <path opacity="0.2" fill-rule="evenodd" clip-rule="evenodd" d="M54.2964 9.5022H52.8845V19.1276H54.2964C54.367 17.6211 54.4023 16.0032 54.4023 14.3149C54.4023 12.6267 54.367 11.0087 54.2964 9.5022Z" fill="#979797"/>
    <path fill-rule="evenodd" clip-rule="evenodd" d="M5.64854 28.6301C3.90119 28.6301 3.1599 22.2229 3.1599 14.3151C3.1599 6.41305 3.90708 0 5.64854 0C7.39588 0 8.13717 6.40719 8.13717 14.3151C8.14306 22.2229 7.39588 28.6301 5.64854 28.6301Z" fill="white"/>
    <path opacity="0.2" fill-rule="evenodd" clip-rule="evenodd" d="M5.23024 0.00610352L5.64795 0.00610352C3.90061 0.00610352 3.15931 6.4133 3.15931 14.3212C3.15931 22.2232 3.90649 28.6362 5.64795 28.6362H5.23024C3.48289 28.6362 2.7416 22.229 2.7416 14.3212C2.7416 6.4133 3.48289 0.00610352 5.23024 0.00610352Z" fill="white"/>
    <path fill-rule="evenodd" clip-rule="evenodd" d="M51.1679 28.6301C52.9152 28.6301 53.6565 22.2229 53.6565 14.3151C53.6565 6.41305 52.9093 0 51.1679 0L48.0085 0V28.6243H51.1679V28.6301Z" fill="url(#paint2_linear_135_8204)"/>
    <path opacity="0.2" fill-rule="evenodd" clip-rule="evenodd" d="M51.1679 28.6301C52.9152 28.6301 53.6565 22.2229 53.6565 14.3151C53.6565 6.41305 52.9093 0 51.1679 0L50.5854 0C52.3328 0 53.074 6.40719 53.074 14.3151C53.074 22.2171 52.3269 28.6301 50.5854 28.6301H51.1679Z" fill="white"/>
    <path fill-rule="evenodd" clip-rule="evenodd" d="M48.0067 28.6301C49.7541 28.6301 50.4954 22.2229 50.4954 14.3151C50.4954 6.41305 49.7482 0 48.0067 0C46.2594 0 45.5181 6.40719 45.5181 14.3151C45.5181 22.2229 46.2653 28.6301 48.0067 28.6301Z" fill="white"/>
    <path fill-rule="evenodd" clip-rule="evenodd" d="M47.7082 27.6923L5.95439 27.6923C4.61888 27.6923 4.01878 21.7071 4.01878 14.321C4.01878 13.5941 4.02466 12.8789 4.03643 12.1872C4.07761 9.83654 4.18351 7.68517 4.36589 5.91484C4.67183 2.88417 5.19544 0.949707 5.95439 0.949707L47.7082 0.949707C48.4671 0.949707 48.9849 2.88417 49.2967 5.91484C49.4791 7.69103 49.585 9.83654 49.6261 12.1872C49.6379 12.8848 49.6438 13.5941 49.6438 14.321C49.6379 21.7013 49.0378 27.6923 47.7082 27.6923Z" fill="#DCDCDC"/>
    <path opacity="0.2" fill-rule="evenodd" clip-rule="evenodd" d="M48.431 0.00610352L48.0133 0.00610352C49.7607 0.00610352 50.502 6.4133 50.502 14.3212C50.502 22.2232 49.7548 28.6362 48.0133 28.6362H48.431C50.1784 28.6362 50.9197 22.229 50.9197 14.3212C50.9197 6.4133 50.1725 0.00610352 48.431 0.00610352Z" fill="#979797"/>
    <path fill-rule="evenodd" clip-rule="evenodd" d="M6.20651 26.4497C5.24753 26.4497 4.81805 21.0156 4.81805 14.3153C4.81805 7.61501 5.24753 2.18091 6.20651 2.18091C7.16549 2.18091 7.59497 7.61501 7.59497 14.3153C7.59497 21.0156 7.16549 26.4497 6.20651 26.4497Z" fill="white"/>
    <path fill-rule="evenodd" clip-rule="evenodd" d="M47.448 26.4497C46.489 26.4497 46.0595 21.0156 46.0595 14.3153C46.0595 7.61501 46.489 2.18091 47.448 2.18091C48.4069 2.18091 48.8364 7.61501 48.8364 14.3153C48.8364 21.0156 48.4069 26.4497 47.448 26.4497Z" fill="white"/>
    <path opacity="0.2" fill-rule="evenodd" clip-rule="evenodd" d="M56.6208 19.1276C57.5621 19.1276 57.9622 16.9704 57.9622 14.3149C57.9622 11.6594 57.5621 9.5022 56.6208 9.5022H56.0266C56.9679 9.5022 57.3679 11.6594 57.3679 14.3149C57.3679 16.9704 56.9679 19.1276 56.0266 19.1276H56.6208Z" fill="white"/>
    <path opacity="0.1" fill-rule="evenodd" clip-rule="evenodd" d="M48.7949 12.1811L4.8643 12.1811C4.90549 9.83039 5.01139 7.67902 5.19377 5.90869L48.4655 5.90869C48.6478 7.67902 48.7537 9.83039 48.7949 12.1811Z" fill="white"/>
</svg>
