<svg width="32" height="47" viewBox="0 0 32 47" fill="none" xmlns="http://www.w3.org/2000/svg">
<rect x="0.5" y="3.5" width="31" height="43" rx="9.5" stroke="#CDCDCD"/>
<path d="M3 37.7778C3 36.7959 3.79594 36 4.77778 36H27.2222C28.2041 36 29 36.7959 29 37.7778C29 41.2142 26.2142 44 22.7778 44H9.22222C5.78578 44 3 41.2142 3 37.7778Z" fill="#0EDF55"/>
<rect x="3" y="26" width="26" height="8" rx="2" fill="#0EDF55"/>
<rect x="3" y="16" width="26" height="8" rx="2" fill="#0EDF55"/>
<path d="M3 12.2222C3 8.78578 5.78578 6 9.22222 6H22.7778C26.2142 6 29 8.78578 29 12.2222C29 13.2041 28.2041 14 27.2222 14H4.77778C3.79594 14 3 13.2041 3 12.2222Z" fill="#0EDF55"/>
<path d="M9 3C9 1.34315 10.3431 0 12 0H20C21.6569 0 23 1.34315 23 3H9Z" fill="#CDCDCD"/>
</svg>
