<svg width="58" height="29" viewBox="0 0 58 29" fill="none" xmlns="http://www.w3.org/2000/svg">

<path opacity="0.5" fill-rule="evenodd" clip-rule="evenodd" d="M5.0828 12.2284C5.12987 9.81913 5.25341 7.65018 5.46521 5.95605H12.5781L12.3016 12.2284H5.0828Z" fill="white"/>
<defs>
<linearGradient id="paint0_linear_135_8096" x1="2.82379" y1="0.0037048" x2="2.82379" y2="28.6304" gradientUnits="userSpaceOnUse">
<stop stop-color="#A8A8A8"/>
<stop offset="0.0627401" stop-color="#DEDEDE"/>
<stop offset="0.1191" stop-color="white"/>
<stop offset="0.3374" stop-color="white"/>
<stop offset="0.6236" stop-color="#DEDEDE"/>
<stop offset="0.7759" stop-color="#DEDEDE"/>
<stop offset="0.9283" stop-color="#A8A8A8"/>
<stop offset="1" stop-color="#737373"/>
</linearGradient>
<linearGradient id="paint1_linear_135_8096" x1="55.4231" y1="9.50451" x2="55.4231" y2="19.1293" gradientUnits="userSpaceOnUse">
<stop stop-color="#A8A8A8"/>
<stop offset="0.0627401" stop-color="#DEDEDE"/>
<stop offset="0.1191" stop-color="white"/>
<stop offset="0.3374" stop-color="white"/>
<stop offset="0.6236" stop-color="#DEDEDE"/>
<stop offset="0.7759" stop-color="#DEDEDE"/>
<stop offset="0.9283" stop-color="#A8A8A8"/>
<stop offset="1" stop-color="#737373"/>
</linearGradient>
<linearGradient id="paint2_linear_135_8096" x1="50.8359" y1="0.0037048" x2="50.8359" y2="28.6304" gradientUnits="userSpaceOnUse">
<stop stop-color="#A8A8A8"/>
<stop offset="0.0627401" stop-color="#DEDEDE"/>
<stop offset="0.1191" stop-color="white"/>
<stop offset="0.3374" stop-color="white"/>
<stop offset="0.6236" stop-color="#DEDEDE"/>
<stop offset="0.7759" stop-color="#DEDEDE"/>
<stop offset="0.9283" stop-color="#A8A8A8"/>
<stop offset="1" stop-color="#737373"/>
</linearGradient>
<linearGradient id="paint3_linear_135_8096" x1="9.30244" y1="2.1838" x2="9.30244" y2="26.4493" gradientUnits="userSpaceOnUse">
<stop stop-color="#55A800"/>
<stop offset="0.0627401" stop-color="#70DE00"/>
<stop offset="0.1191" stop-color="#BFFF80"/>
<stop offset="0.3374" stop-color="#BFFF80"/>
<stop offset="0.6236" stop-color="#70DE00"/>
<stop offset="0.7759" stop-color="#70DE00"/>
<stop offset="0.9283" stop-color="#55A800"/>
<stop offset="1" stop-color="#3A7300"/>
</linearGradient>
</defs>
    <path fill-rule="evenodd" clip-rule="evenodd" d="M2.48861 28.6301C0.741273 28.6301 -2.19345e-05 22.2229 -2.19345e-05 14.3151C-2.19345e-05 6.41305 0.747157 0 2.48861 0L5.64795 0L5.64795 28.6243H2.48861V28.6301Z" fill="url(#paint0_linear_135_8096)"/>
    <path opacity="0.2" fill-rule="evenodd" clip-rule="evenodd" d="M2.4886 28.6301C0.741256 28.6301 -3.98159e-05 22.2229 -3.98159e-05 14.3151C-3.98159e-05 6.41305 0.747139 0 2.4886 0L3.07104 0C1.3237 0 0.582409 6.40719 0.582409 14.3151C0.582409 22.2171 1.32959 28.6301 3.07104 28.6301H2.4886Z" fill="#979797"/>
    <path fill-rule="evenodd" clip-rule="evenodd" d="M56.6208 19.1276C57.5621 19.1276 57.9622 16.9704 57.9622 14.3149C57.9622 11.6594 57.5621 9.5022 56.6208 9.5022H52.8908V19.1276H56.6208Z" fill="url(#paint1_linear_135_8096)"/>
    <path opacity="0.2" fill-rule="evenodd" clip-rule="evenodd" d="M54.2964 9.5022H52.8845V19.1276H54.2964C54.367 17.6211 54.4023 16.0032 54.4023 14.3149C54.4023 12.6267 54.367 11.0087 54.2964 9.5022Z" fill="#979797"/>
    <path fill-rule="evenodd" clip-rule="evenodd" d="M5.64854 28.6301C3.90119 28.6301 3.1599 22.2229 3.1599 14.3151C3.1599 6.41305 3.90708 0 5.64854 0C7.39588 0 8.13717 6.40719 8.13717 14.3151C8.14306 22.2229 7.39588 28.6301 5.64854 28.6301Z" fill="white"/>
    <path opacity="0.2" fill-rule="evenodd" clip-rule="evenodd" d="M5.23024 0.00610352L5.64795 0.00610352C3.90061 0.00610352 3.15931 6.4133 3.15931 14.3212C3.15931 22.2232 3.90649 28.6362 5.64795 28.6362H5.23024C3.48289 28.6362 2.7416 22.229 2.7416 14.3212C2.7416 6.4133 3.48289 0.00610352 5.23024 0.00610352Z" fill="white"/>
    <path fill-rule="evenodd" clip-rule="evenodd" d="M51.1679 28.6301C52.9152 28.6301 53.6565 22.2229 53.6565 14.3151C53.6565 6.41305 52.9093 0 51.1679 0L48.0085 0V28.6243H51.1679V28.6301Z" fill="url(#paint2_linear_135_8096)"/>
    <path opacity="0.2" fill-rule="evenodd" clip-rule="evenodd" d="M51.1679 28.6301C52.9152 28.6301 53.6565 22.2229 53.6565 14.3151C53.6565 6.41305 52.9093 0 51.1679 0L50.5854 0C52.3328 0 53.074 6.40719 53.074 14.3151C53.074 22.2171 52.3269 28.6301 50.5854 28.6301H51.1679Z" fill="white"/>
    <path fill-rule="evenodd" clip-rule="evenodd" d="M48.0067 28.6301C49.7541 28.6301 50.4954 22.2229 50.4954 14.3151C50.4954 6.41305 49.7482 0 48.0067 0C46.2594 0 45.5181 6.40719 45.5181 14.3151C45.5181 22.2229 46.2653 28.6301 48.0067 28.6301Z" fill="white"/>
    <path fill-rule="evenodd" clip-rule="evenodd" d="M5.95439 27.6923C4.62476 27.6923 4.01878 21.7071 4.01878 14.321C4.01878 6.93484 4.61888 0.949707 5.95439 0.949707L47.7082 0.949707C49.0378 0.949707 49.6438 6.93484 49.6438 14.321C49.6438 21.7071 49.0437 27.6923 47.7082 27.6923L5.95439 27.6923Z" fill="#DCDCDC"/>
    <path opacity="0.2" fill-rule="evenodd" clip-rule="evenodd" d="M48.431 0.00610352L48.0133 0.00610352C49.7607 0.00610352 50.502 6.4133 50.502 14.3212C50.502 22.2232 49.7548 28.6362 48.0133 28.6362H48.431C50.1784 28.6362 50.9197 22.229 50.9197 14.3212C50.9197 6.4133 50.1725 0.00610352 48.431 0.00610352Z" fill="#979797"/>
    <path fill-rule="evenodd" clip-rule="evenodd" d="M13.5427 26.4494H6.85341C5.70028 26.4494 5.13548 21.6778 5.07077 15.5637C5.07077 15.1533 5.06488 14.7371 5.06488 14.3209C5.06488 14.1216 5.06488 13.9223 5.06488 13.7288C5.0943 7.30407 5.65322 2.18652 6.84753 2.18652L13.5427 2.18652L13.5427 26.4494Z" fill="url(#paint3_linear_135_8096)"/>
    <path fill-rule="evenodd" clip-rule="evenodd" d="M13.5441 26.4497C14.3501 26.4497 14.7148 21.0156 14.7148 14.3153C14.7148 7.615 14.3501 2.18091 13.5441 2.18091C12.7381 2.18091 12.3733 7.615 12.3733 14.3153C12.3733 21.0156 12.7322 26.4497 13.5441 26.4497Z" fill="#ABABAB"/>
    <path fill-rule="evenodd" clip-rule="evenodd" d="M47.4484 26.4497C48.2544 26.4497 48.6191 21.0156 48.6191 14.3153C48.6191 7.615 48.2544 2.18091 47.4484 2.18091C46.6424 2.18091 46.2776 7.615 46.2776 14.3153C46.2776 21.0156 46.6424 26.4497 47.4484 26.4497Z" fill="white"/>
    <path fill-rule="evenodd" clip-rule="evenodd" d="M13.6909 24.2101C14.2733 24.2101 14.5381 19.7784 14.5381 14.315C14.5381 8.85161 14.2733 4.41992 13.6909 4.41992C13.1084 4.41992 12.8437 8.85161 12.8437 14.315C12.8437 19.7843 13.1084 24.2101 13.6909 24.2101Z" fill="white"/>
    <path opacity="0.1" fill-rule="evenodd" clip-rule="evenodd" d="M48.1899 5.94995L12.4959 5.94995C12.2841 7.64994 12.2958 9.81303 12.2487 12.2223L48.5723 12.2223C48.5252 9.81889 48.4016 7.64994 48.1899 5.94995Z" fill="white"/>
    <path opacity="0.2" fill-rule="evenodd" clip-rule="evenodd" d="M6.85368 26.4497C5.62407 26.4497 5.06515 21.0156 5.06515 14.3153C5.06515 7.615 5.61819 2.18091 6.85368 2.18091H7.35376C6.12415 2.18091 5.57112 7.615 5.57112 14.3153C5.57112 21.0156 6.12415 26.4497 7.35376 26.4497H6.85368Z" fill="#979797"/>
    <path opacity="0.2" fill-rule="evenodd" clip-rule="evenodd" d="M12.9132 2.18652H13.5427C12.7367 2.18652 12.3719 7.62062 12.3719 14.3209C12.3719 21.0212 12.7367 26.4553 13.5427 26.4553H12.9132C12.2013 25.8574 11.8836 20.6519 11.8836 14.3209C11.8836 7.98407 12.2072 2.78445 12.9132 2.18652Z" fill="white"/>
    <path opacity="0.2" fill-rule="evenodd" clip-rule="evenodd" d="M56.6208 19.1276C57.5621 19.1276 57.9622 16.9704 57.9622 14.3149C57.9622 11.6594 57.5621 9.5022 56.6208 9.5022H56.0266C56.9679 9.5022 57.3679 11.6594 57.3679 14.3149C57.3679 16.9704 56.9679 19.1276 56.0266 19.1276H56.6208Z" fill="white"/>
</svg>
