<svg width="118" height="245" viewBox="0 0 118 245" fill="none" xmlns="http://www.w3.org/2000/svg">
<defs>
<linearGradient id="paint0_linear_0_1" x1="58.8204" y1="10.4517" x2="58.8204" y2="160.076" gradientUnits="userSpaceOnUse">
<stop stop-color="#009EF0"/>
<stop offset="1" stop-color="#44BFFF"/>
</linearGradient>
<linearGradient id="paint1_linear_0_1" x1="58.8199" y1="76.4624" x2="58.8199" y2="148.249" gradientUnits="userSpaceOnUse">
<stop stop-color="#009EF0"/>
<stop offset="1" stop-color="#44BFFF"/>
</linearGradient>
<linearGradient id="paint2_linear_0_1" x1="58.7483" y1="38.781" x2="58.7483" y2="148.249" gradientUnits="userSpaceOnUse">
<stop offset="0.247917" stop-color="#FEDD2C"/>
<stop offset="1" stop-color="#FDB400"/>
</linearGradient>
</defs>

    <path fill-rule="evenodd" clip-rule="evenodd" d="M92.5133 18.703H25.1274C21.3299 18.703 18.2513 21.7815 18.2513 25.5791V144.948C18.2513 148.746 21.3299 151.824 25.1274 151.824H92.5133C96.3109 151.824 99.3894 148.746 99.3894 144.948V25.5791C99.3894 21.7815 96.3109 18.703 92.5133 18.703ZM25.1274 10.4517C16.7728 10.4517 10 17.2244 10 25.5791V144.948C10 153.303 16.7728 160.076 25.1274 160.076H92.5133C100.868 160.076 107.641 153.303 107.641 144.948V25.5791C107.641 17.2244 100.868 10.4517 92.5133 10.4517H25.1274Z" fill="url(#paint0_linear_0_1)"/>
    <path d="M21.8264 81.9633C21.8264 78.9252 24.2892 76.4624 27.3273 76.4624H90.3124C93.3505 76.4624 95.8133 78.9252 95.8133 81.9633V142.748C95.8133 145.786 93.3505 148.249 90.3124 148.249H27.3273C24.2892 148.249 21.8264 145.786 21.8264 142.748V81.9633Z" fill="url(#paint1_linear_0_1)"/>
    <path d="M54.6938 40.2671L25.6415 102.925C24.8626 104.605 26.0607 106.167 27.8784 106.167H55.3555C56.7225 106.167 57.7379 106.922 57.7379 108.32V145.6C57.7379 148.283 61.3752 149.297 62.5287 146.887L91.5266 86.3009C92.0943 85.0942 92.6416 81.6879 89.1315 81.6879H61.7087C60.3417 81.6879 59.7589 81.4262 59.7589 80.0279V41.2564C59.7589 38.556 55.8251 37.8272 54.6938 40.2671Z" fill="url(#paint2_linear_0_1)"/>
    <path d="M46.3055 28.742C46.3055 26.8432 47.8448 25.304 49.7436 25.304H67.8965C69.7953 25.304 71.3346 26.8432 71.3346 28.742C71.3346 30.6408 69.7953 32.1801 67.8965 32.1801H49.7436C47.8448 32.1801 46.3055 30.6408 46.3055 28.742Z" fill="#009EF0"/>
    <path d="M44.6556 4.12566C44.6556 1.84712 46.5028 0 48.7813 0H68.8595C71.1381 0 72.9852 1.84712 72.9852 4.12566V7.97629C72.9852 8.12819 72.8621 8.25133 72.7102 8.25133H44.9307C44.7788 8.25133 44.6556 8.12819 44.6556 7.97629V4.12566Z" fill="#009EF0"/>
    <path d="M11.9781 207.534C12.5629 207.534 13.1993 207.483 13.8872 207.382C14.6096 207.247 15.1428 207.078 15.4868 206.876V202.825L11.7717 203.129C10.8086 203.196 10.0174 203.399 9.39821 203.736C8.77904 204.074 8.46945 204.58 8.46945 205.255C8.46945 205.93 8.72744 206.487 9.24342 206.926C9.7938 207.331 10.7054 207.534 11.9781 207.534ZM11.5653 187.634C13.4229 187.634 15.1084 187.819 16.6219 188.191C18.1699 188.562 19.477 189.136 20.5434 189.912C21.6441 190.655 22.4869 191.617 23.0717 192.799C23.6565 193.946 23.9489 195.314 23.9489 196.9V208.243C23.9489 209.121 23.6909 209.846 23.1749 210.42C22.6933 210.96 22.1085 211.433 21.4206 211.838C19.1846 213.155 16.0372 213.813 11.9781 213.813C10.155 213.813 8.50385 213.644 7.0247 213.307C5.57996 212.969 4.32441 212.463 3.25805 211.787C2.22609 211.112 1.41772 210.251 0.83294 209.205C0.282561 208.159 0.00737105 206.943 0.00737105 205.559C0.00737105 203.23 0.712544 201.441 2.12289 200.192C3.53324 198.943 5.71755 198.166 8.67584 197.862L15.4352 197.153V196.799C15.4352 195.82 14.988 195.128 14.0936 194.723C13.2337 194.284 11.9781 194.065 10.327 194.065C9.01983 194.065 7.74708 194.2 6.50872 194.47C5.27037 194.74 4.15241 195.077 3.15485 195.482C2.70767 195.179 2.32928 194.723 2.01969 194.115C1.71011 193.474 1.55531 192.816 1.55531 192.14C1.55531 191.263 1.7617 190.571 2.17449 190.064C2.62167 189.524 3.29245 189.068 4.18681 188.697C5.18437 188.326 6.35393 188.056 7.69548 187.887C9.07142 187.718 10.3614 187.634 11.5653 187.634Z" fill="#009EF0"/>
    <path d="M41.6237 187.634C43.034 187.634 44.41 187.836 45.7515 188.241C47.1274 188.613 48.3142 189.187 49.3118 189.963C50.3437 189.288 51.4961 188.731 52.7688 188.292C54.076 187.853 55.6411 187.634 57.4643 187.634C58.7714 187.634 60.0442 187.803 61.2825 188.14C62.5553 188.478 63.6732 189.018 64.6364 189.76C65.6339 190.469 66.4251 191.431 67.0099 192.647C67.5947 193.828 67.8871 195.28 67.8871 197.002V212.952C67.5431 213.053 66.9927 213.155 66.2359 213.256C65.5135 213.357 64.7568 213.408 63.9656 213.408C63.2088 213.408 62.5209 213.357 61.9017 213.256C61.3169 213.155 60.8181 212.952 60.4053 212.648C59.9926 212.344 59.6658 211.939 59.425 211.433C59.2186 210.893 59.1154 210.201 59.1154 209.357V197.255C59.1154 196.242 58.823 195.516 58.2382 195.077C57.6534 194.605 56.8623 194.368 55.8647 194.368C55.3831 194.368 54.8671 194.487 54.3168 194.723C53.7664 194.925 53.3536 195.145 53.0784 195.381C53.1128 195.516 53.13 195.651 53.13 195.786C53.13 195.888 53.13 195.989 53.13 196.09V212.952C52.7516 213.053 52.1841 213.155 51.4273 213.256C50.7049 213.357 49.9653 213.408 49.2086 213.408C48.4518 213.408 47.7638 213.357 47.1446 213.256C46.5599 213.155 46.0611 212.952 45.6483 212.648C45.2355 212.344 44.9087 211.939 44.6679 211.433C44.4615 210.893 44.3583 210.201 44.3583 209.357V197.255C44.3583 196.242 44.0316 195.516 43.378 195.077C42.7588 194.605 42.002 194.368 41.1077 194.368C40.4885 194.368 39.9553 194.47 39.5081 194.672C39.061 194.841 38.6826 195.01 38.373 195.179V212.952C38.029 213.053 37.4786 213.155 36.7218 213.256C35.9995 213.357 35.2427 213.408 34.4515 213.408C33.6948 213.408 33.0068 213.357 32.3876 213.256C31.8028 213.155 31.304 212.952 30.8913 212.648C30.4785 212.344 30.1517 211.939 29.9109 211.433C29.7045 210.893 29.6013 210.201 29.6013 209.357V194.065C29.6013 193.153 29.7905 192.427 30.1689 191.887C30.5817 191.347 31.1321 190.841 31.82 190.368C32.9896 189.558 34.4343 188.9 36.1543 188.393C37.9086 187.887 39.7317 187.634 41.6237 187.634Z" fill="#009EF0"/>
    <path d="M85.2411 187.634C87.305 187.634 89.2141 187.904 90.9684 188.444C92.7572 188.95 94.2879 189.744 95.5606 190.824C96.8334 191.904 97.831 193.271 98.5533 194.925C99.2757 196.546 99.6369 198.487 99.6369 200.749C99.6369 202.909 99.3273 204.8 98.7081 206.42C98.089 208.04 97.2118 209.408 96.0766 210.522C94.9415 211.602 93.5655 212.412 91.9488 212.952C90.3664 213.492 88.5949 213.762 86.6342 213.762C85.1551 213.762 83.7791 213.543 82.5063 213.104V221.51C82.1624 221.611 81.612 221.712 80.8552 221.814C80.0984 221.949 79.3245 222.016 78.5333 222.016C77.7765 222.016 77.0886 221.965 76.4694 221.864C75.8846 221.763 75.3858 221.56 74.973 221.257C74.5602 220.953 74.2507 220.531 74.0443 219.991C73.8379 219.484 73.7347 218.809 73.7347 217.965V193.66C73.7347 192.748 73.9239 192.005 74.3023 191.431C74.715 190.858 75.2654 190.334 75.9534 189.862C77.0198 189.187 78.3441 188.646 79.9265 188.241C81.5088 187.836 83.2803 187.634 85.2411 187.634ZM85.3442 206.977C88.8873 206.977 90.6588 204.901 90.6588 200.749C90.6588 198.588 90.2117 196.985 89.3173 195.938C88.4573 194.892 87.2018 194.368 85.5506 194.368C84.8971 194.368 84.3123 194.453 83.7963 194.622C83.2803 194.757 82.8331 194.925 82.4548 195.128V206.268C82.8675 206.471 83.3147 206.639 83.7963 206.774C84.2779 206.909 84.7939 206.977 85.3442 206.977Z" fill="#009EF0"/>
    <path d="M105.039 181.557C105.039 180.275 105.469 179.194 106.329 178.317C107.223 177.439 108.392 177 109.837 177C111.282 177 112.434 177.439 113.294 178.317C114.189 179.194 114.636 180.275 114.636 181.557C114.636 182.84 114.189 183.92 113.294 184.798C112.434 185.676 111.282 186.115 109.837 186.115C108.392 186.115 107.223 185.676 106.329 184.798C105.469 183.92 105.039 182.84 105.039 181.557ZM114.223 212.952C113.845 213.02 113.277 213.104 112.52 213.205C111.798 213.34 111.058 213.408 110.302 213.408C109.545 213.408 108.857 213.357 108.238 213.256C107.653 213.155 107.154 212.952 106.741 212.648C106.329 212.344 106.002 211.939 105.761 211.433C105.555 210.893 105.451 210.201 105.451 209.357V188.748C105.83 188.68 106.38 188.596 107.103 188.495C107.859 188.36 108.616 188.292 109.373 188.292C110.13 188.292 110.8 188.343 111.385 188.444C112.004 188.545 112.52 188.748 112.933 189.052C113.346 189.355 113.655 189.777 113.862 190.317C114.103 190.824 114.223 191.499 114.223 192.343V212.952Z" fill="#009EF0"/>
    <path d="M1.37103 245C0.457011 245 0 244.544 0 243.633V231.502C0 230.59 0.44964 230.134 1.34892 230.134C2.26294 230.134 2.71995 230.59 2.71995 231.502V231.957C3.02954 231.393 3.49392 230.945 4.1131 230.612C4.73228 230.265 5.43991 230.091 6.23599 230.091C7.1795 230.091 8.00507 230.315 8.7127 230.764C9.43507 231.212 9.99527 231.849 10.3933 232.674C10.7914 233.484 10.9904 234.46 10.9904 235.603C10.9904 236.732 10.7914 237.716 10.3933 238.555C9.99527 239.379 9.44244 240.016 8.73481 240.464C8.02718 240.913 7.19424 241.137 6.23599 241.137C5.46939 241.137 4.7765 240.978 4.15733 240.66C3.55289 240.327 3.08851 239.886 2.76418 239.336V243.633C2.76418 244.544 2.2998 245 1.37103 245ZM5.46202 239.075C6.28759 239.075 6.95099 238.786 7.45223 238.207C7.95347 237.614 8.20409 236.746 8.20409 235.603C8.20409 234.446 7.95347 233.585 7.45223 233.021C6.95099 232.442 6.28759 232.153 5.46202 232.153C4.63645 232.153 3.97305 232.442 3.47181 233.021C2.97057 233.585 2.71995 234.446 2.71995 235.603C2.71995 236.746 2.97057 237.614 3.47181 238.207C3.97305 238.786 4.63645 239.075 5.46202 239.075Z" fill="#009EF0"/>
    <path d="M18.2176 241.137C17.0972 241.137 16.1242 240.913 15.2987 240.464C14.4731 240.016 13.8318 239.379 13.3748 238.555C12.9178 237.716 12.6893 236.732 12.6893 235.603C12.6893 234.475 12.9178 233.498 13.3748 232.674C13.8318 231.849 14.4731 231.212 15.2987 230.764C16.1242 230.315 17.0972 230.091 18.2176 230.091C19.3381 230.091 20.3111 230.315 21.1366 230.764C21.9622 231.212 22.6035 231.849 23.0605 232.674C23.5175 233.498 23.746 234.475 23.746 235.603C23.746 236.732 23.5175 237.716 23.0605 238.555C22.6035 239.379 21.9622 240.016 21.1366 240.464C20.3111 240.913 19.3381 241.137 18.2176 241.137ZM18.2176 239.075C19.0432 239.075 19.7066 238.786 20.2079 238.207C20.7091 237.614 20.9597 236.746 20.9597 235.603C20.9597 234.446 20.7091 233.585 20.2079 233.021C19.7066 232.442 19.0432 232.153 18.2176 232.153C17.3921 232.153 16.7287 232.442 16.2274 233.021C15.7262 233.585 15.4756 234.446 15.4756 235.603C15.4756 236.746 15.7262 237.614 16.2274 238.207C16.7287 238.786 17.3921 239.075 18.2176 239.075Z" fill="#009EF0"/>
    <path d="M29.8102 241.094C29.0436 241.094 28.5129 240.718 28.2181 239.965L25.0116 231.936C24.82 231.429 24.8273 231.003 25.0337 230.655C25.2549 230.308 25.6382 230.134 26.1836 230.134C26.508 230.134 26.7733 230.214 26.9797 230.373C27.1861 230.518 27.363 230.8 27.5104 231.22L29.9429 237.752L32.4417 231.046C32.6776 230.438 33.0978 230.134 33.7022 230.134C34.3214 230.134 34.7415 230.438 34.9627 231.046L37.4615 237.817L39.9161 231.154C40.0635 230.764 40.2478 230.496 40.4689 230.351C40.7048 230.207 40.9628 230.134 41.2429 230.134C41.7736 230.134 42.12 230.323 42.2822 230.699C42.4444 231.06 42.4296 231.473 42.238 231.936L39.0536 239.965C38.7441 240.718 38.2133 241.094 37.4615 241.094C36.6801 241.094 36.1494 240.718 35.8693 239.965L33.6137 234.084L31.4024 239.944C31.1223 240.71 30.5916 241.094 29.8102 241.094Z" fill="#009EF0"/>
    <path d="M49.416 241.137C48.1924 241.137 47.1383 240.913 46.2538 240.464C45.3692 240.016 44.6837 239.379 44.1972 238.555C43.7255 237.73 43.4896 236.753 43.4896 235.625C43.4896 234.525 43.7181 233.563 44.1751 232.739C44.6469 231.914 45.2881 231.27 46.099 230.807C46.9245 230.33 47.8607 230.091 48.9074 230.091C50.4406 230.091 51.6494 230.569 52.534 231.523C53.4333 232.478 53.8829 233.78 53.8829 235.43C53.8829 235.965 53.5291 236.233 52.8215 236.233H46.1432C46.3496 238.128 47.4553 239.075 49.4602 239.075C49.8435 239.075 50.271 239.032 50.7428 238.945C51.2293 238.844 51.6863 238.678 52.1138 238.446C52.4971 238.229 52.8215 238.164 53.0868 238.251C53.3522 238.323 53.5365 238.475 53.6397 238.707C53.7576 238.938 53.7723 239.198 53.6839 239.488C53.6102 239.763 53.4038 240.001 53.0647 240.204C52.5487 240.522 51.9517 240.761 51.2735 240.92C50.6101 241.065 49.9909 241.137 49.416 241.137ZM49.0179 231.936C48.2071 231.936 47.5511 232.182 47.0499 232.674C46.5486 233.165 46.2464 233.831 46.1432 234.67H51.5831C51.5241 233.788 51.2735 233.115 50.8313 232.652C50.4037 232.174 49.7993 231.936 49.0179 231.936Z" fill="#009EF0"/>
    <path d="M57.3065 241.094C56.363 241.094 55.8912 240.631 55.8912 239.705V231.502C55.8912 230.59 56.3409 230.134 57.2401 230.134C58.1394 230.134 58.5891 230.59 58.5891 231.502V232.174C59.1198 230.93 60.2549 230.236 61.9945 230.091C62.6284 230.019 62.9823 230.373 63.056 231.154C63.1297 231.921 62.7464 232.348 61.9061 232.435L61.4196 232.478C59.6063 232.652 58.6996 233.563 58.6996 235.213V239.705C58.6996 240.631 58.2352 241.094 57.3065 241.094Z" fill="#009EF0"/>
    <path d="M76.8442 241.137C76.0481 241.137 75.3405 240.971 74.7213 240.638C74.1021 240.291 73.6377 239.828 73.3281 239.249V239.705C73.3281 240.631 72.8785 241.094 71.9792 241.094C71.0652 241.094 70.6082 240.631 70.6082 239.705V226.814C70.6082 225.903 71.0652 225.447 71.9792 225.447C72.908 225.447 73.3723 225.903 73.3723 226.814V231.871C73.6967 231.335 74.1611 230.908 74.7655 230.59C75.3847 230.257 76.0776 230.091 76.8442 230.091C77.8024 230.091 78.6354 230.315 79.343 230.764C80.0506 231.212 80.6034 231.849 81.0015 232.674C81.3995 233.484 81.5985 234.46 81.5985 235.603C81.5985 236.732 81.3995 237.716 81.0015 238.555C80.6034 239.379 80.0432 240.016 79.3209 240.464C78.6132 240.913 77.7877 241.137 76.8442 241.137ZM76.0702 239.075C76.8958 239.075 77.5592 238.786 78.0604 238.207C78.5616 237.614 78.8123 236.746 78.8123 235.603C78.8123 234.446 78.5616 233.585 78.0604 233.021C77.5592 232.442 76.8958 232.153 76.0702 232.153C75.2446 232.153 74.5812 232.442 74.08 233.021C73.5787 233.585 73.3281 234.446 73.3281 235.603C73.3281 236.746 73.5787 237.614 74.08 238.207C74.5812 238.786 75.2446 239.075 76.0702 239.075Z" fill="#009EF0"/>
    <path d="M87.2471 241.137C86.4658 241.137 85.7655 240.992 85.1463 240.703C84.5419 240.399 84.0628 239.994 83.709 239.488C83.3699 238.981 83.2003 238.41 83.2003 237.773C83.2003 236.992 83.4067 236.377 83.8195 235.929C84.2323 235.466 84.9031 235.133 85.8318 234.931C86.7606 234.728 88.0063 234.627 89.569 234.627H90.343V234.171C90.343 233.448 90.1808 232.927 89.8565 232.608C89.5322 232.29 88.9867 232.131 88.2201 232.131C87.7926 232.131 87.3282 232.182 86.827 232.283C86.3405 232.384 85.8245 232.558 85.279 232.804C84.9252 232.963 84.6304 232.985 84.3945 232.869C84.1586 232.739 83.9964 232.543 83.908 232.283C83.8343 232.008 83.849 231.733 83.9522 231.458C84.0701 231.183 84.2987 230.981 84.6377 230.851C85.3159 230.576 85.9645 230.38 86.5837 230.265C87.2176 230.149 87.7926 230.091 88.3086 230.091C89.886 230.091 91.058 230.453 91.8246 231.176C92.5912 231.885 92.9745 232.992 92.9745 234.496V239.705C92.9745 240.631 92.547 241.094 91.6919 241.094C90.8221 241.094 90.3872 240.631 90.3872 239.705V239.227C90.1366 239.821 89.7386 240.291 89.1931 240.638C88.6476 240.971 87.999 241.137 87.2471 241.137ZM87.8221 239.271C88.5444 239.271 89.1415 239.025 89.6133 238.533C90.0997 238.041 90.343 237.419 90.343 236.667V236.189H89.5911C88.2054 236.189 87.2397 236.298 86.6943 236.515C86.1636 236.717 85.8982 237.093 85.8982 237.643C85.8982 238.121 86.0677 238.511 86.4068 238.815C86.7459 239.119 87.2176 239.271 87.8221 239.271Z" fill="#009EF0"/>
    <path d="M96.9704 241.094C96.0564 241.094 95.5994 240.631 95.5994 239.705V231.502C95.5994 230.59 96.049 230.134 96.9483 230.134C97.8476 230.134 98.2972 230.59 98.2972 231.502V231.957C98.6658 231.35 99.1596 230.887 99.7788 230.569C100.413 230.25 101.12 230.091 101.902 230.091C104.452 230.091 105.727 231.545 105.727 234.453V239.705C105.727 240.631 105.27 241.094 104.356 241.094C103.428 241.094 102.963 240.631 102.963 239.705V234.583C102.963 233.759 102.801 233.158 102.477 232.782C102.167 232.406 101.681 232.218 101.017 232.218C100.206 232.218 99.5577 232.471 99.0712 232.977C98.5994 233.469 98.3636 234.128 98.3636 234.952V239.705C98.3636 240.631 97.8992 241.094 96.9704 241.094Z" fill="#009EF0"/>
    <path d="M109.725 241.094C108.811 241.094 108.354 240.631 108.354 239.705V226.814C108.354 225.903 108.811 225.447 109.725 225.447C110.654 225.447 111.118 225.903 111.118 226.814V234.822H111.163L114.811 231.046C115.106 230.757 115.364 230.532 115.585 230.373C115.806 230.214 116.109 230.134 116.492 230.134C116.875 230.134 117.163 230.236 117.354 230.438C117.561 230.626 117.664 230.858 117.664 231.133C117.664 231.408 117.531 231.683 117.266 231.957L113.949 235.386L117.642 239.293C117.907 239.567 118.025 239.85 117.996 240.139C117.981 240.414 117.863 240.645 117.642 240.833C117.421 241.007 117.141 241.094 116.801 241.094C116.389 241.094 116.057 241.014 115.806 240.855C115.57 240.696 115.305 240.457 115.01 240.139L111.163 236.189H111.118V239.705C111.118 240.631 110.654 241.094 109.725 241.094Z" fill="#009EF0"/>
</svg>
