<svg width="118" height="123" viewBox="0 0 118 123" fill="none" xmlns="http://www.w3.org/2000/svg">
<defs>
<linearGradient id="paint0_linear_220_5" x1="119.132" y1="55.3649" x2="4.00253" y2="64.4327" gradientUnits="userSpaceOnUse">
<stop stop-color="#FFD765"/>
<stop offset="1" stop-color="#FEDD2C" stop-opacity="0.14"/>
</linearGradient>
</defs>
    <path d="M9.62111 87.1947C20.4028 115.569 49.3642 101.024 63.4015 99.3987C76.89 97.8366 110.274 101.576 110.846 66.4257C111.13 48.9982 92.725 36.1604 79.5624 43.7553C59.8647 55.1195 56.8018 39.7344 48.0604 35.3144C29.3157 25.8308 -0.375196 60.8875 9.62111 87.1947Z" fill="url(#paint0_linear_220_5)"/>
    <path d="M107.472 14.9873C107.472 14.9873 106.79 14.4708 106.612 13.6992C106.484 13.1253 106.809 12.4111 106.835 12.3793L105.923 12.1943C105.923 12.1943 105.655 13.4059 106.108 14.2157C106.248 14.4644 106.656 14.8024 106.918 14.9299C107.211 15.0766 107.472 14.9873 107.472 14.9873Z" fill="#6BB7BF"/>
    <path d="M109.06 14.433L109.889 15.3831C109.889 15.3831 107.536 16.008 106.19 14.3438C106.197 14.3438 108.18 15.0133 109.06 14.433Z" fill="#86D1CD"/>
    <path d="M66.1783 2.48218C66.1783 2.48218 67.0264 1.07295 68.5249 1.93379L69.3475 1.04107C69.3475 1.04107 68.493 0.473553 66.6757 1.71061C65.4896 2.51406 66.1783 2.48218 66.1783 2.48218Z" fill="#F99746"/>
    <path d="M65.3428 3.85929C65.3428 3.85929 65.0559 2.32253 67.5874 1.1875C67.5874 1.1875 66.6819 1.704 66.4906 3.26627L65.3428 3.85929Z" fill="#F99746"/>
    <path d="M90.8453 15.571C90.8453 15.571 91.6934 14.1618 93.1919 15.0227L94.0145 14.1299C94.0145 14.1299 93.16 13.5624 91.3427 14.7995C90.1566 15.6029 90.8453 15.571 90.8453 15.571Z" fill="#F99746"/>
    <path d="M90.0098 16.9482C90.0098 16.9482 89.7229 15.4114 92.2544 14.2764C92.2544 14.2764 91.3489 14.7929 91.1576 16.3551L90.0098 16.9482Z" fill="#F99746"/>
    <path d="M13.8133 48.2018C13.8133 48.2018 12.4232 47.6534 12.9716 46.1805L12.047 45.5811C12.047 45.5811 11.6707 46.4355 13.0481 47.8703C13.9472 48.814 13.8133 48.2018 13.8133 48.2018Z" fill="#5685D8"/>
    <path d="M15.1779 48.7436C15.1779 48.7436 13.8452 49.2282 12.4487 47.1367C12.4487 47.1367 13.0481 47.87 14.4765 47.8063L15.1779 48.7436Z" fill="#739AF0"/>
    <path d="M17.8174 28.9326C17.8174 28.9326 18.5826 28.448 18.6655 27.8613C18.6655 27.8613 19.4115 27.8996 19.5709 28.1419C19.5709 28.1419 19.2266 29.1111 18.8249 29.2897C18.8313 29.2961 17.9194 29.3535 17.8174 28.9326Z" fill="#F1A34F"/>
    <path d="M59.1701 18.3158C59.1701 18.3158 58.0287 17.5953 57.9075 16.7217C57.9075 16.7217 56.7916 16.7791 56.5557 17.1425C56.5557 17.1425 57.0658 18.5836 57.6716 18.8578C57.6652 18.8578 59.017 18.9471 59.1701 18.3158Z" fill="#86D1CD"/>
    <path d="M94.3992 44.8818H75.7583V98.585H94.3992V44.8818Z" fill="#009EF0"/>
    <path d="M75.747 44.8818H26.4937V98.585H75.747V44.8818Z" fill="#74D0FF"/>
    <path d="M75.752 74.9108V71.1553L26.4986 71.1553V74.9108L75.752 74.9108Z" fill="#ABE2FF"/>
    <path d="M94.3965 74.9079V71.1523H75.7556V74.9079H94.3965Z" fill="#32B9FF"/>
    <path d="M62.4301 44.0627C62.4301 44.0627 77.5259 37.2038 88.0561 39.8127L85.9522 41.2224L87.0146 43.705C87.0146 43.705 75.3062 40.6543 62.125 44.473L62.4301 44.0627Z" fill="#009EF0"/>
    <path d="M59.8407 43.7997C59.8407 43.7997 57.8735 43.5577 54.9491 43.158C47.1855 42.0849 32.6262 39.8548 30.0173 37.7824C25.9147 34.5318 35.6349 20.7299 39.8428 18.8153C44.0612 16.9007 59.8407 43.7997 59.8407 43.7997Z" fill="#42BEFF"/>
    <path d="M90.6309 26.6097C91.3357 30.0286 59.5557 44.7983 59.5557 44.7983C59.5557 44.7983 60.1343 43.2308 61.0705 40.7903C64.5105 31.8485 72.779 11.1036 75.5036 11.3877C75.7771 11.4192 76.0927 11.5139 76.4503 11.6717C80.6267 13.5021 89.9787 23.4538 90.6309 26.6097Z" fill="#42BEFF"/>
    <path d="M76.1876 14.7021C74.252 18.0684 61.2812 40.4333 61.0708 40.7805C64.5107 31.8387 72.7793 11.0939 75.5039 11.3779C75.5039 11.3779 76.0404 11.3674 76.4506 11.6619C76.9451 12.0301 77.2607 12.8401 76.1876 14.7021Z" fill="#009EF0"/>
    <path d="M54.9589 43.1582C47.1848 42.0851 32.6361 39.855 30.0166 37.7826C28.8384 34.4584 31.8997 34.1848 34.1193 33.9534C36.3495 33.722 54.9589 43.1582 54.9589 43.1582Z" fill="#009EF0"/>
    <path d="M53.9185 44.8516C53.9185 44.8516 55.6963 40.8016 59.2099 40.5701C62.8707 40.3387 64.9536 44.8516 64.9536 44.8516H53.9185Z" fill="#009EF0"/>
    <path d="M76.5361 44.8818H25V52.2667H76.5361V44.8818Z" fill="#32B9FF"/>
    <path d="M95.9773 44.8818H76.5474V52.2667H95.9773V44.8818Z" fill="#0088CE"/>
    <path d="M55.7175 44.2624C55.7175 44.2624 45.6186 41.0644 38.8124 43.1788C30.9647 45.6194 31.4275 55.3081 31.4275 55.3081L33.279 54.5506L35.7722 55.7183C35.7722 55.7183 36.193 45.4616 42.5889 44.0204C48.1223 42.7791 55.7175 44.2624 55.7175 44.2624Z" fill="#009EF0"/>
    <path d="M50.5314 44.8818H46.7759V99.0478H50.5314V44.8818Z" fill="#ABE2FF"/>
    <path d="M52.8571 5.49892C52.8252 5.53718 52.7934 5.57544 52.7615 5.60732C52.7487 5.62008 52.7423 5.63283 52.7296 5.64558C52.7041 5.67109 52.6786 5.70297 52.6531 5.72848C51.4033 7.0038 49.3628 7.08669 48.0109 5.88152C46.7228 4.73373 46.5252 2.82713 47.488 1.44979C47.5646 1.34139 47.6475 1.23298 47.7367 1.13096C47.7686 1.0927 47.8005 1.06082 47.8388 1.02256C47.8706 0.990673 47.9025 0.952414 47.9408 0.920531C48.0428 0.818506 48.1576 0.729234 48.266 0.646338C48.4381 0.525183 48.6167 0.416781 48.8016 0.327509C49.3755 0.0533155 50.0195 -0.0487101 50.6444 0.0214324C51.3076 0.0979514 51.9517 0.372145 52.4937 0.850389C53.8391 2.06194 53.9922 4.10882 52.8571 5.49892Z" fill="#CDE0FB"/>
    <path d="M50.2813 6.46119C49.5288 6.46119 48.8146 6.187 48.2471 5.68324C47.635 5.14123 47.2715 4.3888 47.2269 3.57259C47.1822 2.75639 47.4564 1.96569 47.9984 1.35992C48.5404 0.747767 49.2929 0.384301 50.1091 0.339665C50.9253 0.295029 51.716 0.569222 52.3218 1.11123C52.9275 1.65324 53.2974 2.40568 53.342 3.22188C53.3866 4.03809 53.1125 4.82878 52.5704 5.43456C52.0284 6.04671 51.276 6.41017 50.4598 6.45481C50.396 6.46119 50.3386 6.46119 50.2813 6.46119ZM50.2876 0.51821C50.2302 0.51821 50.1729 0.51821 50.1155 0.524586C49.3439 0.569223 48.6425 0.907182 48.1323 1.48745C47.6222 2.06134 47.3608 2.80103 47.4054 3.57259C47.45 4.34416 47.788 5.04559 48.3683 5.55571C48.9422 6.06584 49.6819 6.32728 50.4534 6.28264C51.225 6.23801 51.9264 5.90005 52.4365 5.31978C52.9467 4.74589 53.2081 4.0062 53.1635 3.23464C53.1188 2.46307 52.7809 1.76164 52.2006 1.25152C51.665 0.773273 50.9954 0.51821 50.2876 0.51821Z" fill="#AFCDFB"/>
    <path d="M49.5279 1.27148L50.6247 2.33637L52.1232 2.04305L51.4473 3.40764L52.187 4.74672L50.6757 4.52354L49.6427 5.64582L49.3813 4.14095L47.9976 3.49691L49.3494 2.78911L49.5279 1.27148Z" fill="#AFCDFB"/>
    <path d="M43.0238 96.0773C42.9664 96.1475 42.9154 96.2112 42.8516 96.275C42.8325 96.2941 42.8134 96.3196 42.7942 96.3388C42.7496 96.3898 42.705 96.4344 42.6539 96.4854C40.4221 98.7619 36.7747 98.9085 34.3644 96.766C32.0688 94.7191 31.7117 91.314 33.427 88.8526C33.5609 88.655 33.714 88.4637 33.8734 88.2851C33.9308 88.2214 33.9945 88.1576 34.0519 88.0938C34.1093 88.0301 34.1731 87.9727 34.2305 87.9153C34.4154 87.7367 34.6131 87.5773 34.8171 87.4243C35.1168 87.2011 35.442 87.0162 35.7672 86.8568C36.7939 86.3658 37.9353 86.1809 39.0576 86.3148C40.2436 86.455 41.3978 86.946 42.3543 87.7941C44.7774 89.9367 45.0452 93.5968 43.0238 96.0773Z" fill="#CDE0FB"/>
    <path d="M38.4132 97.7994C37.0677 97.7994 35.7924 97.3148 34.7785 96.4093C33.6881 95.4337 33.0377 94.0946 32.9548 92.6344C32.8719 91.1741 33.3629 89.7713 34.3322 88.6745C35.3014 87.5778 36.6469 86.9337 38.1071 86.8508C39.5673 86.7679 40.9702 87.2589 42.067 88.2282C43.1574 89.2038 43.8078 90.5429 43.8907 92.0031C43.9736 93.4633 43.4826 94.8662 42.5133 95.963C41.5441 97.0597 40.1986 97.7038 38.7384 97.7867C38.6236 97.793 38.5152 97.7994 38.4132 97.7994ZM38.4259 87.176C38.3239 87.176 38.2219 87.176 38.1199 87.1824C36.7489 87.2589 35.4863 87.8711 34.5745 88.8977C33.6626 89.9243 33.1971 91.2443 33.28 92.6216C33.3629 93.999 33.9687 95.2552 34.9953 96.167C36.022 97.0789 37.3419 97.5443 38.7193 97.4615C40.0902 97.3849 41.3528 96.7728 42.2646 95.7462C43.1765 94.7195 43.642 93.3996 43.5591 92.0222C43.4826 90.6513 42.8704 89.3887 41.8438 88.4768C40.8937 87.6351 39.6885 87.176 38.4259 87.176Z" fill="#AFCDFB"/>
    <path d="M37.0744 88.5215L39.032 90.4281L41.7038 89.8988L40.4987 92.3474L41.825 94.7259L39.1277 94.3306L37.2721 96.3328L36.813 93.6419L34.3389 92.5005L36.7492 91.2315L37.0744 88.5215Z" fill="#AFCDFB"/>
    <path d="M61.8473 57.3338C61.8473 57.3338 61.0184 57.9013 60.0874 57.8056C59.3987 57.7355 58.7228 57.0978 58.6973 57.0596L58.1489 58.0097C58.1489 58.0097 59.3987 58.7685 60.4764 58.5581C60.808 58.4943 61.3372 58.1691 61.5795 57.9204C61.8473 57.659 61.8473 57.3338 61.8473 57.3338Z" fill="#6BB7BF"/>
    <path d="M61.8281 55.3507L63.2054 54.7832C63.2054 54.7832 63.0141 57.6399 60.6548 58.5135C60.6548 58.5135 62.1469 56.5559 61.8281 55.3507Z" fill="#86D1CD"/>
    <path d="M71.477 89.5234C71.477 89.5234 72.0764 90.2057 72.6695 90.193C72.6695 90.193 72.746 90.939 72.5355 91.1367C72.5355 91.1367 71.5217 90.9518 71.2794 90.5819C71.2794 90.5756 71.0753 89.6892 71.477 89.5234Z" fill="#F99746"/>
    <path d="M62.0524 80.1677C62.0524 80.1677 61.5104 79.5046 61.5168 78.7202C61.5232 78.1336 62.0078 77.5151 62.0397 77.4896L61.1916 77.1006C61.1916 77.1006 60.6432 78.2165 60.9046 79.1092C60.9811 79.3834 61.3 79.8106 61.5295 79.9955C61.7782 80.1932 62.0524 80.1677 62.0524 80.1677Z" fill="#CDE0FB"/>
    <path d="M63.7294 79.9961L64.316 81.1184C64.316 81.1184 61.8865 81.1758 60.9619 79.25C60.9683 79.2437 62.7346 80.3596 63.7294 79.9961Z" fill="#CDE0FB"/>
    <path d="M85.2184 92.0671C85.2184 92.0671 84.6764 91.404 84.6828 90.6196C84.6892 90.033 85.1738 89.4145 85.2057 89.389L84.3576 89C84.3576 89 83.8092 90.1159 84.0706 91.0086C84.1472 91.2828 84.466 91.71 84.6955 91.895C84.9442 92.0926 85.2184 92.0671 85.2184 92.0671Z" fill="#CDE0FB"/>
    <path d="M86.8954 91.8955L87.482 93.0178C87.482 93.0178 85.0525 93.0752 84.1279 91.1494C84.1343 91.1431 85.9006 92.259 86.8954 91.8955Z" fill="#CDE0FB"/>
</svg>
