<svg width="85" height="139" viewBox="0 0 85 139" fill="none" xmlns="http://www.w3.org/2000/svg">
<defs>
<linearGradient id="paint0_linear_1_17" x1="42.5" y1="9.06079" x2="42.5" y2="138.772" gradientUnits="userSpaceOnUse">
<stop stop-color="#009EF0"/>
<stop offset="1" stop-color="#36BAFF"/>
</linearGradient>
<linearGradient id="paint1_linear_1_17" x1="42.2461" y1="66.2863" x2="42.2461" y2="128.519" gradientUnits="userSpaceOnUse">
<stop stop-color="#009EF0"/>
<stop offset="1" stop-color="#36BAFF"/>
</linearGradient>
<linearGradient id="paint2_linear_1_17" x1="42.0855" y1="33.6199" x2="42.0855" y2="128.519" gradientUnits="userSpaceOnUse">
<stop offset="0.247917" stop-color="#FEDD2C"/>
<stop offset="1" stop-color="#EEA900"/>
</linearGradient>
</defs>
    <path fill-rule="evenodd" clip-rule="evenodd" d="M71.831 16.214H13.169C9.86309 16.214 7.1831 18.8828 7.1831 22.175V125.658C7.1831 128.95 9.86308 131.619 13.169 131.619H71.831C75.1369 131.619 77.8169 128.95 77.8169 125.658V22.175C77.8169 18.8828 75.1369 16.214 71.831 16.214ZM13.169 9.06079C5.89597 9.06079 0 14.9322 0 22.175V125.658C0 132.901 5.89597 138.772 13.169 138.772H71.831C79.104 138.772 85 132.901 85 125.658V22.175C85 14.9322 79.104 9.06079 71.831 9.06079H13.169Z" fill="url(#paint0_linear_1_17)"/>
    <path d="M10.0419 71.055C10.0419 68.4213 12.1859 66.2863 14.8306 66.2863H69.6616C72.3063 66.2863 74.4503 68.4213 74.4503 71.055V123.75C74.4503 126.384 72.3063 128.519 69.6616 128.519H14.8306C12.1859 128.519 10.0419 126.384 10.0419 123.75V71.055Z" fill="url(#paint1_linear_1_17)"/>
    <path d="M38.5559 34.9082L13.2648 89.2272C12.5867 90.6835 13.6297 92.0376 15.212 92.0376H39.1319C40.322 92.0376 41.2059 92.6918 41.2059 93.9041V126.223C41.2059 128.549 44.3723 129.428 45.3765 127.339L70.6203 74.8155C71.1145 73.7694 71.5909 70.8164 68.5353 70.8164H44.6627C43.4726 70.8164 42.9652 70.5896 42.9652 69.3773V35.7659C42.9652 33.4248 39.5407 32.793 38.5559 34.9082Z" fill="url(#paint2_linear_1_17)"/>
    <path d="M31.1296 24.9169C31.1296 23.2708 32.4696 21.9364 34.1226 21.9364H49.9254C51.5784 21.9364 52.9184 23.2708 52.9184 24.9169C52.9184 26.563 51.5784 27.8974 49.9254 27.8974H34.1226C32.4696 27.8974 31.1296 26.563 31.1296 24.9169Z" fill="#009EF0"/>
    <path d="M30.1255 3.57659C30.1255 1.6013 31.7335 0 33.717 0H51.1959C53.1795 0 54.7875 1.6013 54.7875 3.57659V6.91475C54.7875 7.04643 54.6803 7.15319 54.548 7.15319H30.3649C30.2327 7.15319 30.1255 7.04643 30.1255 6.91475V3.57659Z" fill="#009EF0"/>
</svg>
