<svg width="14" height="17" viewBox="0 0 14 17" fill="none" xmlns="http://www.w3.org/2000/svg">
<path fill-rule="evenodd" clip-rule="evenodd" d="M9.03641 0V3.36354C9.03641 4.12594 9.66427 4.70895 10.3818 4.70895H13.7454V14.7547C13.7454 15.5171 13.1175 16.1001 12.3999 16.1001H1.68147C0.919073 16.1001 0.33606 15.4723 0.33606 14.7547V1.34541C0.33606 0.583013 0.96392 0 1.68147 0H9.03641ZM8.15123 7.58096H10.1891C10.1891 6.27985 9.07611 5.71552 7.83771 5.62146L7.93177 4.00684H6.67769L6.75607 5.63714C5.48632 5.74687 4.46738 6.29553 4.46738 7.70636C4.46738 9.22059 5.90985 9.47265 7.00844 9.66461C7.68406 9.78267 8.22961 9.878 8.22961 10.2302C8.22961 10.6691 7.63392 10.6848 7.3204 10.6848C7.00688 10.6848 6.37985 10.5594 6.36417 9.9637V9.91667H4.32629C4.32629 11.2805 5.50199 11.9232 6.77174 12.0643L6.69336 13.6946H7.94744L7.85339 12.08C9.21719 11.9702 10.3302 11.4059 10.3302 9.88532C10.3302 8.29133 8.84794 8.06841 7.7442 7.90242C7.08949 7.80396 6.56796 7.72552 6.56796 7.39284C6.56796 6.98527 7.17932 6.98527 7.36743 6.98527C7.66527 6.98527 8.13555 7.07932 8.15123 7.58096Z" fill="#009EF0"/>
<path d="M10.379 0.0429688L13.7426 3.36166H10.379V0.0429688Z" fill="#009EF0"/>
</svg>
