<svg width="17" height="17" viewBox="0 0 17 17" fill="none" xmlns="http://www.w3.org/2000/svg">
<defs>
<linearGradient id="paint0_linear_145_2014" x1="9.8012" y1="6.70635" x2="2.78568" y2="22.2301" gradientUnits="userSpaceOnUse">
<stop stop-color="#FFDD5D"/>
<stop offset="1" stop-color="#FBBE0A"/>
</linearGradient>
<linearGradient id="paint1_linear_145_2014" x1="8.60457" y1="9.69691" x2="11.0923" y2="1.08925" gradientUnits="userSpaceOnUse">
<stop stop-color="#FEBC2A"/>
<stop offset="1" stop-color="#F8A201"/>
</linearGradient>
<linearGradient id="paint2_linear_145_2014" x1="9.15351" y1="1.88291" x2="1.78973" y2="11.834" gradientUnits="userSpaceOnUse">
<stop stop-color="#FEBC2A"/>
<stop offset="0.5391" stop-color="#FFDD5D"/>
<stop offset="1" stop-color="#F8A201"/>
</linearGradient>
<linearGradient id="paint3_linear_145_2014" x1="10.6034" y1="3.60072" x2="5.55967" y2="18.6654" gradientUnits="userSpaceOnUse">
<stop stop-color="#FFDD5D"/>
<stop offset="0.4944" stop-color="#FFEAA9"/>
<stop offset="1" stop-color="#FBBE0A"/>
</linearGradient>
<linearGradient id="paint4_linear_145_2014" x1="6.84666" y1="12.1867" x2="10.4954" y2="5.88434" gradientUnits="userSpaceOnUse">
<stop stop-color="#FFDD5D"/>
<stop offset="1" stop-color="#FBAC01"/>
</linearGradient>
</defs>
    <path d="M14.6256 7.92455C14.6209 9.55776 14.0346 11.1258 13.0761 12.3682C12.0245 13.7315 10.5309 14.6994 8.86975 14.932C5.69638 15.3787 3.13256 12.9638 3.13721 9.53915C3.14187 7.91989 3.71884 6.36113 4.66341 5.12342C5.715 3.74612 7.21793 2.76898 8.88837 2.53168C12.0664 2.08964 14.6349 4.50457 14.6256 7.92455Z" fill="url(#paint0_linear_145_2014)"/>
    <path d="M8.89605 1.82294C12.4324 1.32506 15.294 4.01917 15.2847 7.83466C15.2754 11.6501 12.4044 15.1492 8.86813 15.6471C5.33183 16.145 2.47021 13.4509 2.47951 9.63538C2.48882 5.81524 5.35974 2.31616 8.89605 1.82294ZM8.87279 14.9305C12.0415 14.4838 14.6193 11.3477 14.6239 7.92772C14.6286 4.50308 12.0648 2.09281 8.8914 2.5395C5.71803 2.9862 3.1449 6.12234 3.13559 9.54232C3.13559 12.9623 5.69942 15.3726 8.87279 14.9305Z" fill="url(#paint1_linear_145_2014)"/>
    <path d="M12.74 1.63322C12.6702 1.59599 12.5958 1.55877 12.5213 1.52154C12.5167 1.51689 12.5074 1.51689 12.4981 1.51224C12.4655 1.49362 12.4283 1.47967 12.3957 1.46571C12.3817 1.46105 12.3678 1.45175 12.3538 1.44709C12.3259 1.43314 12.2933 1.41918 12.2654 1.40987C12.2515 1.40522 12.2375 1.39591 12.2235 1.39126C12.191 1.3773 12.1584 1.36334 12.1258 1.34938C12.1165 1.34473 12.1072 1.34007 12.0979 1.33542C12.056 1.31681 12.0142 1.30285 11.9676 1.28424C11.9583 1.27958 11.9444 1.27493 11.9351 1.27028C11.9025 1.25632 11.8699 1.24701 11.8373 1.23305C11.8234 1.2284 11.8094 1.22375 11.7908 1.2191C11.7582 1.20979 11.7303 1.20048 11.6977 1.19118C11.6838 1.18652 11.6698 1.18187 11.6559 1.17722C11.6186 1.16326 11.5768 1.15395 11.5395 1.14465C11.5349 1.14465 11.5256 1.13999 11.5209 1.13999C11.4744 1.12603 11.4325 1.11673 11.386 1.10277C11.372 1.09812 11.3581 1.09346 11.3441 1.09346C11.3115 1.08416 11.2836 1.0795 11.2511 1.0702C11.2371 1.06555 11.2185 1.06089 11.2045 1.06089C11.172 1.05159 11.144 1.04693 11.1115 1.04228C11.0975 1.03763 11.0789 1.03763 11.0649 1.03297C11.0277 1.02367 10.9905 1.01901 10.9533 1.00971C10.944 1.00971 10.9346 1.00506 10.9253 1.00506C10.8788 0.99575 10.8323 0.991097 10.7858 0.981791C10.7718 0.981791 10.7625 0.977138 10.7485 0.977138C10.716 0.972484 10.6834 0.967831 10.6462 0.963178C10.6322 0.958525 10.6136 0.958525 10.5996 0.958525C10.5671 0.953872 10.5391 0.949219 10.5066 0.949219C10.488 0.949219 10.474 0.944566 10.4554 0.944566C10.4182 0.939913 10.3856 0.939913 10.3484 0.93526C10.3344 0.93526 10.3251 0.93526 10.3111 0.930607C10.2646 0.925954 10.2181 0.921301 10.1715 0.921301C10.1622 0.921301 10.1483 0.921301 10.139 0.921301C10.1018 0.921301 10.0645 0.916648 10.0273 0.916648C10.0087 0.916648 9.99473 0.916648 9.97612 0.916648C9.94355 0.916648 9.91098 0.916648 9.87841 0.916648H9.82722C9.79 0.916648 9.75743 0.916648 9.72486 0.916648C9.7109 0.916648 9.69694 0.916648 9.68298 0.916648C9.63645 0.916648 9.58527 0.921301 9.53874 0.921301C9.52943 0.921301 9.52478 0.921301 9.51547 0.921301C9.47359 0.921301 9.43172 0.925954 9.38984 0.925954C9.37123 0.925954 9.35727 0.925954 9.33866 0.930607C9.30608 0.930607 9.27351 0.93526 9.23629 0.939913C9.21768 0.939913 9.19906 0.944566 9.18511 0.944566C9.14788 0.949219 9.11531 0.953872 9.08274 0.953872C9.06878 0.953872 9.05017 0.958525 9.03621 0.958525C8.98502 0.963178 8.93849 0.972484 8.88731 0.977138C8.83148 0.986444 8.77564 0.99575 8.7198 1.0004C8.70584 1.00506 8.68723 1.00506 8.67327 1.00971C8.63139 1.01436 8.58952 1.02367 8.54764 1.03297C8.53368 1.03763 8.51507 1.03763 8.50111 1.04228C8.44527 1.05159 8.39409 1.06555 8.33825 1.07485C8.32895 1.07485 8.32429 1.0795 8.31499 1.0795C8.26846 1.08881 8.22193 1.10277 8.1754 1.11208C8.16144 1.11673 8.14283 1.12138 8.12887 1.12603C8.08699 1.13534 8.04511 1.1493 8.00323 1.15861C7.98928 1.16326 7.97532 1.16791 7.96136 1.16791C7.90552 1.18187 7.85434 1.20048 7.80315 1.21444C7.79385 1.2191 7.77989 1.22375 7.77058 1.22375C7.72871 1.23771 7.68683 1.25167 7.6403 1.26563C7.62634 1.27028 7.60773 1.27493 7.59377 1.27958C7.55189 1.29354 7.51001 1.3075 7.46348 1.32612C7.45418 1.33077 7.44022 1.33542 7.43091 1.33542C7.37973 1.35403 7.32854 1.37265 7.27736 1.39591C7.2634 1.40056 7.24944 1.40522 7.24014 1.40987C7.19826 1.42383 7.16103 1.44244 7.11916 1.4564C7.1052 1.46105 7.08659 1.47036 7.07263 1.47501C7.0261 1.49362 6.98422 1.51224 6.93769 1.5355C6.93304 1.54015 6.92373 1.54015 6.91908 1.54481C6.86789 1.56807 6.81671 1.59134 6.77018 1.6146C6.74691 1.62391 6.7283 1.63322 6.70504 1.64717C6.67247 1.66113 6.63989 1.67975 6.60732 1.69371C6.58406 1.70301 6.56545 1.71697 6.54218 1.72628C6.50961 1.74024 6.48169 1.75885 6.44912 1.77281C6.42586 1.78677 6.40259 1.79607 6.38398 1.81003C6.35141 1.82864 6.32349 1.8426 6.29092 1.86121C6.26765 1.87517 6.24904 1.88448 6.22577 1.89844C6.1932 1.91705 6.16529 1.93566 6.13271 1.95428C6.10945 1.96823 6.09084 1.97754 6.06757 1.9915C6.035 2.01011 6.00243 2.02872 5.97451 2.05199C5.9559 2.06595 5.93729 2.07525 5.91402 2.08921C5.8768 2.11248 5.84423 2.13574 5.807 2.15901C5.79304 2.16831 5.77908 2.17762 5.76047 2.18693C5.70929 2.2195 5.66276 2.25207 5.61157 2.28929C5.54643 2.33582 5.47664 2.38235 5.41149 2.43354C5.39288 2.4475 5.37892 2.4568 5.36031 2.47076C5.30447 2.51264 5.24398 2.55917 5.18815 2.60105C5.17884 2.6057 5.16954 2.61501 5.16023 2.61966C5.09509 2.67084 5.0346 2.72203 4.96945 2.77321C4.9555 2.78717 4.93688 2.80113 4.92292 2.81509C4.87174 2.86162 4.8159 2.90349 4.76472 2.95002C4.75076 2.95933 4.74146 2.97329 4.7275 2.9826C4.67166 3.03378 4.61582 3.08496 4.55999 3.1408C4.54603 3.15476 4.53672 3.16406 4.52276 3.17802C4.47623 3.2199 4.43436 3.26178 4.39248 3.30831C4.37852 3.32692 4.35991 3.34088 4.34595 3.35949C4.29942 3.40602 4.25289 3.45255 4.20636 3.50374C4.19705 3.51304 4.18774 3.52235 4.18309 3.527C4.13191 3.58284 4.07607 3.64333 4.02489 3.69916C4.01093 3.71312 3.99697 3.73173 3.98301 3.74569C3.94579 3.79222 3.90391 3.8341 3.86669 3.88063C3.85273 3.89924 3.83877 3.91786 3.82481 3.93182C3.77828 3.9923 3.72709 4.04814 3.68056 4.10863C3.68056 4.10863 3.68056 4.11328 3.67591 4.11328C3.62938 4.17377 3.5782 4.23892 3.53167 4.2994C3.51771 4.31802 3.50375 4.33663 3.48979 4.35524C3.46652 4.38781 3.44326 4.42038 3.41999 4.45296C3.41069 4.46691 3.39673 4.48553 3.38742 4.49949C3.37346 4.5181 3.36416 4.53671 3.3502 4.55067C3.30367 4.61581 3.25714 4.68561 3.21061 4.7554C3.2013 4.76936 3.19665 4.77867 3.18734 4.79263C3.15012 4.85312 3.11289 4.90895 3.07567 4.96944C3.06171 4.98805 3.0524 5.00667 3.03844 5.02528C2.99657 5.09507 2.95469 5.16487 2.91281 5.23932C2.91281 5.23932 2.91281 5.24397 2.90816 5.24397C2.86628 5.31377 2.82906 5.38356 2.79183 5.45336C2.77787 5.48128 2.75926 5.50919 2.7453 5.53711C2.736 5.55572 2.72204 5.57899 2.71273 5.5976C2.69412 5.63483 2.67551 5.67205 2.6569 5.70927L2.62898 5.76046C2.60106 5.81629 2.57779 5.86748 2.54988 5.92331C2.52196 5.97915 2.49869 6.03499 2.47543 6.09082C2.46612 6.10944 2.46147 6.12805 2.45216 6.14666C2.43355 6.18388 2.41959 6.22111 2.40098 6.25833C2.39167 6.2816 2.38237 6.30021 2.37306 6.32348C2.3591 6.3607 2.34514 6.39327 2.32653 6.4305C2.31722 6.45376 2.30792 6.47237 2.29861 6.49564C2.28465 6.53286 2.27069 6.57009 2.25673 6.60731C2.24743 6.62592 2.24278 6.64919 2.23347 6.6678C2.21951 6.70037 2.2102 6.73294 2.19625 6.76551C2.18694 6.79343 2.17298 6.826 2.16367 6.85392C2.15437 6.88649 2.14041 6.91906 2.1311 6.95164C2.1218 6.97955 2.11249 7.01213 2.10318 7.04004C2.09388 7.07261 2.08457 7.10519 2.07061 7.13776C2.06131 7.17033 2.052 7.19825 2.0427 7.22616C2.03339 7.25874 2.02408 7.29131 2.01478 7.32388C2.00547 7.3518 1.99616 7.38437 1.98686 7.41229C1.97755 7.44486 1.96825 7.47743 1.95894 7.51C1.94963 7.53792 1.94498 7.57049 1.93568 7.59841C1.92637 7.63098 1.91706 7.66355 1.91241 7.69612C1.9031 7.72869 1.89845 7.75661 1.88914 7.78918C1.87984 7.82175 1.87519 7.85432 1.86588 7.89155C1.86123 7.91947 1.85192 7.95204 1.84727 7.98461C1.83796 8.01718 1.83331 8.05441 1.82866 8.08698C1.824 8.11955 1.8147 8.14747 1.81004 8.18004C1.80539 8.21261 1.79608 8.24983 1.79143 8.2824C1.78678 8.31497 1.78213 8.34289 1.77747 8.37546C1.77282 8.41269 1.76817 8.44526 1.76351 8.48248C1.75886 8.5104 1.75421 8.54297 1.74955 8.57089C1.7449 8.60812 1.74025 8.64069 1.73559 8.67791C1.73094 8.70583 1.72629 8.7384 1.72164 8.76632C1.71698 8.80354 1.71233 8.84077 1.70768 8.87334C1.70302 8.90126 1.70302 8.93383 1.69837 8.96175C1.69372 8.99897 1.69372 9.0362 1.68906 9.07342C1.68906 9.10134 1.68441 9.12926 1.68441 9.15718C1.67976 9.19905 1.67976 9.23628 1.67511 9.27815C1.67511 9.30607 1.67045 9.32934 1.67045 9.35725C1.67045 9.39913 1.6658 9.44566 1.6658 9.48754C1.6658 9.51081 1.6658 9.53407 1.66115 9.55733C1.66115 9.62248 1.65649 9.69227 1.65649 9.75742C1.69372 12.5027 3.02449 14.7362 5.02994 15.8296L3.33159 14.9083C1.32613 13.8149 -0.00464087 11.5768 1.2163e-05 8.8175C1.2163e-05 8.75236 1.21629e-05 8.68722 0.0046652 8.61742C0.0046652 8.59416 0.0046652 8.57089 0.0046652 8.54763C0.0046652 8.50575 0.00931824 8.45922 0.00931824 8.41734C0.00931824 8.38942 0.0139713 8.36616 0.0139713 8.33824C0.0139713 8.30102 0.0186243 8.25914 0.0186243 8.22191C0.0186243 8.194 0.0232773 8.16608 0.0279304 8.13816C0.0325834 8.10093 0.0325834 8.06371 0.0372365 8.02649C0.0418895 7.99857 0.0418895 7.966 0.0465425 7.93808C0.0511956 7.90085 0.0511956 7.86828 0.0558486 7.83106C0.0605016 7.80314 0.0651547 7.77057 0.0651547 7.74265C0.0698077 7.70543 0.0744607 7.67286 0.0791138 7.63563C0.0837668 7.60771 0.0884198 7.57514 0.0930729 7.54722C0.0977259 7.51 0.102379 7.47743 0.107032 7.4402C0.111685 7.41229 0.116338 7.37971 0.120991 7.3518C0.125644 7.31457 0.13495 7.282 0.139603 7.24943C0.144256 7.21686 0.153562 7.18894 0.158215 7.15637C0.162868 7.1238 0.172174 7.08657 0.176828 7.054C0.181481 7.02143 0.190787 6.99351 0.19544 6.96094C0.204746 6.92837 0.209399 6.8958 0.218705 6.85857C0.228011 6.826 0.232664 6.79809 0.24197 6.76551C0.251276 6.73294 0.255929 6.70037 0.265235 6.6678C0.274541 6.63988 0.279194 6.60731 0.2885 6.57939C0.297806 6.54682 0.307113 6.51425 0.316419 6.48168C0.325725 6.45376 0.335031 6.42119 0.339684 6.39327C0.34899 6.3607 0.358296 6.32813 0.367602 6.29556C0.376908 6.26764 0.386214 6.23507 0.39552 6.20715C0.404826 6.17458 0.414132 6.14201 0.423438 6.10944C0.432745 6.08152 0.442051 6.04895 0.451357 6.02103C0.460663 5.98846 0.474622 5.95589 0.483928 5.92797C0.493234 5.90005 0.507193 5.86748 0.516499 5.83956C0.525805 5.81629 0.535111 5.79303 0.539764 5.76976C0.544417 5.76046 0.544417 5.75115 0.54907 5.7465C0.558376 5.72323 0.56303 5.70462 0.572336 5.68601C0.586295 5.64879 0.600254 5.61156 0.614213 5.57899C0.623519 5.55572 0.632825 5.53711 0.642131 5.51385C0.65609 5.47662 0.670049 5.44405 0.688662 5.40683C0.697968 5.38356 0.707274 5.36495 0.71658 5.34168C0.730539 5.30446 0.749151 5.26724 0.767763 5.22536C0.777069 5.20675 0.781722 5.18813 0.791028 5.16952C0.814294 5.11369 0.842212 5.05785 0.865477 5.00201C0.893395 4.94618 0.91666 4.89499 0.944578 4.83916C0.953885 4.82055 0.963191 4.80193 0.972497 4.78797C0.991109 4.75075 1.00972 4.71353 1.02833 4.6763C1.03764 4.65769 1.0516 4.63442 1.0609 4.61581C1.07021 4.5972 1.07952 4.57859 1.08882 4.55998C1.09348 4.55067 1.09813 4.54136 1.10278 4.53206C1.14001 4.46226 1.18188 4.39247 1.21911 4.32267L1.22376 4.31802C1.26564 4.24822 1.30752 4.17377 1.34939 4.10398C1.36335 4.08537 1.37266 4.06675 1.38662 4.04814C1.42384 3.98765 1.46107 3.93182 1.49829 3.87133C1.5076 3.85737 1.51225 3.84806 1.52156 3.8341C1.56343 3.77361 1.60531 3.70847 1.64719 3.64798C1.65184 3.64333 1.65649 3.63867 1.65649 3.63402C1.66115 3.62937 1.6658 3.62006 1.67045 3.61541C1.67976 3.60145 1.68441 3.59214 1.69372 3.58284C1.72629 3.53631 1.76351 3.48512 1.79608 3.43859C1.81004 3.41998 1.824 3.40137 1.83796 3.38276C1.88449 3.32227 1.93102 3.25712 1.98221 3.19664L1.98686 3.19198C2.03339 3.13149 2.07992 3.07566 2.1311 3.01517C2.14506 2.99655 2.15902 2.97794 2.17298 2.96398C2.2102 2.91745 2.24743 2.87558 2.28931 2.82905C2.29861 2.81974 2.30792 2.80578 2.31722 2.79647C2.32188 2.79182 2.32653 2.78717 2.33118 2.78252C2.38237 2.72203 2.43355 2.66619 2.48939 2.61035C2.49869 2.60105 2.50335 2.59174 2.51265 2.58709C2.55918 2.54056 2.60571 2.48937 2.65224 2.44284C2.67086 2.42423 2.68481 2.41027 2.70343 2.39166C2.7453 2.34978 2.79183 2.30325 2.83371 2.26138C2.84767 2.24742 2.85698 2.23811 2.87094 2.22415C2.92677 2.17297 2.98261 2.11713 3.0431 2.06595C3.04775 2.0613 3.0524 2.0613 3.0524 2.05664C3.06171 2.04734 3.07102 2.04268 3.08032 2.03338C3.13151 1.98685 3.18269 1.94032 3.23853 1.89844C3.25248 1.88448 3.2711 1.87052 3.28506 1.85656C3.34555 1.80538 3.41069 1.75419 3.47583 1.70301C3.48514 1.69371 3.49444 1.68905 3.50375 1.67975C3.55958 1.63322 3.62007 1.59134 3.67591 1.54946C3.69452 1.5355 3.70848 1.5262 3.72709 1.51224C3.79224 1.46571 3.85738 1.41452 3.92717 1.36799C3.97371 1.33542 4.02489 1.30285 4.07142 1.27028C4.08538 1.26097 4.09934 1.25167 4.1133 1.24236C4.15052 1.2191 4.18309 1.19583 4.22032 1.17257C4.23893 1.15861 4.25754 1.1493 4.27615 1.13534C4.30872 1.11673 4.34129 1.09812 4.36921 1.07485C4.39248 1.06089 4.41109 1.05159 4.4297 1.03763C4.46227 1.01901 4.49019 1.0004 4.52276 0.986444C4.54603 0.972485 4.56464 0.963179 4.58791 0.949219C4.62048 0.930607 4.6484 0.916648 4.68097 0.898036C4.70423 0.884077 4.7275 0.874771 4.74611 0.860812C4.77868 0.846853 4.8066 0.82824 4.83917 0.814281C4.86243 0.804975 4.88105 0.791016 4.90431 0.78171C4.93688 0.767751 4.96945 0.749139 5.00203 0.73518C5.02529 0.725874 5.0439 0.716568 5.06717 0.702608C5.07182 0.697955 5.08113 0.697955 5.08578 0.693302C5.12766 0.67469 5.17419 0.651425 5.21607 0.632813C5.22072 0.62816 5.23002 0.62816 5.23468 0.623507C5.28121 0.604895 5.32309 0.581629 5.36962 0.563017C5.38357 0.558364 5.40219 0.549058 5.41615 0.544405C5.45802 0.530446 5.49525 0.511834 5.53713 0.497875C5.55108 0.493222 5.56504 0.488569 5.57435 0.483916C5.62553 0.465304 5.67672 0.446691 5.7279 0.423426C5.73721 0.418773 5.75116 0.41412 5.76047 0.41412C5.80235 0.400161 5.84423 0.386202 5.89076 0.36759C5.90472 0.362937 5.92333 0.358284 5.93729 0.353631C5.97916 0.339672 6.02104 0.325713 6.06757 0.311753C6.07688 0.3071 6.09084 0.3071 6.10014 0.302447C6.15133 0.283835 6.20716 0.269876 6.25835 0.255917C6.27231 0.251264 6.28626 0.246611 6.29557 0.246611C6.33745 0.237305 6.37932 0.223346 6.4212 0.21404C6.43516 0.209387 6.45377 0.204734 6.46773 0.200081C6.51426 0.186121 6.56079 0.176815 6.61198 0.167509C6.62128 0.167509 6.62594 0.162856 6.63524 0.162856C6.69108 0.148897 6.74226 0.139591 6.7981 0.130285C6.81206 0.125632 6.82602 0.125632 6.84463 0.120979C6.88651 0.111673 6.92838 0.10702 6.97026 0.0977138C6.98422 0.0930607 7.00283 0.0930607 7.01679 0.0884077C7.07263 0.0791016 7.12846 0.0697955 7.1843 0.0651425C7.23548 0.0558364 7.28667 0.0511834 7.3332 0.0465304C7.34716 0.0465304 7.36577 0.0418773 7.37973 0.0418773C7.4123 0.0372243 7.44952 0.0325712 7.48209 0.0325712C7.50071 0.0325712 7.51932 0.0279182 7.53328 0.0279182C7.56585 0.0232652 7.60307 0.0232652 7.63564 0.0186121C7.65426 0.0186121 7.66822 0.0186121 7.68683 0.0139591C7.7287 0.00930607 7.77058 0.00930607 7.81246 0.00465304C7.82177 0.00465304 7.82642 0.00465304 7.83572 0.00465304C7.88226 0.00465304 7.93344 0 7.97997 0C7.99393 0 8.00789 0 8.02185 0C8.05907 0 8.09164 0 8.12421 0C8.14283 0 8.15678 0 8.1754 0C8.20797 0 8.24054 0 8.27311 0C8.28707 0 8.30568 0 8.32429 0C8.36152 0 8.39874 0.00465304 8.43597 0.00465304C8.44527 0.00465304 8.45923 0.00465304 8.46854 0.00465304C8.51507 0.00465304 8.5616 0.00930607 8.61278 0.0139591C8.62674 0.0139591 8.63605 0.0139591 8.65001 0.0186121C8.68723 0.0232652 8.7198 0.0232652 8.75703 0.0279182C8.77099 0.0279182 8.7896 0.0325712 8.80356 0.0325712C8.83613 0.0372243 8.8687 0.0418773 8.89662 0.0418773C8.91058 0.0418773 8.92919 0.0465304 8.94315 0.0465304C8.97572 0.0511834 9.01294 0.0558364 9.04551 0.0604895C9.05947 0.0604895 9.06878 0.0651425 9.08274 0.0651425C9.12927 0.0744486 9.1758 0.0791016 9.22233 0.0884077C9.23164 0.0884077 9.24094 0.0930607 9.24559 0.0930607C9.28282 0.0977138 9.32004 0.10702 9.35727 0.116326C9.37123 0.120979 9.38519 0.120979 9.4038 0.125632C9.43637 0.130285 9.46429 0.139591 9.49686 0.144244C9.51082 0.148897 9.52943 0.15355 9.54339 0.15355C9.57596 0.162856 9.60388 0.167509 9.63645 0.176815C9.64576 0.176815 9.65506 0.181468 9.66437 0.186121C9.66902 0.186121 9.67367 0.186121 9.67367 0.190774C9.7202 0.204734 9.76208 0.21404 9.80861 0.227999C9.81327 0.227999 9.82257 0.232652 9.82722 0.232652C9.86445 0.241958 9.90633 0.255917 9.94355 0.265223C9.95751 0.269876 9.97147 0.274529 9.98543 0.279182C10.018 0.288488 10.0459 0.297794 10.0785 0.311753C10.0924 0.316406 10.1064 0.321059 10.125 0.325713C10.1576 0.335019 10.1902 0.348978 10.2227 0.362937C10.232 0.36759 10.246 0.372243 10.2553 0.376896C10.2972 0.390855 10.3391 0.409467 10.3856 0.428079C10.3949 0.432732 10.4042 0.437385 10.4135 0.442038C10.4461 0.455998 10.4786 0.469957 10.5112 0.483916L10.5531 0.502528C10.581 0.516487 10.6136 0.525793 10.6415 0.539752C10.6555 0.544405 10.6694 0.553711 10.6834 0.558364C10.716 0.572323 10.7532 0.590936 10.7858 0.604895L10.8044 0.614201C10.8044 0.614201 10.8044 0.614201 10.809 0.614201C10.8835 0.651425 10.9533 0.688649 11.0231 0.725874L12.74 1.63322Z" fill="url(#paint2_linear_145_2014)"/>
    <path d="M8.90238 0.977623C12.8714 0.419259 16.082 3.43908 16.0727 7.72453C16.0634 12.01 12.8389 15.9371 8.86981 16.4908C4.90077 17.0492 1.69018 14.0294 1.69483 9.74394C1.70414 5.4585 4.92869 1.53599 8.90238 0.977623ZM8.87446 15.644C12.4108 15.1461 15.2817 11.6517 15.291 7.83155C15.3003 4.01606 12.4387 1.3266 8.90238 1.81982C5.36607 2.3177 2.49515 5.81213 2.48585 9.62762C2.47654 13.4478 5.33816 16.1419 8.87446 15.644Z" fill="url(#paint3_linear_145_2014)"/>
    <path d="M13.08 12.3678C12.0284 13.7312 10.5348 14.699 8.87366 14.9316C5.70029 15.3783 3.13647 12.9634 3.14112 9.53878C3.14577 7.91952 3.72275 6.36075 4.66732 5.12305L13.08 12.3678Z" fill="url(#paint4_linear_145_2014)"/>
    <path d="M9.90978 4.38574V13.3123H8.01071V6.56685L5.95996 7.1979V5.71524L9.7217 4.38574H9.90978Z" fill="#F8A201"/>
    <path d="M8.01416 8.01953L9.91007 9.63896V13.3123H8.01416V8.01953Z" fill="#F88C09"/>
</svg>
