<svg width="13" height="15" viewBox="0 0 13 15" fill="none" xmlns="http://www.w3.org/2000/svg">
<path d="M9.57227 0L12.0665 2.52788H9.57227V0Z" fill="white"/>
<path d="M6.53879 4.51616V1.98828H1.01115C0.471871 1.98828 0 2.42645 0 2.99943V13.0773C0 13.6165 0.438166 14.0884 1.01115 14.0884H9.06667C9.60595 14.0884 10.0778 13.6502 10.0778 13.0773V5.52732H7.54994C7.01066 5.52732 6.53879 5.08915 6.53879 4.51616Z" fill="white"/>
<path d="M7.55005 2.02246L10.0779 4.51664H7.55005V2.02246Z" fill="white"/>
<path d="M8.561 0H3.03337C2.49409 0 2.02222 0.438166 2.02222 1.01115H7.54985C7.81949 1.01115 8.08913 1.11227 8.25766 1.3145L8.561 1.61785V0Z" fill="white"/>
<path d="M10.7861 3.80701C10.9883 4.00924 11.0895 4.24517 11.0895 4.51482V12.0648C11.6287 12.0648 12.1006 11.6266 12.1006 11.0536V3.50366H10.5165L10.7861 3.80701Z" fill="white"/>
</svg>
