<svg width="16" height="16" viewBox="0 0 16 16" fill="none" xmlns="http://www.w3.org/2000/svg">
<path d="M10.7131 9.5105C10.7131 10.0699 10.5173 10.5175 10.0977 10.8811C9.7061 11.2448 9.11869 11.4685 8.33547 11.5525V12.7832H7.58022V11.5804C6.62917 11.5525 5.84596 11.4126 5.25854 11.1329V9.93008C5.59421 10.0979 5.95785 10.2378 6.4054 10.3217C6.85295 10.4336 7.24456 10.4895 7.58022 10.4895V8.33568L7.13267 8.16785C6.51729 7.9161 6.04176 7.63638 5.76204 7.30071C5.48232 6.96505 5.34246 6.54547 5.34246 6.06994C5.34246 5.53848 5.53827 5.1189 5.95785 4.78323C6.37743 4.44757 6.93687 4.25176 7.63617 4.16785V3.2168H8.39141V4.16785C9.17463 4.19582 9.9019 4.36365 10.6012 4.64337L10.1537 5.65036C9.56624 5.42659 8.95085 5.25875 8.36344 5.23078V7.32868L8.81099 7.49652C9.53827 7.77624 10.0418 8.05596 10.3215 8.39162C10.5732 8.67134 10.7131 9.06295 10.7131 9.5105ZM6.65715 6.06994C6.65715 6.29372 6.71309 6.46155 6.85295 6.60141C6.99281 6.74127 7.24456 6.88113 7.58022 7.02099V5.23078C7.27253 5.28673 7.04875 5.37064 6.88092 5.5105C6.74106 5.67834 6.65715 5.84617 6.65715 6.06994ZM9.37043 9.59442C9.37043 9.37064 9.28652 9.20281 9.14666 9.03498C8.97883 8.89512 8.72708 8.75526 8.36344 8.6154V10.4336C9.03477 10.3497 9.37043 10.0699 9.37043 9.59442Z" fill="#009EF0"/>
<path fill-rule="evenodd" clip-rule="evenodd" d="M8 1.19403C4.24117 1.19403 1.19403 4.24117 1.19403 8C1.19403 11.7588 4.24117 14.806 8 14.806C11.7588 14.806 14.806 11.7588 14.806 8C14.806 4.24117 11.7588 1.19403 8 1.19403ZM0 8C0 3.58172 3.58173 0 8 0C12.4183 0 16 3.58172 16 8C16 12.4183 12.4183 16 8 16C3.58173 16 0 12.4183 0 8Z" fill="#009EF0"/>
</svg>
