<svg width="37" height="37" viewBox="0 0 37 37" fill="none" xmlns="http://www.w3.org/2000/svg">
<path d="M0 7.99999C0 3.58172 3.58172 0 8 0H28.7324C33.1507 0 36.7324 3.58172 36.7324 8V28.7324C36.7324 33.1507 33.1507 36.7324 28.7324 36.7324H7.99999C3.58172 36.7324 0 33.1507 0 28.7324V7.99999Z" fill="#009EF0"/>
<path d="M2.03052 9.53051C2.03052 5.38838 5.38838 2.03052 9.53052 2.03052H26.4366C30.5788 2.03052 33.9366 5.38838 33.9366 9.53052V27.2019C33.9366 31.344 30.5788 34.7019 26.4366 34.7019H9.53051C5.38838 34.7019 2.03052 31.344 2.03052 27.2019V9.53051Z" stroke="white"/>
<path d="M21.6281 10.6993H23.724V7.04899C23.3624 6.99925 22.1188 6.88733 20.6706 6.88733C17.6488 6.88733 15.5788 8.78804 15.5788 12.2814V15.4965H12.2441V19.5772H15.5788V29.8451H19.6671V19.5782H22.8669L23.3748 15.4974H19.6662V12.6861C19.6671 11.5066 19.9847 10.6993 21.6281 10.6993Z" fill="white"/>
</svg>
