<svg width="9" height="22" viewBox="0 0 9 22" fill="none" xmlns="http://www.w3.org/2000/svg">
<path fill-rule="evenodd" clip-rule="evenodd" d="M2.79263 10.2795C2.79263 9.41421 3.49116 8.7127 4.353 8.7127C5.21485 8.7127 5.91338 9.41421 5.91338 10.2795V12.1591C5.91338 13.0243 5.21485 13.7257 4.353 13.7257C3.49116 13.7257 2.79263 13.0243 2.79263 12.1591V10.2795ZM0.146973 3.33328L0.179178 3.38987L0.148655 3.33727C0.148655 3.33727 0.394879 4.1487 0.963513 5.1258C1.39492 5.86677 1.79844 6.35363 1.98698 6.56479L2.0878 6.74179V20.6589C2.0878 21.3995 2.68564 21.9999 3.42323 21.9999H5.28258C6.02005 21.9999 6.61801 21.3995 6.61801 20.6589V6.72188L6.69251 6.59181C6.86676 6.40008 7.28999 5.9014 7.74374 5.1217C8.31262 4.14472 8.55872 3.33328 8.55872 3.33328V2.22901H0.146973V3.33328ZM8.55872 0.632014C8.55872 0.282946 8.27693 0 7.92928 0H0.776412C0.428886 0 0.146973 0.282946 0.146973 0.632014C0.146973 0.634789 0.147814 0.637323 0.147814 0.639978H0.146973V1.25956H0.731829C0.74685 1.26053 0.76115 1.26403 0.776412 1.26403H7.92928C7.94454 1.26403 7.95884 1.26053 7.97386 1.25956H8.55872V0.639978H8.55788C8.558 0.637323 8.55872 0.634789 8.55872 0.632014ZM4.19534 13.0607C4.71363 13.1481 5.20427 12.7969 5.29127 12.2765C5.37828 11.756 5.02871 11.2634 4.5103 11.176C3.99202 11.0888 3.50137 11.4398 3.41437 11.9603C3.32737 12.4807 3.67706 12.9733 4.19534 13.0607Z" fill="white"/>
</svg>
