<svg width="13" height="16" viewBox="0 0 13 16" fill="none" xmlns="http://www.w3.org/2000/svg">
<path fill-rule="evenodd" clip-rule="evenodd" d="M6.18554 16C5.29001 16 4.45845 15.5598 3.90396 14.7923C1.3135 11.2063 0 8.50349 0 6.75891C0 3.03202 2.77483 0 6.18554 0C9.59625 0 12.3711 3.03202 12.3711 6.75891C12.3711 8.50349 11.0576 11.2063 8.46713 14.7923C7.91264 15.5598 7.08108 16 6.18554 16ZM6.18513 8.78103C7.44372 8.78103 8.46402 7.79548 8.46402 6.57977C8.34397 3.65984 4.02585 3.66063 3.90625 6.57977C3.90625 7.79548 4.92655 8.78103 6.18513 8.78103Z" fill="#009EF0"/>
</svg>
