<svg width="24" height="21" viewBox="0 0 24 21" fill="none" xmlns="http://www.w3.org/2000/svg">
<path fill-rule="evenodd" clip-rule="evenodd" d="M9.625 1.45455H4.375C2.20038 1.45455 0.4375 3.28611 0.4375 5.54545V16.4545C0.4375 18.7139 2.20038 20.5455 4.375 20.5455H9.625C11.7996 20.5455 13.5625 18.7139 13.5625 16.4545V5.54545C13.5625 3.28611 11.7996 1.45455 9.625 1.45455ZM4.375 1C1.95875 1 0 3.03507 0 5.54545V16.4545C0 18.9649 1.95875 21 4.375 21H9.625C12.0412 21 14 18.9649 14 16.4545V5.54545C14 3.03507 12.0412 1 9.625 1H4.375Z" fill="#BBBBBB"/>
<path d="M1.27344 16.7577C1.27344 16.2891 1.62411 15.9092 2.05669 15.9092H11.9453C12.3778 15.9092 12.7285 16.2891 12.7285 16.7577C12.7285 18.3979 11.5012 19.7275 9.98713 19.7275H4.01482C2.5008 19.7275 1.27344 18.3979 1.27344 16.7577Z" fill="#009EF0"/>
<path d="M1.27344 12.4097C1.27344 11.8825 1.66795 11.4551 2.1546 11.4551H11.8474C12.334 11.4551 12.7285 11.8825 12.7285 12.4097V14.3188C12.7285 14.8461 12.334 15.2734 11.8474 15.2734H2.1546C1.66795 15.2734 1.27344 14.8461 1.27344 14.3188V12.4097Z" fill="#009EF0"/>
<path d="M1.27344 7.95459C1.27344 7.42738 1.66795 7 2.1546 7H11.8474C12.334 7 12.7285 7.42738 12.7285 7.95459V9.86377C12.7285 10.391 12.334 10.8184 11.8474 10.8184H2.1546C1.66795 10.8184 1.27344 10.391 1.27344 9.86377V7.95459Z" fill="#009EF0"/>
<path d="M1.27344 5.51573C1.27344 3.87554 2.5008 2.5459 4.01482 2.5459H9.98713C11.5012 2.5459 12.7285 3.87554 12.7285 5.51573C12.7285 5.98436 12.3778 6.36426 11.9453 6.36426H2.05669C1.62411 6.36426 1.27344 5.98436 1.27344 5.51573Z" fill="#009EF0"/>
<path d="M3.81836 1.27279C3.81836 0.569846 4.42891 0 5.18206 0H8.81859C9.57174 0 10.1823 0.569846 10.1823 1.27279H3.81836Z" fill="#BBBBBB"/>
<path d="M19.5 20C19.5 20.2761 19.7239 20.5 20 20.5C20.2761 20.5 20.5 20.2761 20.5 20L19.5 20ZM20.3536 0.646446C20.1583 0.451185 19.8417 0.451185 19.6464 0.646446L16.4645 3.82843C16.2692 4.02369 16.2692 4.34027 16.4645 4.53553C16.6597 4.7308 16.9763 4.7308 17.1716 4.53553L20 1.70711L22.8284 4.53553C23.0237 4.7308 23.3403 4.7308 23.5355 4.53553C23.7308 4.34027 23.7308 4.02369 23.5355 3.82843L20.3536 0.646446ZM20.5 20L20.5 1L19.5 1L19.5 20L20.5 20Z" fill="#BBBBBB"/>
</svg>
