<svg width="55" height="56" viewBox="0 0 55 56" fill="none" xmlns="http://www.w3.org/2000/svg">
<path fill-rule="evenodd" clip-rule="evenodd" d="M8.96562 0.5C6.58117 0.5 4.57225 1.26796 3.23161 2.80815C2.09824 4.09533 1.50469 5.86411 1.50469 7.76406C1.50469 9.4841 2.01159 11.1369 2.94 12.4391H1.2875C0.57542 12.4391 0 13.0145 0 13.7266V22.2484C0 22.9605 0.575421 23.5359 1.2875 23.5359H2.77031V32.8516C2.77031 33.5636 3.34573 34.1391 4.05781 34.1391C4.76989 34.1391 5.34531 33.5636 5.34531 32.8516V23.5359H21.9375V52.9109H5.34531V36.6063C5.34531 35.8942 4.76989 35.3188 4.05781 35.3188C3.34573 35.3188 2.77031 35.8942 2.77031 36.6063V54.2125C2.77031 54.9246 3.34573 55.5 4.05781 55.5H50.9422C51.6543 55.5 52.2297 54.9246 52.2297 54.2125V36.6063C52.2297 35.8942 51.6543 35.3188 50.9422 35.3188C50.2301 35.3188 49.6547 35.8942 49.6547 36.6063V52.9109H33.0484V36.6063C33.0484 35.8942 32.473 35.3188 31.7609 35.3188C31.0489 35.3188 30.4734 35.8942 30.4734 36.6063V52.9109H24.5266V23.5359H30.4734V32.8516C30.4734 33.5636 31.0489 34.1391 31.7609 34.1391C32.473 34.1391 33.0484 33.5636 33.0484 32.8516V23.5359H49.6406V32.8516C49.6406 33.5636 50.216 34.1391 50.9281 34.1391C51.6402 34.1391 52.2156 33.5636 52.2156 32.8516V23.5359H53.6984C54.4105 23.5359 54.9859 22.9605 54.9859 22.2484V13.7337C55.0043 13.0102 54.4184 12.4391 53.7125 12.4391H52.0741C53.0025 11.1369 53.5094 9.4841 53.5094 7.76406C53.5094 5.86059 52.8998 4.09385 51.7837 2.80952L51.7816 2.80719C50.4278 1.26873 48.4202 0.5 46.0344 0.5C39.8595 0.5 34.4689 4.36848 32.1241 6.32857C31.6322 5.88535 30.9821 5.60469 30.2703 5.60469H24.7297C24.0153 5.60469 23.3601 5.8712 22.869 6.32281C20.5205 4.36091 15.1345 0.5 8.96562 0.5ZM33.0484 8.99426V8.95407C33.7519 8.31598 35.3841 6.93141 37.5649 5.66522C39.9366 4.28823 42.9163 3.07517 46.0337 3.075C48.3795 3.08179 49.5599 3.99679 50.1818 4.98277C50.8281 6.00737 50.9203 7.18832 50.9203 7.76406C50.9203 8.96191 50.572 10.1458 49.9211 11.0174C49.2795 11.8764 48.3428 12.4391 47.1031 12.4391H33.0484V11.7698C33.4903 11.5736 34.1017 11.3273 34.7616 11.1432C35.4613 10.9548 35.8411 10.2364 35.6612 9.56179C35.4741 8.86016 34.7545 8.47892 34.079 8.65907L34.0763 8.65981C33.7137 8.75868 33.3667 8.87544 33.0484 8.99426ZM4.07969 7.76406C4.07969 7.19703 4.17491 6.01552 4.82319 4.99026C5.44715 4.00346 6.62775 3.08906 8.96562 3.08906C12.0762 3.08906 15.0561 4.30212 17.4299 5.67936C19.6126 6.94566 21.2479 8.33032 21.9516 8.96819V8.98478C21.6339 8.86852 21.2906 8.75383 20.9339 8.64845L20.921 8.64501C20.2455 8.46486 19.5259 8.8461 19.3388 9.54773C19.1589 10.2223 19.5388 10.9408 20.2385 11.1292C20.8983 11.3133 21.5097 11.5596 21.9516 11.7558V12.425L7.89687 12.425L7.8944 12.425C6.64889 12.4312 5.71332 11.869 5.074 11.0108C4.42483 10.1395 4.07969 8.95559 4.07969 7.76406ZM24.5266 8.39687C24.5266 8.29333 24.6261 8.19375 24.7297 8.19375H30.2703C30.3804 8.19375 30.4734 8.28575 30.4734 8.39687V12.4391H24.5266V8.39687ZM2.58906 20.9609V15.0141H19.8281V20.9609H2.58906ZM22.4031 20.9609V15.0141H32.6109V20.9609H22.4031ZM52.425 15.0141V20.9609H35.1859V15.0141H52.425Z" fill="#FFDA58"/>
</svg>
