<svg width="12" height="12" viewBox="0 0 12 12" fill="none" xmlns="http://www.w3.org/2000/svg">
<path fill-rule="evenodd" clip-rule="evenodd" d="M9.00387 0.431955C9.16035 0.616246 9.28708 0.862387 9.36004 1.12494C9.4474 1.43672 9.45124 1.74345 9.37156 2.01105C9.30429 2.24101 9.18669 2.42417 9.04292 2.57143H10.6687C10.9306 2.57143 11.1429 2.79072 11.1429 3.06122V3.79592C11.1429 4.06643 10.9306 4.28571 10.6687 4.28571H0.474164C0.21229 4.28571 0 4.06643 0 3.79592V3.06122C0 2.79072 0.212291 2.57143 0.474164 2.57143H2.09919C1.9554 2.42417 1.83769 2.24101 1.77014 2.01105C1.69141 1.74345 1.69621 1.43672 1.78262 1.12494C1.85558 0.862387 1.98134 0.616245 2.13782 0.430693C2.44407 0.0696849 2.86264 -0.0653774 3.38297 0.0292924C4.21434 0.182026 5.02172 1.02522 5.54301 2.28622C5.54877 2.30011 5.55933 2.32661 5.57085 2.3607C5.57651 2.3458 5.58158 2.33194 5.58597 2.31995C5.59125 2.30553 5.59554 2.2938 5.59869 2.28622C6.11998 1.02522 6.92831 0.180764 7.75873 0.0292924C8.27906 -0.0653774 8.69763 0.0696849 9.00387 0.431955ZM3.22143 2.57143C2.86076 2.46123 2.30181 2.25072 2.17142 1.80656C2.10134 1.56799 2.17718 1.1464 2.42583 0.853551C2.58807 0.661687 2.79928 0.567017 3.06904 0.567017C3.14872 0.567017 3.2332 0.575853 3.32249 0.592263C4.14138 0.742472 4.81051 1.70558 5.16188 2.55635C5.16346 2.56022 5.16542 2.56529 5.16771 2.57143H3.22143ZM5.97229 2.57143C5.97411 2.56642 5.97567 2.56221 5.97694 2.55887C6.33118 1.70558 6.99935 0.742472 7.81825 0.592263C7.90753 0.575853 7.99201 0.567017 8.07169 0.567017C8.34146 0.567017 8.55266 0.661687 8.71491 0.853551C8.96355 1.1464 9.03939 1.56926 8.96931 1.80782C8.83943 2.25029 8.28422 2.46089 7.92343 2.57143H5.97229Z" fill="white"/>
<path d="M9.85714 5.14319H6V12.0003H9.85714C10.0938 12.0003 10.2857 11.7957 10.2857 11.5432V5.60033C10.2857 5.34786 10.0938 5.14319 9.85714 5.14319Z" fill="white"/>
<path d="M5.14289 5.14319H1.28575C1.04906 5.14319 0.857178 5.34786 0.857178 5.60033V11.5432C0.857178 11.7957 1.04906 12.0003 1.28575 12.0003H5.14289V5.14319Z" fill="white"/>
</svg>
