<svg width="70" height="38" viewBox="0 0 70 38" fill="none" xmlns="http://www.w3.org/2000/svg">
<rect x="0.5" y="0.5" width="69" height="37" rx="5.5" stroke="#868789"/>
<path d="M20.2682 16.1355V19.0166H24.1939C24.1147 19.4759 23.9452 19.9142 23.6955 20.3055C23.4458 20.6967 23.121 21.0327 22.7405 21.2935C22.0846 21.751 21.2472 22.0115 20.2655 22.0115C18.368 22.0115 16.7641 20.6908 16.1886 18.923C15.8875 17.993 15.8875 16.9894 16.1886 16.0594C16.7641 14.2811 18.368 12.9604 20.2655 12.9604C20.7798 12.9506 21.2909 13.0449 21.7691 13.2377C22.2472 13.4305 22.6828 13.718 23.0506 14.0835L25.1323 11.9448C23.8212 10.6793 22.0767 9.9819 20.2682 10.0004C18.9154 10.0056 17.5909 10.395 16.4444 11.1245C15.2978 11.854 14.3748 12.8946 13.7796 14.1289C13.2669 15.1719 13 16.3218 13 17.4877C13 18.6536 13.2669 19.8035 13.7796 20.8465V20.857C14.375 22.0905 15.2982 23.1302 16.4449 23.8584C17.5916 24.5866 18.916 24.9744 20.2682 24.9778C22.2256 24.9778 23.8811 24.3122 25.0807 23.1682C26.4557 21.8683 27.2402 19.9448 27.2402 17.6567C27.241 17.1472 27.2007 16.6384 27.1199 16.1355H20.2682ZM47.0402 15.8561C46.3437 15.201 45.395 14.8685 44.1946 14.8685C42.6505 14.8685 41.49 15.451 40.7227 16.6049L42.1562 17.531C42.681 16.7394 43.3974 16.3436 44.3053 16.3436C44.8834 16.3451 45.4405 16.5638 45.8694 16.9576C46.0784 17.1419 46.246 17.3697 46.3609 17.6255C46.4758 17.8813 46.5354 18.1592 46.5356 18.4404V18.8252C45.9099 18.4711 45.1227 18.2839 44.1541 18.2839C43.0238 18.2839 42.1156 18.5549 41.4391 19.106C40.7626 19.6571 40.4202 20.3848 40.4202 21.3103C40.4097 21.7239 40.4902 22.1346 40.6561 22.5125C40.8219 22.8904 41.0687 23.2259 41.3786 23.4943C42.0146 24.0768 42.8224 24.3681 43.7704 24.3681C44.8904 24.3681 45.7786 23.8582 46.4517 22.8392H46.5204V24.0768H48.0749V18.5801C48.0797 17.4241 47.7366 16.5085 47.0402 15.8561ZM45.7181 22.0932C45.4797 22.3397 45.1954 22.5355 44.8818 22.6693C44.5682 22.8031 44.2316 22.8723 43.8914 22.8727C43.4342 22.8805 42.9886 22.7261 42.6312 22.4362C42.4645 22.3092 42.3293 22.1444 42.2365 21.9548C42.1438 21.7652 42.096 21.5562 42.0971 21.3445C42.0971 20.8556 42.3184 20.4498 42.7529 20.1278C43.1874 19.8058 43.7519 19.6389 44.4077 19.6389C45.3125 19.6277 46.0206 19.8373 46.5252 20.2521C46.5252 20.9597 46.253 21.5729 45.7181 22.0932ZM39.2797 12.1753C38.9149 11.8048 38.4801 11.513 38.0015 11.3173C37.5229 11.1217 37.0104 11.0263 36.4946 11.0369H32.1861V24.0796H33.8106V18.7966H36.4919C37.5919 18.7966 38.52 18.4222 39.2769 17.684C39.3374 17.6218 39.3979 17.5589 39.4591 17.4968C40.1216 16.7623 40.4739 15.793 40.4404 14.7974C40.4068 13.8018 39.9901 12.8593 39.2797 12.1725V12.1753ZM38.1398 16.5217C37.935 16.7438 37.686 16.919 37.4093 17.0356C37.1326 17.1522 36.8346 17.2075 36.5352 17.1978H33.8106V12.6433H36.5352C37.1166 12.6411 37.6752 12.8729 38.0889 13.2879C38.5098 13.7138 38.7506 14.2896 38.7601 14.893C38.7696 15.4963 38.5471 16.0797 38.1398 16.519V16.5217ZM55.2338 15.1577L52.7217 21.5624H52.6907L50.1181 15.1577H48.3519L51.9125 23.5076L49.8947 28H51.5687L57 15.1577H55.2338Z" fill="black"/>
</svg>
