<svg width="20" height="23" viewBox="0 0 20 23" fill="none" xmlns="http://www.w3.org/2000/svg">
<path fill-rule="evenodd" clip-rule="evenodd" d="M16.2541 6.75114H15.4251C14.7533 6.75114 14.2027 7.30171 14.2027 7.97354V15.2165C14.2027 15.8884 14.7533 16.4389 15.4251 16.4389H16.5623C16.5337 16.5341 16.5012 16.6268 16.4632 16.719C16.4614 16.7235 16.4596 16.7281 16.458 16.7327C16.3958 16.9091 16.3125 17.0859 16.2197 17.2406L16.214 17.2505C15.8422 17.9304 15.2517 18.5034 14.5733 18.9411L14.5723 18.9417C13.8813 19.3914 13.0966 19.7243 12.2797 19.9819C11.8668 20.1046 11.4526 20.2054 11.0249 20.2954C10.8662 20.3288 10.7069 20.356 10.5437 20.3823C10.2792 19.8435 9.73104 19.4782 9.09594 19.4782C8.20705 19.4782 7.48514 20.2001 7.48514 21.089C7.48514 21.9779 8.20705 22.6998 9.09594 22.6998C9.79978 22.6998 10.3992 22.2459 10.6205 21.6163C10.8346 21.5842 11.0552 21.5504 11.2769 21.5061C11.7392 21.4137 12.1922 21.3092 12.6465 21.1811L12.6507 21.1798C13.5474 20.912 14.4417 20.5484 15.2697 20.0162C15.6856 19.7547 16.08 19.4444 16.4283 19.0843C16.7852 18.7272 17.0972 18.3319 17.3505 17.8866C17.4865 17.6633 17.5956 17.4199 17.6794 17.1929C17.7763 16.9501 17.8484 16.709 17.9077 16.4598L17.9085 16.4565C17.9355 16.3367 17.9591 16.2268 17.9789 16.1194C18.6743 15.712 19.138 14.9565 19.138 14.0969V9.09311C19.138 8.16392 18.6003 7.36752 17.824 6.98811C17.8186 6.07831 17.6163 5.17799 17.2284 4.33721C16.8352 3.48479 16.2587 2.71026 15.532 2.05784C14.8054 1.40543 13.9427 0.887901 12.9932 0.534816C12.0438 0.181731 11.0262 0 9.99851 0C8.97083 0 7.95322 0.181731 7.00377 0.534816C6.05433 0.887901 5.19164 1.40543 4.46496 2.05784C3.73829 2.71026 3.16186 3.48479 2.76858 4.33721C2.39454 5.14796 2.19314 6.01406 2.17434 6.89064C1.27632 7.2159 0.630554 8.07475 0.630554 9.09311V14.0969C0.630554 15.3846 1.67133 16.4389 2.97253 16.4389H4.34344C5.02196 16.4389 5.57902 15.8923 5.56582 15.2136V7.97354C5.56582 7.30172 5.01527 6.75114 4.34344 6.75114H3.74296C3.77808 6.10658 3.93657 5.47155 4.21222 4.87408C4.52696 4.19186 4.9883 3.57199 5.56987 3.04984C6.15145 2.5277 6.84188 2.11351 7.60175 1.83093C8.36161 1.54834 9.17603 1.4029 9.99851 1.4029C10.821 1.4029 11.6354 1.54834 12.3953 1.83093C13.1551 2.11351 13.8456 2.5277 14.4271 3.04984C15.0087 3.57199 15.47 4.19186 15.7848 4.87408C16.0604 5.47155 16.2189 6.10658 16.2541 6.75114Z" fill="white"/>
</svg>
