<svg width="70" height="38" viewBox="0 0 70 38" fill="none" xmlns="http://www.w3.org/2000/svg">
<rect x="0.5" y="0.5" width="69" height="37" rx="5.5" stroke="#868789"/>
<path d="M42.8379 30.7269C49.3899 30.7269 54.7014 25.4155 54.7014 18.8635C54.7014 12.3114 49.3899 7 42.8379 7C36.2859 7 30.9745 12.3114 30.9745 18.8635C30.9745 25.4155 36.2859 30.7269 42.8379 30.7269Z" fill="#FFC601"/>
<path d="M26.8635 30.7269C33.4155 30.7269 38.7269 25.4155 38.7269 18.8635C38.7269 12.3114 33.4155 7 26.8635 7C20.3114 7 15 12.3114 15 18.8635C15 25.4155 20.3114 30.7269 26.8635 30.7269Z" fill="#F43735"/>
<path d="M19.6187 17.1713C19.3998 18.4423 19.1811 19.7136 18.9597 21C18.6028 21 18.2523 21 17.8698 21C18.1713 19.2236 18.4711 17.4568 18.774 15.6731C19.3192 15.6731 19.8554 15.6731 20.4611 15.6731C20.4611 16.7079 20.4611 17.7449 20.4611 18.7822C20.4922 18.7846 20.5236 18.7871 20.5547 18.7896C20.7546 18.2065 20.9547 17.6233 21.1546 17.0404C21.2923 16.6385 21.4241 16.2347 21.5724 15.8369C21.5995 15.7637 21.6899 15.6642 21.7533 15.6628C22.2924 15.6489 22.8317 15.6546 23.4235 15.6546C23.1242 17.4474 22.8293 19.2137 22.5315 20.9976C22.1492 20.9976 21.7732 20.9976 21.3722 20.9976C21.572 19.7461 21.7701 18.5019 21.9684 17.2578C21.9518 17.2534 21.935 17.2491 21.9186 17.2448C21.8774 17.3481 21.8337 17.4503 21.7957 17.5549C21.4062 18.6276 21.0112 19.6984 20.635 20.776C20.5661 20.9736 20.4738 21.0404 20.2758 21.02C20.1196 21.0041 19.9603 21.0169 19.7658 21.0169C19.731 19.7256 19.6965 18.4539 19.662 17.1823C19.6474 17.1787 19.6329 17.1749 19.6187 17.1713Z" fill="white"/>
<path d="M50.1937 17.1252C50.277 16.6269 50.3557 16.1566 50.4379 15.6649C50.8058 15.6649 51.1729 15.6649 51.5693 15.6649C51.4843 16.1915 51.3996 16.7196 51.3134 17.2473C51.1209 18.4271 50.9224 19.6059 50.7397 20.7868C50.7124 20.9634 50.6441 21.0049 50.484 20.9992C50.202 20.9894 49.9194 20.9966 49.6189 20.9966C49.6189 20.8738 49.6189 20.7731 49.6189 20.6696C49.4278 20.7752 49.261 20.8939 49.0755 20.9652C48.335 21.2491 47.6014 20.9063 47.3361 20.1193C46.9739 19.0437 47.1826 18.0437 47.8972 17.1786C48.5463 16.3928 49.3395 16.3842 50.1937 17.1252ZM49.9071 18.5521C49.8837 18.3958 49.8764 18.2348 49.834 18.084C49.7115 17.6464 49.2617 17.4808 48.8972 17.7517C48.7546 17.8577 48.6308 18.0137 48.5494 18.173C48.3598 18.5438 48.319 18.947 48.3775 19.3592C48.4156 19.6272 48.5126 19.8589 48.7972 19.9457C49.0746 20.0304 49.3655 19.9159 49.5622 19.6501C49.8027 19.3254 49.8929 18.9528 49.9071 18.5521Z" fill="white"/>
<path d="M25.4398 18.2566C25.5792 17.8342 25.4499 17.6058 25.027 17.606C24.5462 17.6061 24.0656 17.6646 23.5704 17.699C23.5909 17.5758 23.6174 17.4133 23.6448 17.2507C23.7276 16.7608 23.7236 16.7308 24.213 16.6638C24.6551 16.6031 25.114 16.5616 25.5539 16.6123C26.2693 16.6947 26.6863 17.2818 26.5953 17.9968C26.4721 18.9622 26.3343 19.9261 26.1942 20.8894C26.1844 20.9569 26.1078 21.0646 26.0573 21.0678C25.7772 21.0854 25.4956 21.0763 25.2009 21.0763C25.2009 20.9423 25.2009 20.8399 25.2009 20.7682C24.9233 20.8927 24.658 21.0603 24.369 21.131C23.644 21.3084 23.0848 20.8896 23.0048 20.1515C22.8874 19.0675 23.5502 18.3374 24.7317 18.259C24.9683 18.2431 25.2068 18.2566 25.4398 18.2566ZM25.317 19.1741C24.9099 19.1033 24.5657 19.1546 24.3418 19.3082C24.0732 19.4925 23.9891 19.8923 24.1702 20.1238C24.3441 20.3463 24.7302 20.3384 24.9708 20.0967C25.2202 19.8461 25.3137 19.5329 25.317 19.1741Z" fill="white"/>
<path d="M43.9341 18.2539C44.0373 17.7825 43.9304 17.6032 43.4881 17.5999C43.0234 17.5963 42.558 17.6585 42.0621 17.6939C42.0998 17.4535 42.139 17.1624 42.1968 16.8747C42.2067 16.825 42.29 16.7723 42.3498 16.7528C42.9042 16.5731 43.4682 16.4846 44.0501 16.598C44.7548 16.7356 45.172 17.2975 45.0771 18.0094C44.9428 19.0182 44.7949 20.0252 44.6497 21.0537C44.3329 21.0537 44.0192 21.0537 43.6921 21.0537C43.6921 20.9421 43.6921 20.831 43.6921 20.6909C43.5939 20.7669 43.5139 20.8324 43.4303 20.8929C42.9938 21.2095 42.3781 21.2619 41.9781 21.0035C41.4903 20.688 41.4343 20.1951 41.4964 19.6855C41.6007 18.8325 42.2376 18.3106 43.2072 18.2559C43.4451 18.2425 43.6842 18.2539 43.9341 18.2539ZM43.8095 19.1596C43.452 19.1126 43.1305 19.1148 42.8388 19.2997C42.6241 19.4359 42.5226 19.6497 42.5822 19.8892C42.6156 20.0232 42.7252 20.1874 42.8439 20.2406C43.0669 20.3405 43.2934 20.2634 43.4677 20.0805C43.7055 19.8309 43.7864 19.5222 43.8095 19.1596Z" fill="white"/>
<path d="M32.9069 19.2728C32.8426 19.7037 33.0219 19.9917 33.4288 20.1075C33.872 20.2333 34.3067 20.1564 34.7363 20.0295C34.8459 19.997 34.9543 19.9607 35.108 19.9119C35.0433 20.2688 34.9893 20.5973 34.9185 20.922C34.9077 20.9707 34.8219 21.0224 34.7618 21.0381C34.188 21.1878 33.6079 21.2317 33.028 21.0823C32.3289 20.9021 31.9172 20.4389 31.7971 19.7363C31.6373 18.7999 31.8182 17.9345 32.4375 17.1942C32.8317 16.7229 33.3459 16.4905 33.9675 16.5656C34.9473 16.6842 35.4793 17.4395 35.3438 18.4989C35.2476 19.2523 35.2476 19.2522 34.4887 19.2527C33.9834 19.2529 33.4781 19.2538 32.9731 19.2552C32.9564 19.2552 32.9396 19.2637 32.9069 19.2728ZM32.9979 18.3474C33.3842 18.3474 33.7528 18.3512 34.121 18.3425C34.1732 18.3414 34.2554 18.2883 34.2702 18.2421C34.3719 17.9258 34.108 17.5632 33.7752 17.5468C33.3558 17.526 33.0573 17.8191 32.9979 18.3474Z" fill="white"/>
<path d="M41.7861 15.83C41.7273 16.2166 41.6702 16.5914 41.6111 16.9816C41.3704 16.9 41.145 16.8032 40.91 16.7476C40.3292 16.6103 39.8292 16.8003 39.4998 17.2962C39.0974 17.902 38.9881 18.5772 39.1508 19.2796C39.2917 19.8885 39.833 20.204 40.4522 20.0681C40.6821 20.0178 40.9048 19.9324 41.1521 19.8564C41.0928 20.2313 41.0397 20.5972 40.972 20.9607C40.9622 21.0126 40.8851 21.0846 40.8327 21.0906C40.4392 21.1359 40.0374 21.2302 39.6507 21.1897C38.7701 21.098 38.2249 20.5808 38.021 19.7148C37.8092 18.8154 37.8921 17.9323 38.273 17.0929C38.9134 15.6806 40.2897 15.1854 41.7861 15.83Z" fill="white"/>
<path d="M29.5902 16.6495C29.5418 16.991 29.4995 17.2886 29.4531 17.6166C29.2149 17.606 28.988 17.594 28.7612 17.5859C28.3411 17.5711 28.1219 17.6545 28.0872 17.8674C28.0305 18.2165 28.3235 18.2947 28.5496 18.3897C29.1663 18.6493 29.5551 19.0816 29.3492 20.0807C29.2503 20.5612 28.9326 20.8594 28.4696 20.979C27.8134 21.1482 27.1559 21.0815 26.4711 20.9486C26.5202 20.6167 26.5659 20.3064 26.6094 20.0111C27.0042 20.0478 27.378 20.0893 27.7528 20.1126C27.8633 20.1195 27.9852 20.0935 28.0872 20.0491C28.3332 19.942 28.3794 19.6588 28.1703 19.4899C28.0209 19.3693 27.8414 19.2846 27.6706 19.1921C27.0477 18.8542 26.8104 18.3903 26.9271 17.7282C27.0414 17.0786 27.4371 16.7075 28.1223 16.5959C28.6083 16.5168 29.0863 16.5576 29.5902 16.6495Z" fill="white"/>
<path d="M30.2512 16.0233C30.647 16.0233 30.9985 16.0233 31.3709 16.0233C31.3405 16.2364 31.3126 16.4336 31.2819 16.6494C31.4652 16.6583 31.6295 16.6661 31.8244 16.6756C31.7796 17.0222 31.7371 17.3518 31.6914 17.7054C31.4987 17.7054 31.3171 17.7054 31.1023 17.7054C31.0315 18.1215 30.9633 18.5183 30.8966 18.9154C30.8614 19.1247 30.83 19.3346 30.7953 19.544C30.7317 19.9278 30.8585 20.0696 31.2513 20.0499C31.3122 20.047 31.3729 20.04 31.4679 20.0318C31.428 20.3228 31.3947 20.5995 31.3478 20.8738C31.3395 20.9218 31.2777 20.9926 31.234 20.9977C30.9033 21.0371 30.566 21.1129 30.2409 21.0795C29.8461 21.0392 29.6036 20.7176 29.6207 20.2787C29.64 19.7857 29.708 19.2929 29.784 18.8043C29.9281 17.879 30.093 16.9572 30.2512 16.0233Z" fill="white"/>
<path d="M46.114 21.0486C45.7089 21.0486 45.3306 21.0486 44.9396 21.0486C45.1787 19.5847 45.4154 18.1363 45.6544 16.6735C46.0103 16.6735 46.3508 16.6735 46.7148 16.6735C46.6915 16.8463 46.6695 17.0101 46.6403 17.2292C46.9462 16.8902 47.2037 16.5339 47.7013 16.6137C47.5644 17.0446 47.4296 17.4692 47.2933 17.8979C46.9142 17.9104 46.7513 17.9971 46.6417 18.4065C46.4844 18.9945 46.3811 19.5972 46.2612 20.1949C46.2041 20.4792 46.1622 20.7665 46.114 21.0486Z" fill="white"/>
<path d="M36.487 21.0541C36.083 21.0541 35.7122 21.0541 35.3143 21.0541C35.4046 20.4871 35.4913 19.9319 35.5818 19.3775C35.7187 18.5386 35.8623 17.7012 35.9925 16.8614C36.0159 16.7091 36.0629 16.6465 36.2238 16.6532C36.5052 16.6649 36.7873 16.6564 37.0894 16.6564C37.0632 16.85 37.0408 17.0147 37.0112 17.232C37.3182 16.8894 37.5774 16.5331 38.0753 16.614C37.9373 17.0469 37.8017 17.4723 37.6655 17.9002C37.2968 17.9062 37.1268 17.9932 37.0208 18.3871C36.8604 18.9834 36.755 19.5947 36.6329 20.201C36.5771 20.4775 36.5373 20.7571 36.487 21.0541Z" fill="white"/>
<path d="M16.1989 22.413H16.3962C16.3527 22.2893 16.3005 22.1703 16.2612 22.0448L16.1989 22.413Z" fill="white"/>
</svg>
