<svg width="251" height="359" viewBox="0 0 251 359" fill="none" xmlns="http://www.w3.org/2000/svg">
<rect x="1" y="1" width="249" height="43" rx="8" stroke="white" stroke-width="2"/>
<rect x="27" y="26" width="197" height="7" rx="3.5" fill="#15EE6C"/>
<rect x="36" y="85.0869" width="82.3123" height="53.2609" rx="14" fill="#B7850F"/>
<path fill-rule="evenodd" clip-rule="evenodd" d="M44.4634 137.211C51.5781 130.876 56.0593 121.647 56.0593 111.372C56.0593 101.352 51.7981 92.327 44.9891 86.0107C39.7321 88.0265 36 93.121 36 99.0873V124.348C36 130.114 39.485 135.065 44.4634 137.211Z" fill="#FFDA58"/>
<rect width="82.3123" height="53.2609" rx="14" transform="matrix(-1 0 0 1 215.842 85.0869)" fill="#B7850F"/>
<path fill-rule="evenodd" clip-rule="evenodd" d="M207.378 137.211C200.264 130.876 195.783 121.647 195.783 111.372C195.783 101.352 200.044 92.327 206.853 86.0107C212.11 88.0265 215.842 93.121 215.842 99.0873V124.348C215.842 130.114 212.357 135.065 207.378 137.211Z" fill="#FFDA58"/>
<mask id="path-7-inside-1_219_4" fill="white">
<path fill-rule="evenodd" clip-rule="evenodd" d="M37.3828 40C37.3828 22.8792 51.262 9 68.3828 9H182.766C199.887 9 213.766 22.8792 213.766 40V78.4568C201.137 84.0385 192.324 96.6758 192.324 111.372C192.324 126.067 201.137 138.705 213.766 144.286V328C213.766 345.121 199.887 359 182.766 359H68.3828C51.262 359 37.3828 345.121 37.3828 328V144.286C50.0122 138.705 58.8255 126.067 58.8255 111.372C58.8255 96.6758 50.0122 84.0385 37.3828 78.4568V40Z"/>
</mask>
<path fill-rule="evenodd" clip-rule="evenodd" d="M37.3828 40C37.3828 22.8792 51.262 9 68.3828 9H182.766C199.887 9 213.766 22.8792 213.766 40V78.4568C201.137 84.0385 192.324 96.6758 192.324 111.372C192.324 126.067 201.137 138.705 213.766 144.286V328C213.766 345.121 199.887 359 182.766 359H68.3828C51.262 359 37.3828 345.121 37.3828 328V144.286C50.0122 138.705 58.8255 126.067 58.8255 111.372C58.8255 96.6758 50.0122 84.0385 37.3828 78.4568V40Z" fill="#4FC3FF"/>
<path d="M213.766 78.4568L214.17 79.3715L214.766 79.1082V78.4568H213.766ZM213.766 144.286H214.766V143.635L214.17 143.372L213.766 144.286ZM37.3828 144.286L36.9786 143.372L36.3828 143.635V144.286H37.3828ZM37.3828 78.4568H36.3828V79.1082L36.9786 79.3715L37.3828 78.4568ZM68.3828 8C50.7097 8 36.3828 22.3269 36.3828 40H38.3828C38.3828 23.4315 51.8143 10 68.3828 10V8ZM182.766 8H68.3828V10H182.766V8ZM214.766 40C214.766 22.3269 200.439 8 182.766 8V10C199.335 10 212.766 23.4315 212.766 40H214.766ZM214.766 78.4568V40H212.766V78.4568H214.766ZM193.324 111.372C193.324 97.0859 201.89 84.7989 214.17 79.3715L213.362 77.5422C200.384 83.2781 191.324 96.2657 191.324 111.372H193.324ZM214.17 143.372C201.89 137.944 193.324 125.657 193.324 111.372H191.324C191.324 126.477 200.384 139.465 213.362 145.201L214.17 143.372ZM214.766 328V144.286H212.766V328H214.766ZM182.766 360C200.439 360 214.766 345.673 214.766 328H212.766C212.766 344.569 199.335 358 182.766 358V360ZM68.3828 360H182.766V358H68.3828V360ZM36.3828 328C36.3828 345.673 50.7097 360 68.3828 360V358C51.8143 358 38.3828 344.569 38.3828 328H36.3828ZM36.3828 144.286V328H38.3828V144.286H36.3828ZM57.8255 111.372C57.8255 125.657 49.259 137.944 36.9786 143.372L37.7871 145.201C50.7655 139.465 59.8255 126.477 59.8255 111.372H57.8255ZM36.9786 79.3715C49.259 84.7989 57.8255 97.0859 57.8255 111.372H59.8255C59.8255 96.2657 50.7655 83.2781 37.7871 77.5422L36.9786 79.3715ZM36.3828 40V78.4568H38.3828V40H36.3828Z" fill="white" mask="url(#path-7-inside-1_219_4)"/>
<path d="M197.5 39L200 44H195L197.5 39Z" fill="white"/>
<path d="M55 39L57 44H53L55 39Z" fill="white"/>
<path d="M62 43.8429V39.0653H63.7099C64.0506 39.0653 64.3316 39.1229 64.5529 39.2379C64.7742 39.3515 64.939 39.5047 65.0473 39.6975C65.1555 39.8888 65.2097 40.1011 65.2097 40.3344C65.2097 40.5397 65.1722 40.7092 65.0974 40.8429C65.0242 40.9767 64.9271 41.0824 64.8061 41.1602C64.6867 41.2379 64.5569 41.2955 64.4168 41.3328V41.3795C64.5665 41.3888 64.7169 41.4401 64.8682 41.5334C65.0194 41.6267 65.146 41.7605 65.2479 41.9347C65.3498 42.1089 65.4007 42.3219 65.4007 42.5739C65.4007 42.8134 65.345 43.0288 65.2335 43.2201C65.1221 43.4114 64.9462 43.563 64.7058 43.675C64.4654 43.7869 64.1525 43.8429 63.7672 43.8429H62ZM62.5923 43.3297H63.7672C64.1541 43.3297 64.4287 43.2566 64.5911 43.1104C64.7551 42.9627 64.8371 42.7838 64.8371 42.5739C64.8371 42.4121 64.7949 42.2628 64.7105 42.126C64.6262 41.9876 64.506 41.8771 64.3499 41.7947C64.1939 41.7107 64.0092 41.6687 63.7959 41.6687H62.5923V43.3297ZM62.5923 41.1649H63.6908C63.8691 41.1649 64.0299 41.1306 64.1732 41.0622C64.3181 40.9938 64.4327 40.8974 64.5171 40.7729C64.6031 40.6485 64.6461 40.5023 64.6461 40.3344C64.6461 40.1244 64.5712 39.9463 64.4216 39.8002C64.2719 39.6524 64.0347 39.5785 63.7099 39.5785H62.5923V41.1649Z" fill="white"/>
<path d="M66.3739 43.8429V39.0653H69.3256V39.5785H66.9661V41.1928H69.1728V41.7061H66.9661V43.3297H69.3638V43.8429H66.3739Z" fill="white"/>
<path d="M70.3931 43.8429V39.0653H72.0457C72.4294 39.0653 72.743 39.133 72.9866 39.2683C73.2318 39.402 73.4133 39.5832 73.5311 39.8118C73.6489 40.0404 73.7078 40.2955 73.7078 40.577C73.7078 40.8585 73.6489 41.1143 73.5311 41.3445C73.4149 41.5746 73.235 41.7582 72.9914 41.895C72.7478 42.0303 72.4358 42.098 72.0553 42.098H70.8707V41.5848H72.0361C72.2988 41.5848 72.5098 41.5404 72.669 41.4518C72.8282 41.3631 72.9436 41.2434 73.0153 41.0925C73.0885 40.9401 73.1251 40.7683 73.1251 40.577C73.1251 40.3857 73.0885 40.2146 73.0153 40.0638C72.9436 39.9129 72.8274 39.7947 72.6666 39.7092C72.5058 39.6221 72.2925 39.5785 72.0266 39.5785H70.9854V43.8429H70.3931Z" fill="white"/>
<path d="M74.6619 43.8429V39.0653H75.2542V41.1928H77.862V39.0653H78.4543V43.8429H77.862V41.7061H75.2542V43.8429H74.6619Z" fill="white"/>
<path d="M79.8979 43.9082V43.367H80.2036C80.3214 43.367 80.4201 43.3445 80.4997 43.2994C80.5809 43.2543 80.6478 43.196 80.7003 43.1244C80.7544 43.0529 80.799 42.9782 80.834 42.9005L80.9105 42.7232L79.2197 39.0653H79.8597L81.2066 42.0327L82.4389 39.0653H83.0693L81.3785 43.0684C81.3117 43.2177 81.2353 43.3561 81.1493 43.4837C81.0649 43.6112 80.9495 43.7138 80.803 43.7916C80.6581 43.8694 80.4615 43.9082 80.2131 43.9082H79.8979Z" fill="white"/>
<path d="M83.8777 39.5785V39.0653H87.5459V39.5785H86.0079V43.8429H85.4157V39.5785H83.8777Z" fill="white"/>
<path d="M88.8994 41.0715H90.2941C90.6443 41.0715 90.9397 41.1275 91.1801 41.2395C91.4221 41.3515 91.6051 41.5093 91.7293 41.7131C91.8551 41.9168 91.918 42.1571 91.918 42.4339C91.918 42.7107 91.8551 42.9549 91.7293 43.1664C91.6051 43.3779 91.4221 43.5435 91.1801 43.6633C90.9397 43.783 90.6443 43.8429 90.2941 43.8429H88.46V39.0653H89.0522V43.339H90.2941C90.517 43.339 90.7056 43.2955 90.86 43.2084C91.0161 43.1198 91.1339 43.0062 91.2135 42.8678C91.2947 42.7278 91.3353 42.5801 91.3353 42.4246C91.3353 42.196 91.2453 41.9992 91.0654 41.8344C90.8855 41.668 90.6284 41.5848 90.2941 41.5848H88.8994V41.0715Z" fill="white"/>
<path d="M96.3116 43.9082C95.9963 43.9082 95.7153 43.8554 95.4686 43.7496C95.2234 43.6439 95.0283 43.4969 94.8835 43.3087C94.7402 43.119 94.6622 42.8989 94.6494 42.6485H95.2512C95.264 42.8025 95.3181 42.9355 95.4136 43.0474C95.5092 43.1579 95.6341 43.2434 95.7886 43.304C95.943 43.3647 96.1142 43.395 96.302 43.395C96.5122 43.395 96.6984 43.3593 96.8608 43.2877C97.0232 43.2162 97.1506 43.1166 97.2429 42.9891C97.3353 42.8616 97.3815 42.7138 97.3815 42.5459C97.3815 42.3701 97.3369 42.2154 97.2477 42.0816C97.1586 41.9463 97.028 41.8406 96.8561 41.7644C96.6841 41.6882 96.474 41.6501 96.2256 41.6501H95.8339V41.1369H96.2256C96.4198 41.1369 96.5902 41.1026 96.7367 41.0342C96.8847 40.9658 97.0001 40.8694 97.0829 40.7449C97.1673 40.6205 97.2095 40.4743 97.2095 40.3064C97.2095 40.1446 97.1729 40.0039 97.0997 39.8841C97.0264 39.7644 96.9229 39.6711 96.7892 39.6042C96.6571 39.5373 96.501 39.5039 96.3211 39.5039C96.1524 39.5039 95.9932 39.5342 95.8435 39.5949C95.6954 39.654 95.5744 39.7403 95.4805 39.8538C95.3866 39.9658 95.3356 40.1011 95.3277 40.2597H94.7545C94.7641 40.0093 94.8413 39.79 94.9862 39.6019C95.131 39.4121 95.3205 39.2644 95.5545 39.1586C95.7902 39.0529 96.0489 39 96.3307 39C96.6332 39 96.8927 39.0599 97.1092 39.1796C97.3257 39.2978 97.4921 39.4541 97.6083 39.6485C97.7245 39.8429 97.7827 40.0529 97.7827 40.2784C97.7827 40.5474 97.7102 40.7768 97.5653 40.9666C97.4221 41.1563 97.227 41.2877 96.9802 41.3608V41.3981C97.2891 41.4479 97.5303 41.5762 97.7039 41.783C97.8774 41.9883 97.9642 42.2426 97.9642 42.5459C97.9642 42.8056 97.8917 43.0389 97.7468 43.2457C97.6036 43.451 97.4077 43.6128 97.1594 43.7309C96.911 43.8491 96.6284 43.9082 96.3116 43.9082Z" fill="white"/>
<path d="M99.2275 43.8429H98.6066L100.402 39.0653H101.014L102.81 43.8429H102.189L100.727 39.8212H100.689L99.2275 43.8429ZM99.4567 41.9767H101.96V42.4899H99.4567V41.9767Z" fill="white"/>
<path d="M103.572 43.8429V39.0653H105.224C105.608 39.0653 105.921 39.133 106.165 39.2683C106.41 39.402 106.592 39.5832 106.71 39.8118C106.827 40.0404 106.886 40.2955 106.886 40.577C106.886 40.8585 106.827 41.1143 106.71 41.3445C106.593 41.5746 106.413 41.7582 106.17 41.895C105.926 42.0303 105.614 42.098 105.234 42.098H104.049V41.5848H105.215C105.477 41.5848 105.688 41.5404 105.847 41.4518C106.007 41.3631 106.122 41.2434 106.194 41.0925C106.267 40.9401 106.304 40.7683 106.304 40.577C106.304 40.3857 106.267 40.2146 106.194 40.0638C106.122 39.9129 106.006 39.7947 105.845 39.7092C105.684 39.6221 105.471 39.5785 105.205 39.5785H104.164V43.8429H103.572Z" fill="white"/>
<path d="M111.165 43.8429H110.572V39.5785H109.531C109.267 39.5785 109.054 39.6182 108.893 39.6975C108.733 39.7753 108.616 39.8857 108.542 40.0288C108.469 40.1719 108.433 40.339 108.433 40.5303C108.433 40.7216 108.468 40.8865 108.54 41.0249C108.613 41.1617 108.729 41.2675 108.889 41.3421C109.049 41.4168 109.26 41.4541 109.522 41.4541H110.84V41.9767H109.502C109.124 41.9767 108.812 41.9152 108.569 41.7924C108.325 41.668 108.144 41.4969 108.027 41.2792C107.909 41.0614 107.85 40.8118 107.85 40.5303C107.85 40.2488 107.909 39.9977 108.027 39.7768C108.144 39.556 108.326 39.3826 108.571 39.2566C108.816 39.1291 109.13 39.0653 109.512 39.0653H111.165V43.8429ZM108.862 41.6967H109.531L108.347 43.8429H107.659L108.862 41.6967Z" fill="white"/>
<path d="M111.932 45V43.3297H112.247C112.355 43.2333 112.457 43.0972 112.553 42.9215C112.65 42.7442 112.732 42.5078 112.799 42.2123C112.867 41.9152 112.913 41.5381 112.935 41.0809L113.04 39.0653H115.944V43.3297H116.507V44.9907H115.944V43.8429H112.495V45H111.932ZM112.954 43.3297H115.38V39.5785H113.575L113.498 41.0809C113.479 41.4292 113.446 41.7449 113.398 42.028C113.35 42.3095 113.289 42.5591 113.214 42.7768C113.139 42.993 113.053 43.1773 112.954 43.3297Z" fill="white"/>
<path d="M119.294 43.8429V39.0653H121.004C121.344 39.0653 121.625 39.1229 121.847 39.2379C122.068 39.3515 122.233 39.5047 122.341 39.6975C122.449 39.8888 122.503 40.1011 122.503 40.3344C122.503 40.5397 122.466 40.7092 122.391 40.8429C122.318 40.9767 122.221 41.0824 122.1 41.1602C121.98 41.2379 121.851 41.2955 121.711 41.3328V41.3795C121.86 41.3888 122.011 41.4401 122.162 41.5334C122.313 41.6267 122.44 41.7605 122.542 41.9347C122.644 42.1089 122.695 42.3219 122.695 42.5739C122.695 42.8134 122.639 43.0288 122.527 43.2201C122.416 43.4114 122.24 43.563 122 43.675C121.759 43.7869 121.446 43.8429 121.061 43.8429H119.294ZM119.886 43.3297H121.061C121.448 43.3297 121.723 43.2566 121.885 43.1104C122.049 42.9627 122.131 42.7838 122.131 42.5739C122.131 42.4121 122.089 42.2628 122.004 42.126C121.92 41.9876 121.8 41.8771 121.644 41.7947C121.488 41.7107 121.303 41.6687 121.09 41.6687H119.886V43.3297ZM119.886 41.1649H120.985C121.163 41.1649 121.324 41.1306 121.467 41.0622C121.612 40.9938 121.727 40.8974 121.811 40.7729C121.897 40.6485 121.94 40.5023 121.94 40.3344C121.94 40.1244 121.865 39.9463 121.715 39.8002C121.566 39.6524 121.329 39.5785 121.004 39.5785H119.886V41.1649Z" fill="white"/>
<path d="M125.139 43.8429V43.311H125.282C125.486 43.311 125.644 43.2473 125.757 43.1198C125.87 42.9922 125.952 42.7862 126.001 42.5016C126.052 42.217 126.086 41.8398 126.104 41.3701L126.19 39.0653H129.17V43.8429H128.578V39.5785H126.753L126.677 41.4821C126.658 41.9829 126.611 42.409 126.536 42.7605C126.461 43.112 126.33 43.3802 126.142 43.5653C125.954 43.7504 125.68 43.8429 125.32 43.8429H125.139Z" fill="white"/>
<path d="M130.946 39.0653V43.8429H130.353V39.0653H130.946ZM132.013 41.2395V41.7527H130.516V41.2395H132.013ZM136.161 41.4541C136.161 41.958 136.068 42.3935 135.882 42.7605C135.696 43.1275 135.44 43.4106 135.115 43.6096C134.79 43.8087 134.419 43.9082 134.002 43.9082C133.585 43.9082 133.214 43.8087 132.889 43.6096C132.565 43.4106 132.309 43.1275 132.123 42.7605C131.937 42.3935 131.843 41.958 131.843 41.4541C131.843 40.9502 131.937 40.5148 132.123 40.1477C132.309 39.7807 132.565 39.4977 132.889 39.2986C133.214 39.0995 133.585 39 134.002 39C134.419 39 134.79 39.0995 135.115 39.2986C135.44 39.4977 135.696 39.7807 135.882 40.1477C136.068 40.5148 136.161 40.9502 136.161 41.4541ZM135.588 41.4541C135.588 41.0404 135.517 40.6913 135.376 40.4067C135.235 40.1221 135.045 39.9067 134.805 39.7605C134.566 39.6143 134.298 39.5412 134.002 39.5412C133.706 39.5412 133.438 39.6143 133.198 39.7605C132.959 39.9067 132.768 40.1221 132.627 40.4067C132.487 40.6913 132.417 41.0404 132.417 41.4541C132.417 41.8678 132.487 42.217 132.627 42.5016C132.768 42.7862 132.959 43.0016 133.198 43.1477C133.438 43.2939 133.706 43.367 134.002 43.367C134.298 43.367 134.566 43.2939 134.805 43.1477C135.045 43.0016 135.235 42.7862 135.376 42.5016C135.517 42.217 135.588 41.8678 135.588 41.4541Z" fill="white"/>
<path d="M137.157 43.8429V39.0653H140.109V39.5785H137.749V41.0715H138.991C139.341 41.0715 139.637 41.1275 139.877 41.2395C140.119 41.3515 140.302 41.5093 140.426 41.7131C140.552 41.9168 140.615 42.1571 140.615 42.4339C140.615 42.7107 140.552 42.9549 140.426 43.1664C140.302 43.3779 140.119 43.5435 139.877 43.6633C139.637 43.783 139.341 43.8429 138.991 43.8429H137.157ZM137.749 43.339H138.991C139.214 43.339 139.403 43.2955 139.557 43.2084C139.713 43.1198 139.831 43.0062 139.911 42.8678C139.992 42.7278 140.032 42.5801 140.032 42.4246C140.032 42.196 139.942 41.9992 139.763 41.8344C139.583 41.668 139.326 41.5848 138.991 41.5848H137.749V43.339Z" fill="white"/>
<path d="M145.717 41.4541C145.717 41.958 145.624 42.3935 145.437 42.7605C145.251 43.1275 144.996 43.4106 144.671 43.6096C144.346 43.8087 143.975 43.9082 143.558 43.9082C143.141 43.9082 142.77 43.8087 142.445 43.6096C142.12 43.4106 141.865 43.1275 141.678 42.7605C141.492 42.3935 141.399 41.958 141.399 41.4541C141.399 40.9502 141.492 40.5148 141.678 40.1477C141.865 39.7807 142.12 39.4977 142.445 39.2986C142.77 39.0995 143.141 39 143.558 39C143.975 39 144.346 39.0995 144.671 39.2986C144.996 39.4977 145.251 39.7807 145.437 40.1477C145.624 40.5148 145.717 40.9502 145.717 41.4541ZM145.144 41.4541C145.144 41.0404 145.073 40.6913 144.931 40.4067C144.791 40.1221 144.601 39.9067 144.36 39.7605C144.121 39.6143 143.854 39.5412 143.558 39.5412C143.262 39.5412 142.993 39.6143 142.753 39.7605C142.514 39.9067 142.324 40.1221 142.182 40.4067C142.042 40.6913 141.972 41.0404 141.972 41.4541C141.972 41.8678 142.042 42.217 142.182 42.5016C142.324 42.7862 142.514 43.0016 142.753 43.1477C142.993 43.2939 143.262 43.367 143.558 43.367C143.854 43.367 144.121 43.2939 144.36 43.1477C144.601 43.0016 144.791 42.7862 144.931 42.5016C145.073 42.217 145.144 41.8678 145.144 41.4541Z" fill="white"/>
<path d="M146.713 39.0653H147.42L149.082 43.0311H149.139L150.801 39.0653H151.508V43.8429H150.954V40.2131H150.906L149.378 43.8429H148.843L147.314 40.2131H147.267V43.8429H146.713V39.0653Z" fill="white"/>
<path d="M154.788 43.8429H154.167L155.962 39.0653H156.574L158.37 43.8429H157.749L156.287 39.8212H156.249L154.788 43.8429ZM155.017 41.9767H157.52V42.4899H155.017V41.9767Z" fill="white"/>
<path d="M159.132 43.8429V39.0653H160.841C161.182 39.0653 161.463 39.1229 161.684 39.2379C161.906 39.3515 162.071 39.5047 162.179 39.6975C162.287 39.8888 162.341 40.1011 162.341 40.3344C162.341 40.5397 162.304 40.7092 162.229 40.8429C162.156 40.9767 162.059 41.0824 161.938 41.1602C161.818 41.2379 161.688 41.2955 161.548 41.3328V41.3795C161.698 41.3888 161.848 41.4401 162 41.5334C162.151 41.6267 162.278 41.7605 162.379 41.9347C162.481 42.1089 162.532 42.3219 162.532 42.5739C162.532 42.8134 162.477 43.0288 162.365 43.2201C162.254 43.4114 162.078 43.563 161.837 43.675C161.597 43.7869 161.284 43.8429 160.899 43.8429H159.132ZM159.724 43.3297H160.899C161.286 43.3297 161.56 43.2566 161.723 43.1104C161.887 42.9627 161.969 42.7838 161.969 42.5739C161.969 42.4121 161.926 42.2628 161.842 42.126C161.758 41.9876 161.637 41.8771 161.481 41.7947C161.325 41.7107 161.141 41.6687 160.927 41.6687H159.724V43.3297ZM159.724 41.1649H160.822C161.001 41.1649 161.161 41.1306 161.305 41.0622C161.45 40.9938 161.564 40.8974 161.649 40.7729C161.735 40.6485 161.778 40.5023 161.778 40.3344C161.778 40.1244 161.703 39.9463 161.553 39.8002C161.403 39.6524 161.166 39.5785 160.841 39.5785H159.724V41.1649Z" fill="white"/>
<path d="M163.238 39.5785V39.0653H166.906V39.5785H165.368V43.8429H164.776V39.5785H163.238Z" fill="white"/>
<path d="M171.743 41.4541C171.743 41.958 171.65 42.3935 171.464 42.7605C171.278 43.1275 171.022 43.4106 170.697 43.6096C170.372 43.8087 170.002 43.9082 169.584 43.9082C169.167 43.9082 168.796 43.8087 168.472 43.6096C168.147 43.4106 167.891 43.1275 167.705 42.7605C167.519 42.3935 167.426 41.958 167.426 41.4541C167.426 40.9502 167.519 40.5148 167.705 40.1477C167.891 39.7807 168.147 39.4977 168.472 39.2986C168.796 39.0995 169.167 39 169.584 39C170.002 39 170.372 39.0995 170.697 39.2986C171.022 39.4977 171.278 39.7807 171.464 40.1477C171.65 40.5148 171.743 40.9502 171.743 41.4541ZM171.17 41.4541C171.17 41.0404 171.099 40.6913 170.958 40.4067C170.817 40.1221 170.627 39.9067 170.387 39.7605C170.148 39.6143 169.881 39.5412 169.584 39.5412C169.288 39.5412 169.02 39.6143 168.78 39.7605C168.541 39.9067 168.351 40.1221 168.209 40.4067C168.069 40.6913 167.999 41.0404 167.999 41.4541C167.999 41.8678 168.069 42.217 168.209 42.5016C168.351 42.7862 168.541 43.0016 168.78 43.1477C169.02 43.2939 169.288 43.367 169.584 43.367C169.881 43.367 170.148 43.2939 170.387 43.1477C170.627 43.0016 170.817 42.7862 170.958 42.5016C171.099 42.217 171.17 41.8678 171.17 41.4541Z" fill="white"/>
<path d="M172.739 39.0653H173.446L175.108 43.0311H175.165L176.828 39.0653H177.535V43.8429H176.98V40.2131H176.933L175.404 43.8429H174.869L173.341 40.2131H173.293V43.8429H172.739V39.0653Z" fill="white"/>
<path d="M178.923 43.8429H178.302L180.098 39.0653H180.709L182.505 43.8429H181.884L180.422 39.8212H180.384L178.923 43.8429ZM179.152 41.9767H181.655V42.4899H179.152V41.9767Z" fill="white"/>
<path d="M182.428 39.5785V39.0653H186.096V39.5785H184.558V43.8429H183.966V39.5785H182.428Z" fill="white"/>
<path d="M187.01 43.8429V39.0653H189.962V39.5785H187.602V41.1928H189.809V41.7061H187.602V43.3297H190V43.8429H187.01Z" fill="white"/>
<path d="M194.06 78.6699C194.242 78.4625 194.558 78.4422 194.766 78.6245C194.973 78.8068 194.993 79.1228 194.811 79.3301L194.06 78.6699ZM194.935 145.032C194.917 145.308 194.679 145.517 194.403 145.499L189.913 145.21C189.637 145.193 189.428 144.955 189.446 144.679C189.464 144.404 189.701 144.195 189.977 144.212L193.969 144.469L194.225 140.477C194.243 140.202 194.481 139.993 194.756 140.01C195.032 140.028 195.241 140.266 195.223 140.541L194.935 145.032ZM194.811 79.3301C187.147 88.0475 182.5 99.4804 182.5 112H181.5C181.5 99.2282 186.242 87.5627 194.06 78.6699L194.811 79.3301ZM182.5 112C182.5 124.52 187.147 135.953 194.811 144.67L194.06 145.33C186.242 136.437 181.5 124.772 181.5 112H182.5Z" fill="white"/>
<path fill-rule="evenodd" clip-rule="evenodd" d="M153.271 188.42H98.3327C95.2366 188.42 92.7267 190.929 92.7267 194.026V291.345C92.7267 294.441 95.2366 296.951 98.3327 296.951H153.271C156.367 296.951 158.877 294.441 158.877 291.345V194.026C158.877 190.929 156.367 188.42 153.271 188.42ZM98.3327 181.692C91.5213 181.692 85.9995 187.214 85.9995 194.026V291.345C85.9995 298.157 91.5213 303.678 98.3327 303.678H153.271C160.083 303.678 165.604 298.157 165.604 291.345V194.026C165.604 187.214 160.083 181.692 153.271 181.692H98.3327Z" fill="white"/>
<path d="M95.6401 240C95.6401 237.524 97.648 235.516 100.125 235.516H151.476C153.953 235.516 155.96 237.524 155.96 240V289.557C155.96 292.034 153.953 294.042 151.476 294.042H100.125C97.648 294.042 95.6401 292.034 95.6401 289.557V240Z" fill="white"/>
<path d="M122.434 206L98.7484 257.084C98.1133 258.453 99.0901 259.727 100.572 259.727H122.974C124.088 259.727 124.916 260.342 124.916 261.482V291.876C124.916 294.063 127.881 294.89 128.822 292.925L152.463 243.53C152.926 242.547 153.372 239.769 150.511 239.769H128.153C127.039 239.769 126.564 239.556 126.564 238.416V206.806C126.564 204.605 123.357 204.01 122.434 206Z" fill="url(#paint0_linear_219_4)"/>
<path d="M115.597 196.606C115.597 195.058 116.852 193.803 118.4 193.803H133.199C134.748 193.803 136.002 195.058 136.002 196.606C136.002 198.154 134.748 199.409 133.199 199.409H118.4C116.852 199.409 115.597 198.154 115.597 196.606Z" fill="white"/>
<path d="M114.253 176.535C114.253 174.678 115.759 173.172 117.617 173.172H133.986C135.844 173.172 137.35 174.678 137.35 176.535V179.675C137.35 179.799 137.25 179.899 137.126 179.899H114.478C114.354 179.899 114.253 179.799 114.253 179.675V176.535Z" fill="white"/>
<path d="M56.9395 78.6699C56.7571 78.4625 56.4412 78.4422 56.2338 78.6245C56.0264 78.8068 56.0061 79.1228 56.1885 79.3301L56.9395 78.6699ZM56.065 145.032C56.0827 145.308 56.3205 145.517 56.596 145.499L61.0868 145.21C61.3623 145.193 61.5714 144.955 61.5537 144.679C61.5359 144.404 61.2982 144.195 61.0226 144.212L57.0309 144.469L56.7742 140.477C56.7565 140.202 56.5188 139.993 56.2432 140.01C55.9676 140.028 55.7586 140.266 55.7763 140.541L56.065 145.032ZM56.1885 79.3301C63.8526 88.0475 68.4998 99.4804 68.4998 112H69.4998C69.4998 99.2282 64.758 87.5627 56.9395 78.6699L56.1885 79.3301ZM68.4998 112C68.4998 124.52 63.8526 135.953 56.1885 144.67L56.9395 145.33C64.758 136.437 69.4998 124.772 69.4998 112H68.4998Z" fill="white"/>
<defs>
<linearGradient id="paint0_linear_219_4" x1="125.74" y1="204.788" x2="125.74" y2="294.035" gradientUnits="userSpaceOnUse">
<stop offset="0.247917" stop-color="#FEDD2C"/>
<stop offset="1" stop-color="#FDB400"/>
</linearGradient>
</defs>
</svg>
