<svg width="11" height="14" viewBox="0 0 11 14" fill="none" xmlns="http://www.w3.org/2000/svg">
<path d="M6.14025 7.89047H4.45651C2.90483 7.32922 2.21153 5.6785 2.34359 2.90528C2.34359 1.28757 3.66417 0 5.28188 0C6.89958 0 8.22017 1.28757 8.22017 2.90528C8.38524 5.6785 7.65892 7.32922 6.14025 7.89047Z" fill="white"/>
<path d="M7.51406 8.35388C7.23051 8.55197 6.91151 8.71704 6.55708 8.81608C6.45074 8.8491 6.30897 8.88212 6.20264 8.88212H4.39501C4.28868 8.88212 4.1469 8.8491 4.04057 8.81608C3.68614 8.68402 3.36715 8.51895 3.04816 8.35388C1.24053 9.11321 0 10.83 0 12.7778C0 13.3431 0.458215 13.8013 1.02345 13.8013H9.60722C10.1542 13.8013 10.5976 13.3578 10.5976 12.8108C10.5976 10.83 9.32168 9.14623 7.51406 8.35388Z" fill="white"/>
</svg>
