<svg width="11" height="17" viewBox="0 0 11 17" fill="none" xmlns="http://www.w3.org/2000/svg">
<path fill-rule="evenodd" clip-rule="evenodd" d="M0 2C0 0.89543 0.895431 0 2 0H9C10.1046 0 11 0.895431 11 2V14.0769C11 15.1815 10.1046 16.0769 9 16.0769H2C0.895431 16.0769 0 15.1815 0 14.0769V2ZM1 13.5C1 13.2239 1.22386 13 1.5 13H9.5C9.77614 13 10 13.2239 10 13.5C10 13.7761 9.77614 14 9.5 14H1.5C1.22386 14 1 13.7761 1 13.5ZM3.80776 1.69249C3.5741 1.69249 3.38468 1.88191 3.38468 2.11557C3.38468 2.34923 3.5741 2.53865 3.80776 2.53865H7.19238C7.42604 2.53865 7.61545 2.34923 7.61545 2.11557C7.61545 1.88191 7.42604 1.69249 7.19238 1.69249H3.80776Z" fill="white"/>
</svg>
