<svg width="10" height="17" viewBox="0 0 10 17" fill="none" xmlns="http://www.w3.org/2000/svg">
<path fill-rule="evenodd" clip-rule="evenodd" d="M10 1.49379V15.5062C10 16.3343 9.41345 17 8.68384 17H1.31618C0.586562 17 0 16.3343 0 15.5062V1.49379C0 0.665711 0.586562 0 1.31618 0H8.68384C9.41345 0 10 0.665711 10 1.49379ZM5.77009 15.4396C5.77009 15.9224 5.4253 16.3137 4.99999 16.3137C4.57467 16.3137 4.22988 15.9224 4.22988 15.4396C4.22988 14.9569 4.57467 14.5656 4.99999 14.5656C5.4253 14.5656 5.77009 14.9569 5.77009 15.4396ZM1.52052 1.38663C1.12546 1.38663 0.80521 1.75011 0.80521 2.19848V12.7008C0.80521 13.1492 1.12546 13.5127 1.52052 13.5127H8.47945C8.8745 13.5127 9.19476 13.1492 9.19476 12.7008V2.19848C9.19476 1.75011 8.8745 1.38663 8.47945 1.38663H1.52052Z" fill="white"/>
</svg>
