<svg width="24" height="21" viewBox="0 0 24 21" fill="none" xmlns="http://www.w3.org/2000/svg">
<path fill-rule="evenodd" clip-rule="evenodd" d="M9.625 1.45455H4.375C2.20038 1.45455 0.4375 3.28611 0.4375 5.54545V16.4545C0.4375 18.7139 2.20038 20.5455 4.375 20.5455H9.625C11.7996 20.5455 13.5625 18.7139 13.5625 16.4545V5.54545C13.5625 3.28611 11.7996 1.45455 9.625 1.45455ZM4.375 1C1.95875 1 0 3.03507 0 5.54545V16.4545C0 18.9649 1.95875 21 4.375 21H9.625C12.0412 21 14 18.9649 14 16.4545V5.54545C14 3.03507 12.0412 1 9.625 1H4.375Z" fill="#BBBBBB"/>
<path d="M1.27441 16.7586C1.27441 16.29 1.62505 15.9102 2.05759 15.9102H11.9452C12.3777 15.9102 12.7284 16.29 12.7284 16.7586C12.7284 18.3986 11.5011 19.7281 9.98727 19.7281H4.01554C2.50166 19.7281 1.27441 18.3986 1.27441 16.7586Z" fill="#009EF0"/>
<path d="M1.27441 12.4106C1.27441 11.8834 1.66888 11.4561 2.15549 11.4561H11.8473C12.3339 11.4561 12.7284 11.8834 12.7284 12.4106V14.3195C12.7284 14.8467 12.3339 15.274 11.8473 15.274H2.15549C1.66888 15.274 1.27441 14.8467 1.27441 14.3195V12.4106Z" fill="#BBBBBB"/>
<path d="M1.27441 7.9545C1.27441 7.42734 1.66888 7 2.15549 7H11.8473C12.3339 7 12.7284 7.42734 12.7284 7.9545V9.86349C12.7284 10.3906 12.3339 10.818 11.8473 10.818H2.15549C1.66888 10.818 1.27441 10.3906 1.27441 9.86349V7.9545Z" fill="#BBBBBB"/>
<path d="M1.27441 5.51545C1.27441 3.87541 2.50166 2.5459 4.01554 2.5459H9.98727C11.5011 2.5459 12.7284 3.87541 12.7284 5.51545C12.7284 5.98403 12.3777 6.36389 11.9452 6.36389H2.05759C1.62506 6.36389 1.27441 5.98403 1.27441 5.51545Z" fill="#BBBBBB"/>
<path d="M3.81934 1.27364C3.81934 0.570768 4.42983 0.000976562 5.1829 0.000976562H8.81909C9.57217 0.000976562 10.1827 0.570768 10.1827 1.27364H3.81934Z" fill="#BBBBBB"/>
<path d="M20.5 1C20.5 0.723858 20.2761 0.5 20 0.5C19.7239 0.5 19.5 0.723858 19.5 1L20.5 1ZM19.6464 20.3536C19.8417 20.5488 20.1583 20.5488 20.3536 20.3536L23.5355 17.1716C23.7308 16.9763 23.7308 16.6597 23.5355 16.4645C23.3403 16.2692 23.0237 16.2692 22.8284 16.4645L20 19.2929L17.1716 16.4645C16.9763 16.2692 16.6597 16.2692 16.4645 16.4645C16.2692 16.6597 16.2692 16.9763 16.4645 17.1716L19.6464 20.3536ZM19.5 1L19.5 20L20.5 20L20.5 1L19.5 1Z" fill="#BBBBBB"/>
</svg>
