<svg width="79" height="79" viewBox="0 0 79 79" fill="none" xmlns="http://www.w3.org/2000/svg">
<path d="M69 0H10C4.47715 0 0 4.47715 0 10V69C0 74.5229 4.47715 79 10 79H69C74.5229 79 79 74.5229 79 69V10C79 4.47715 74.5229 0 69 0Z" fill="white"/>
<path d="M63.8177 5.38477H15.3848C9.86192 5.38477 5.38477 9.86193 5.38477 15.3848V63.8177C5.38477 69.3405 9.86193 73.8177 15.3848 73.8177H63.8177C69.3405 73.8177 73.8177 69.3405 73.8177 63.8177V15.3848C73.8177 9.86192 69.3405 5.38477 63.8177 5.38477Z" fill="#009EF0"/>
<path d="M62 39.5C62 51.907 51.907 62 39.5 62C27.093 62 17 51.907 17 39.5C17 27.093 27.093 17 39.5 17C51.9562 17 62 27.093 62 39.5Z" fill="white"/>
<circle cx="39.5" cy="39.5" r="18.5" fill="#009EF0"/>
<path d="M38.4502 51.7782C38.4502 52.3998 38.9541 52.9037 39.5757 52.9037C40.1974 52.9037 40.7013 52.3998 40.7013 51.7782V49.8873C40.7013 49.2656 40.1974 48.7617 39.5757 48.7617C38.9541 48.7617 38.4502 49.2656 38.4502 49.8873V51.7782Z" fill="#FFDA58"/>
<path d="M52.9018 39.5837C52.9018 38.9582 52.3947 38.4512 51.7693 38.4512H49.8923C49.2668 38.4512 48.7598 38.9582 48.7598 39.5837C48.7598 40.2091 49.2668 40.7162 49.8923 40.7162H51.7693C52.3947 40.7162 52.9018 40.2091 52.9018 39.5837Z" fill="#FFDA58"/>
<path d="M40.7003 29.3123V27.4214C40.7003 26.7998 40.1964 26.2959 39.5748 26.2959C38.9531 26.2959 38.4492 26.7998 38.4492 27.4214V29.3123C38.4492 29.934 38.9531 30.4379 39.5748 30.4379C40.1964 30.4379 40.7003 29.934 40.7003 29.3123Z" fill="#FFDA58"/>
<path d="M29.3094 38.4512H27.4185C26.7969 38.4512 26.293 38.9551 26.293 39.5767C26.293 40.1983 26.7969 40.7023 27.4185 40.7023H29.3094C29.931 40.7023 30.435 40.1983 30.435 39.5767C30.435 38.9551 29.931 38.4512 29.3094 38.4512Z" fill="#FFDA58"/>
<path d="M32.48 31.6929L31.1755 30.3869C30.9558 30.167 30.5995 30.1668 30.3796 30.3865C30.1597 30.6061 30.1595 30.9624 30.3792 31.1823L31.6836 32.4883C31.9033 32.7082 32.2596 32.7084 32.4795 32.4888C32.6994 32.2691 32.6996 31.9128 32.48 31.6929Z" fill="#FFDA58"/>
<path d="M31.68 46.675L30.3753 47.9808C30.1556 48.2007 30.1558 48.557 30.3756 48.7767C30.5955 48.9964 30.9518 48.9962 31.1715 48.7763L32.4762 47.4706C32.6959 47.2507 32.6957 46.8944 32.4758 46.6747C32.256 46.455 31.8997 46.4552 31.68 46.675Z" fill="#FFDA58"/>
<path d="M47.9715 30.3933L46.6657 31.6979C46.4458 31.9176 46.4457 32.2739 46.6653 32.4938C46.885 32.7137 47.2413 32.7138 47.4612 32.4941L48.767 31.1895C48.9869 30.9698 48.987 30.6135 48.7673 30.3936C48.5477 30.1737 48.1913 30.1736 47.9715 30.3933Z" fill="#FFDA58"/>
<path d="M48.7638 47.9812L47.4584 46.6761C47.2386 46.4564 46.8823 46.4564 46.6625 46.6762C46.4428 46.896 46.4428 47.2524 46.6626 47.4721L47.9681 48.7771C48.1879 48.9969 48.5442 48.9968 48.7639 48.777C48.9837 48.5572 48.9836 48.2009 48.7638 47.9812Z" fill="#FFDA58"/>
<circle cx="39.5633" cy="39.2908" r="6.41096" fill="#FFDA58"/>
<rect x="3" y="14" width="6" height="15" rx="2" fill="white"/>
<rect x="3" y="50" width="6" height="15" rx="2" fill="white"/>
</svg>
