<svg width="14" height="14" viewBox="0 0 14 14" fill="none" xmlns="http://www.w3.org/2000/svg">
<path fill-rule="evenodd" clip-rule="evenodd" d="M8.57599 2.51808C8.46096 2.58121 8.31428 2.53886 8.25466 2.42531L7.04529 0.12205C6.95766 -0.0448436 6.70741 -0.0393963 6.62775 0.131139L5.52739 2.48698C5.47314 2.60314 5.32838 2.65178 5.21045 2.59348L2.82909 1.41615C2.65617 1.33067 2.45721 1.47575 2.49675 1.65849L3.04245 4.18043C3.06937 4.30483 2.98213 4.42547 2.85125 4.44482L0.19626 4.8374C0.00376384 4.86586 -0.0680772 5.09594 0.0763973 5.22127L2.06666 6.94778C2.1651 7.03318 2.16859 7.18039 2.0743 7.27L0.164772 9.08472C0.0264716 9.21615 0.108967 9.44272 0.302481 9.46293L2.97706 9.74224C3.10869 9.75598 3.20144 9.87277 3.18032 9.99819L2.75308 12.5362C2.72205 12.7205 2.92775 12.8569 3.09652 12.764L5.42386 11.4817C5.53891 11.4183 5.68584 11.4606 5.74553 11.5743L6.9551 13.8779C7.04266 14.0447 7.29267 14.0394 7.37251 13.8691L8.47241 11.5229C8.52678 11.407 8.67141 11.3585 8.78922 11.4167L11.1709 12.5942C11.3438 12.6797 11.5428 12.5346 11.5033 12.3519L10.9576 9.82991C10.9306 9.70551 11.0179 9.58487 11.1487 9.56552L13.8037 9.17294C13.9962 9.14447 14.0681 8.9144 13.9236 8.78907L11.9333 7.06256C11.8349 6.97716 11.8314 6.82995 11.9257 6.74034L13.8352 4.92563C13.9735 4.7942 13.891 4.56763 13.6975 4.54742L11.0236 4.26817C10.8917 4.2544 10.7989 4.13721 10.8205 4.01161L11.257 1.46353C11.2886 1.27916 11.0831 1.14218 10.914 1.23495L8.57599 2.51808ZM6.96297 5.07045C6.96297 5.8337 6.36174 6.44608 5.50151 6.44608C4.65978 6.44608 4.04004 5.8337 4.04004 5.07045C4.04004 4.31608 4.65978 3.69482 5.50151 3.69482C6.34324 3.69482 6.96297 4.3072 6.96297 5.07045ZM4.76152 5.07045C4.76152 5.4787 5.06677 5.7982 5.50151 5.7982C5.9455 5.7982 6.24149 5.46983 6.24149 5.07045C6.24149 4.67108 5.9455 4.35157 5.50151 4.35157C5.06677 4.35157 4.76152 4.67108 4.76152 5.07045ZM4.91877 9.39258L4.47478 9.14408L8.77593 4.52908L9.22917 4.7687L4.91877 9.39258ZM9.75641 8.75358C9.75641 9.51683 9.13668 10.1292 8.29494 10.1292C7.45321 10.1292 6.83348 9.51683 6.83348 8.75358C6.83348 7.99033 7.45321 7.37795 8.29494 7.37795C9.13668 7.37795 9.75641 7.99033 9.75641 8.75358ZM7.55496 8.75358C7.55496 9.15296 7.85095 9.47246 8.29494 9.47246C8.72968 9.47246 9.03493 9.15296 9.03493 8.75358C9.03493 8.35421 8.72968 8.03471 8.29494 8.03471C7.85095 8.03471 7.55496 8.35421 7.55496 8.75358Z" fill="white"/>
</svg>
