<svg width="18" height="18" viewBox="0 0 18 18" fill="none" xmlns="http://www.w3.org/2000/svg">
<path d="M7.20256 0C6.03278 0 5.04371 0.754874 4.6714 1.8H0.91152C0.792429 1.79831 0.674191 1.82035 0.563677 1.86482C0.453163 1.90929 0.352577 1.97532 0.267765 2.05906C0.182953 2.1428 0.115606 2.24258 0.069639 2.35261C0.0236715 2.46264 0 2.58073 0 2.7C0 2.81927 0.0236715 2.93736 0.069639 3.04739C0.115606 3.15742 0.182953 3.2572 0.267765 3.34094C0.352577 3.42468 0.453163 3.49071 0.563677 3.53518C0.674191 3.57965 0.792429 3.60169 0.91152 3.6H4.6714C5.04371 4.64513 6.03278 5.4 7.20256 5.4C8.68904 5.4 9.89872 4.1886 9.89872 2.7C9.89872 1.2114 8.68904 0 7.20256 0ZM12.5949 1.8C12.4758 1.79831 12.3576 1.82035 12.247 1.86482C12.1365 1.90929 12.0359 1.97532 11.9511 2.05906C11.8663 2.1428 11.799 2.24258 11.753 2.35261C11.707 2.46264 11.6834 2.58073 11.6834 2.7C11.6834 2.81927 11.707 2.93736 11.753 3.04739C11.799 3.15742 11.8663 3.2572 11.9511 3.34094C12.0359 3.42468 12.1365 3.49071 12.247 3.53518C12.3576 3.57965 12.4758 3.60169 12.5949 3.6H17.0885C17.2076 3.60169 17.3258 3.57965 17.4363 3.53518C17.5468 3.49071 17.6474 3.42468 17.7322 3.34094C17.817 3.2572 17.8844 3.15742 17.9304 3.04739C17.9763 2.93736 18 2.81927 18 2.7C18 2.58073 17.9763 2.46264 17.9304 2.35261C17.8844 2.24258 17.817 2.1428 17.7322 2.05906C17.6474 1.97532 17.5468 1.90929 17.4363 1.86482C17.3258 1.82035 17.2076 1.79831 17.0885 1.8H12.5949ZM11.6962 6.3C10.5264 6.3 9.53731 7.05487 9.165 8.1H0.91152C0.792429 8.09831 0.674191 8.12035 0.563677 8.16482C0.453163 8.20929 0.352577 8.27532 0.267765 8.35906C0.182953 8.4428 0.115606 8.54258 0.069639 8.65261C0.0236715 8.76264 0 8.88073 0 9C0 9.11927 0.0236715 9.23736 0.069639 9.34739C0.115606 9.45742 0.182953 9.5572 0.267765 9.64094C0.352577 9.72468 0.453163 9.79071 0.563677 9.83518C0.674191 9.87965 0.792429 9.90169 0.91152 9.9H9.165C9.53731 10.9451 10.5264 11.7 11.6962 11.7C13.1826 11.7 14.3923 10.4886 14.3923 9C14.3923 7.5114 13.1826 6.3 11.6962 6.3ZM17.0885 8.1C16.9694 8.09831 16.8512 8.12035 16.7406 8.16482C16.6301 8.20929 16.5295 8.27532 16.4447 8.35906C16.3599 8.4428 16.2926 8.54258 16.2466 8.65261C16.2006 8.76264 16.177 8.88073 16.177 9C16.177 9.11927 16.2006 9.23736 16.2466 9.34739C16.2926 9.45742 16.3599 9.5572 16.4447 9.64094C16.5295 9.72468 16.6301 9.79071 16.7406 9.83518C16.8512 9.87965 16.9694 9.90169 17.0885 9.9C17.2076 9.90169 17.3258 9.87965 17.4363 9.83518C17.5468 9.79071 17.6474 9.72468 17.7322 9.64094C17.817 9.5572 17.8844 9.45742 17.9304 9.34739C17.9763 9.23736 18 9.11927 18 9C18 8.88073 17.9763 8.76264 17.9304 8.65261C17.8844 8.54258 17.817 8.4428 17.7322 8.35906C17.6474 8.27532 17.5468 8.20929 17.4363 8.16482C17.3258 8.12035 17.2076 8.09831 17.0885 8.1ZM4.5064 12.6C3.33662 12.6 2.34755 13.3549 1.97524 14.4H0.91152C0.792429 14.3983 0.674191 14.4203 0.563677 14.4648C0.453163 14.5093 0.352577 14.5753 0.267765 14.6591C0.182953 14.7428 0.115606 14.8426 0.069639 14.9526C0.0236715 15.0626 0 15.1807 0 15.3C0 15.4193 0.0236715 15.5374 0.069639 15.6474C0.115606 15.7574 0.182953 15.8572 0.267765 15.9409C0.352577 16.0247 0.453163 16.0907 0.563677 16.1352C0.674191 16.1797 0.792429 16.2017 0.91152 16.2H1.97524C2.34755 17.2451 3.33662 18 4.5064 18C5.99288 18 7.20256 16.7886 7.20256 15.3C7.20256 13.8114 5.99288 12.6 4.5064 12.6ZM9.89872 14.4C9.77963 14.3983 9.66139 14.4203 9.55088 14.4648C9.44036 14.5093 9.33978 14.5753 9.25496 14.6591C9.17015 14.7428 9.10281 14.8426 9.05684 14.9526C9.01087 15.0626 8.9872 15.1807 8.9872 15.3C8.9872 15.4193 9.01087 15.5374 9.05684 15.6474C9.10281 15.7574 9.17015 15.8572 9.25496 15.9409C9.33978 16.0247 9.44036 16.0907 9.55088 16.1352C9.66139 16.1797 9.77963 16.2017 9.89872 16.2H17.0885C17.2076 16.2017 17.3258 16.1797 17.4363 16.1352C17.5468 16.0907 17.6474 16.0247 17.7322 15.9409C17.817 15.8572 17.8844 15.7574 17.9304 15.6474C17.9763 15.5374 18 15.4193 18 15.3C18 15.1807 17.9763 15.0626 17.9304 14.9526C17.8844 14.8426 17.817 14.7428 17.7322 14.6591C17.6474 14.5753 17.5468 14.5093 17.4363 14.4648C17.3258 14.4203 17.2076 14.3983 17.0885 14.4H9.89872Z" fill="#009EF0"/>
</svg>
