<svg width="15" height="13" viewBox="0 0 15 13" fill="none" xmlns="http://www.w3.org/2000/svg">
<path d="M0.958585 5.62923C0.958585 5.62923 7.57879 2.79073 9.89188 1.7889C10.7693 1.37147 13.7204 0.119191 13.7204 0.119191C13.7204 0.119191 15.0764 -0.465208 14.9966 0.954045C14.9966 1.53844 14.6776 3.45861 14.3585 5.62923C13.88 8.63471 13.4014 11.8906 13.4014 11.8906C13.4014 11.8906 13.3216 12.809 12.6835 12.976C12.0454 13.1429 10.9288 12.3916 10.7693 12.2246C10.6097 12.1411 7.89784 10.3044 6.86094 9.46956C6.62165 9.21911 6.30261 8.71819 6.86094 8.21728C8.21688 6.88151 9.89188 5.29529 10.849 4.20998C11.3276 3.70907 11.8062 2.62375 9.89188 3.95952C7.17998 5.87969 4.46809 7.79985 4.46809 7.79985C4.46809 7.79985 3.83 8.21728 2.71334 7.79985C1.59668 7.46591 0.240731 6.965 0.240731 6.965C0.240731 6.965 -0.636645 6.29711 0.958585 5.62923Z" fill="#868789"/>
</svg>
