<svg width="18" height="27" viewBox="0 0 18 27" fill="none" xmlns="http://www.w3.org/2000/svg">
<path fill-rule="evenodd" clip-rule="evenodd" d="M12.375 2.21292H5.625C2.82906 2.21292 0.5625 4.53568 0.5625 7.40094V21.2356C0.5625 24.1009 2.82906 26.4237 5.625 26.4237H12.375C15.1709 26.4237 17.4375 24.1009 17.4375 21.2356V7.40094C17.4375 4.53568 15.1709 2.21292 12.375 2.21292ZM5.625 1.63647C2.5184 1.63647 0 4.21731 0 7.40094V21.2356C0 24.4193 2.5184 27.0001 5.625 27.0001H12.375C15.4816 27.0001 18 24.4193 18 21.2356V7.40094C18 4.21731 15.4816 1.63647 12.375 1.63647H5.625Z" fill="#868789"/>
<path d="M1.63635 21.5455C1.63635 20.943 2.0872 20.4546 2.64335 20.4546H15.3566C15.9128 20.4546 16.3636 20.943 16.3636 21.5455C16.3636 23.6542 14.7857 25.3637 12.8391 25.3637H5.16083C3.21431 25.3637 1.63635 23.6542 1.63635 21.5455Z" fill="#CECECE"/>
<path d="M1.63635 15.9546C1.63635 15.2768 2.14355 14.7273 2.76922 14.7273H15.2308C15.8564 14.7273 16.3636 15.2768 16.3636 15.9546V18.4091C16.3636 19.0869 15.8564 19.6364 15.2308 19.6364H2.76922C2.14355 19.6364 1.63635 19.0869 1.63635 18.4091V15.9546Z" fill="#868789"/>
<path d="M1.63635 10.2273C1.63635 9.54947 2.14355 9 2.76922 9H15.2308C15.8564 9 16.3636 9.54947 16.3636 10.2273V12.6818C16.3636 13.3596 15.8564 13.9091 15.2308 13.9091H2.76922C2.14355 13.9091 1.63635 13.3596 1.63635 12.6818V10.2273Z" fill="#868789"/>
<path d="M1.63635 7.09089C1.63635 4.98216 3.21431 3.27271 5.16083 3.27271H12.8392C14.7857 3.27271 16.3636 4.98216 16.3636 7.09089C16.3636 7.69338 15.9128 8.1818 15.3566 8.1818H2.64335C2.0872 8.1818 1.63635 7.69338 1.63635 7.09089Z" fill="#868789"/>
<path d="M4.90906 1.63636C4.90906 0.732625 5.69401 0 6.6623 0H11.3376C12.3059 0 13.0909 0.732625 13.0909 1.63636H4.90906Z" fill="#868789"/>
</svg>
