<svg width="18" height="23" viewBox="0 0 18 23" fill="none" xmlns="http://www.w3.org/2000/svg">
<path fill-rule="evenodd" clip-rule="evenodd" d="M8.81445 22.4832C7.53831 22.4832 6.35333 21.8647 5.56318 20.7862C1.87175 15.7472 0 11.9491 0 9.49764C0 4.26061 3.95416 0 8.81445 0C13.6747 0 17.6289 4.26061 17.6289 9.49764C17.6289 11.9491 15.7572 15.7471 12.0657 20.7861C11.2756 21.8647 10.0906 22.4832 8.81445 22.4832ZM8.81371 12.3421C10.6072 12.3421 12.0611 10.9573 12.0611 9.24893C11.8901 5.14584 5.7367 5.14695 5.56628 9.24893C5.56628 10.9573 7.02022 12.3421 8.81371 12.3421Z" fill="#868789"/>
</svg>
