<svg width="16" height="16" viewBox="0 0 16 16" fill="none" xmlns="http://www.w3.org/2000/svg">
<path fill-rule="evenodd" clip-rule="evenodd" d="M8 1.19403C4.24117 1.19403 1.19403 4.24117 1.19403 8C1.19403 11.7588 4.24117 14.806 8 14.806C11.7588 14.806 14.806 11.7588 14.806 8C14.806 4.24117 11.7588 1.19403 8 1.19403ZM0 8C0 3.58172 3.58173 0 8 0C12.4183 0 16 3.58172 16 8C16 12.4183 12.4183 16 8 16C3.58173 16 0 12.4183 0 8Z" fill="#009EF0"/>
<path fill-rule="evenodd" clip-rule="evenodd" d="M7.6279 4C7.97468 4 8.25581 4.24867 8.25581 4.55542V7.45594L11.9953 4.97507C12.2727 4.79102 12.6663 4.84075 12.8744 5.08615C13.0825 5.33155 13.0262 5.67969 12.7488 5.86374L8.2279 8.863C7.72198 9.19864 7 8.87932 7 8.31992V4.55542C7 4.24867 7.28112 4 7.6279 4Z" fill="#009EF0"/>
</svg>
