<svg width="37" height="37" viewBox="0 0 37 37" fill="none" xmlns="http://www.w3.org/2000/svg">
<path d="M0.0892029 7.99999C0.0892029 3.58172 3.67093 0 8.0892 0H28.8216C33.2399 0 36.8216 3.58172 36.8216 8V28.7324C36.8216 33.1507 33.2399 36.7324 28.8216 36.7324H8.0892C3.67092 36.7324 0.0892029 33.1507 0.0892029 28.7324V7.99999Z" fill="#009EF0"/>
<path d="M2.11972 9.53051C2.11972 5.38838 5.47758 2.03052 9.61972 2.03052H27.2911C31.4332 2.03052 34.7911 5.38838 34.7911 9.53052V27.2019C34.7911 31.344 31.4332 34.7019 27.2911 34.7019H9.61972C5.47758 34.7019 2.11972 31.344 2.11972 27.2019V9.53051Z" stroke="white"/>
<path d="M27.5754 13.8349C28.509 13.172 29.2943 12.3446 29.9343 11.3918V11.3909C29.0801 11.7649 28.1713 12.0136 27.2224 12.1341C28.1981 11.5516 28.9433 10.6361 29.2934 9.53321C28.3837 10.0756 27.3793 10.4582 26.3089 10.6725C25.4451 9.75227 24.214 9.18311 22.8709 9.18311C20.2652 9.18311 18.1675 11.2981 18.1675 13.8904C18.1675 14.2635 18.199 14.6222 18.2765 14.9637C14.3641 14.7724 10.9014 12.8975 8.57497 10.0402C8.16938 10.7452 7.93024 11.5516 7.93024 12.4192C7.93024 14.0492 8.76915 15.4936 10.0213 16.3306C9.26465 16.3163 8.52331 16.0963 7.89484 15.7509V15.8026C7.89484 18.0898 9.5258 19.9895 11.6657 20.4276C11.2821 20.5328 10.865 20.5826 10.4317 20.5826C10.1304 20.5826 9.82616 20.5654 9.5411 20.5022C10.1504 22.3656 11.8818 23.7364 13.9385 23.7814C12.3372 25.0335 10.3035 25.7883 8.10242 25.7883C7.71692 25.7883 7.34673 25.771 6.97653 25.7242C9.06186 27.0681 11.5317 27.8363 14.1967 27.8363C22.5027 27.8363 27.9159 20.9069 27.5754 13.8349Z" fill="white"/>
</svg>
