<svg width="70" height="38" viewBox="0 0 70 38" fill="none" xmlns="http://www.w3.org/2000/svg">
<rect x="0.5" y="0.5" width="69" height="37" rx="5.5" stroke="#868789"/>
<path d="M30.4586 19.8915L28.0411 25.7138L27.7784 24.5258C27.174 23.0791 25.8732 21.55 24.3623 20.9383L26.5696 28.4073H29.171L33.0469 19.8798H30.4586V19.8915Z" fill="#0033A0"/>
<path d="M32.5214 28.4314L34.0717 19.8922H36.5287L34.9914 28.4314H32.5214Z" fill="#0033A0"/>
<path d="M43.9252 20.0919C43.4391 19.9154 42.677 19.7272 41.7179 19.7272C39.2872 19.7272 37.5661 20.8917 37.5529 22.5501C37.5398 23.7734 38.7748 24.4674 39.7077 24.8673C40.6668 25.2907 40.9953 25.5495 40.9821 25.9259C40.969 26.5022 40.2069 26.761 39.5106 26.761C38.5252 26.761 37.9996 26.6316 37.1982 26.314L36.8829 26.1729L36.5413 28.0783C37.1194 28.3136 38.1836 28.5253 39.2872 28.537C41.8756 28.537 43.5573 27.3961 43.5704 25.62C43.5836 24.6438 42.9266 23.9028 41.4945 23.3029C40.6405 22.903 40.1018 22.6442 40.115 22.2443C40.115 21.8915 40.5617 21.5151 41.5208 21.5151C42.3223 21.5033 42.9135 21.668 43.3602 21.8444L43.5836 21.9385L43.9252 20.0919Z" fill="#0033A0"/>
<path d="M50.245 19.8922H48.3399C47.7487 19.8922 47.302 20.0451 47.0523 20.5979L43.3998 28.4197H45.9881C45.9881 28.4197 46.4085 27.3611 46.5005 27.1376C46.7764 27.1376 49.299 27.1376 49.6538 27.1376C49.7326 27.4317 49.956 28.4197 49.956 28.4197H52.2421L50.245 19.8922ZM47.1968 25.3968C47.4071 24.9028 48.1822 23.0091 48.1822 23.0091C48.1691 23.0326 48.3793 22.5151 48.5107 22.1975L48.6684 22.9385C48.6684 22.9385 49.1414 24.9734 49.2465 25.4086C48.8655 25.3968 47.683 25.3968 47.1968 25.3968Z" fill="#0033A0"/>
<path d="M25.8076 19.8922H21.8398L21.8135 20.0333C24.9011 20.739 26.9375 22.4798 27.7916 24.5264L26.9244 20.5979C26.7799 20.0686 26.3463 19.9039 25.8076 19.8922Z" fill="#FF9E16"/>
<path d="M14.3898 17.8214H12.8131L11 10.5172L12.7474 10.2584L13.9825 15.9748L17.1357 10.329H18.8044L14.3898 17.8214Z" fill="#0033A0"/>
<path d="M22.5627 15.4344H18.8181C18.713 16.4459 19.2386 16.8929 20.132 16.8929C20.8809 16.8929 21.5378 16.6459 22.2473 16.246V17.2575C21.551 17.6457 20.7495 17.8927 19.8035 17.8927C18.1744 17.8927 17.097 17.0576 17.4255 15.1756C17.7145 13.4819 19.0284 12.4468 20.5525 12.4468C22.2999 12.4468 22.8911 13.623 22.6284 15.1051C22.6021 15.2345 22.5758 15.3638 22.5627 15.4344ZM20.3554 13.3643C19.7773 13.3643 19.2386 13.776 18.9758 14.6346H21.3014C21.3408 13.8112 21.0517 13.3643 20.3554 13.3643Z" fill="#0033A0"/>
<path d="M24.9928 14.7986L24.4804 17.798H23.0352L23.9286 12.5756H25.1636V13.6224C25.6497 13.0108 26.3198 12.505 27.2395 12.4697L27.2527 13.7518C26.333 13.7988 25.5052 14.234 24.9928 14.7986Z" fill="#0033A0"/>
<path d="M27.2266 17.7976L28.12 12.5752H29.5652L28.6718 17.7976H27.2266ZM29.0134 11.6931C28.5273 11.6931 28.1988 11.3873 28.2645 10.9521C28.3433 10.5051 28.7769 10.1993 29.2631 10.1993C29.736 10.1993 30.0645 10.5169 29.9857 10.9521C29.92 11.3873 29.4864 11.6931 29.0134 11.6931Z" fill="#0033A0"/>
<path d="M33.5856 11.1406C33.0863 11.1406 32.7973 11.3406 32.7053 11.7993L32.5739 12.5638H33.6907V13.6224H32.4031L31.6805 17.7862H30.2484L30.971 13.6224H30.1301L30.3141 12.5638H31.1549L31.3126 11.6699C31.5097 10.5172 32.4031 10.082 33.5987 10.082C33.8484 10.082 34.0454 10.1056 34.19 10.1291L34.2031 11.1877C34.0454 11.1641 33.8352 11.1406 33.5856 11.1406Z" fill="#0033A0"/>
<path d="M33.5983 17.7976L34.4917 12.5752H35.9369L35.0435 17.7976H33.5983ZM35.3851 11.6931C34.899 11.6931 34.5705 11.3873 34.6362 10.9521C34.7151 10.5051 35.1486 10.1993 35.6348 10.1993C36.1077 10.1993 36.4362 10.5169 36.3574 10.9521C36.3048 11.3873 35.8581 11.6931 35.3851 11.6931Z" fill="#0033A0"/>
<path d="M41.5734 15.4344H37.8289C37.7238 16.4459 38.2493 16.8929 39.1428 16.8929C39.8917 16.8929 40.5486 16.6459 41.2581 16.246V17.2575C40.5617 17.6457 39.7603 17.8927 38.8143 17.8927C37.1851 17.8927 36.1077 17.0576 36.4362 15.1756C36.7252 13.4819 38.0391 12.4468 39.5632 12.4468C41.3106 12.4468 41.9019 13.623 41.6391 15.1051C41.626 15.2345 41.5865 15.3638 41.5734 15.4344ZM39.3661 13.3643C38.788 13.3643 38.2493 13.776 37.9866 14.6346H40.3121C40.3515 13.8112 40.0756 13.3643 39.3661 13.3643Z" fill="#0033A0"/>
<path d="M45.8701 17.7983V17.069C45.384 17.516 44.7533 17.9041 43.9387 17.9041C42.7168 17.9041 41.8759 17.0925 42.1781 15.3282C42.5066 13.3757 43.8599 12.5171 45.2132 12.5171C45.765 12.5171 46.1986 12.5994 46.527 12.717L46.9606 10.2L48.4453 10L47.1051 17.81H45.8701V17.7983ZM46.3562 13.7756C46.0146 13.6227 45.7518 13.5522 45.2657 13.5522C44.5037 13.5522 43.8599 14.105 43.6628 15.2459C43.492 16.2574 43.8862 16.7397 44.53 16.7397C45.0555 16.7397 45.5154 16.4574 45.9752 16.0222L46.3562 13.7756Z" fill="#0033A0"/>
<path d="M51.5588 17.8447C50.8756 17.8447 50.3106 17.7506 49.7982 17.586L50.7573 12.0343L51.8873 11.8813L51.48 14.2808C51.8084 14.022 52.2683 13.7515 52.8201 13.7515C53.753 13.7515 54.3836 14.3749 54.1471 15.704C53.8843 17.1625 52.8727 17.8447 51.5588 17.8447ZM52.3603 14.6219C51.9924 14.6219 51.6245 14.8454 51.296 15.1394L50.9938 16.939C51.204 17.0096 51.3617 17.0449 51.677 17.0449C52.3734 17.0449 52.8595 16.6685 53.0172 15.7628C53.1486 14.9983 52.8595 14.6219 52.3603 14.6219Z" fill="#0033A0"/>
<path d="M56.7223 18.0101C56.1574 18.9864 55.6055 19.2922 54.7515 19.2922C54.5545 19.2922 54.4493 19.2804 54.3574 19.2569L54.3442 18.4453C54.4888 18.4806 54.6333 18.5041 54.8435 18.5041C55.1588 18.5041 55.4479 18.3748 55.6318 18.0807L55.7764 17.8219L54.8435 13.9169L56.0128 13.7875L56.5515 16.6104L58.0099 13.8463H59.1004L56.7223 18.0101Z" fill="#0033A0"/>
</svg>
