<svg width="37" height="37" viewBox="0 0 37 37" fill="none" xmlns="http://www.w3.org/2000/svg">
<path d="M0.178406 7.99999C0.178406 3.58172 3.76013 0 8.17841 0H28.9108C33.3291 0 36.9108 3.58172 36.9108 8V28.7324C36.9108 33.1507 33.3291 36.7324 28.9108 36.7324H8.1784C3.76012 36.7324 0.178406 33.1507 0.178406 28.7324V7.99999Z" fill="#009EF0"/>
<path d="M2.20892 9.53051C2.20892 5.38838 5.56679 2.03052 9.70892 2.03052H27.3803C31.5224 2.03052 34.8803 5.38838 34.8803 9.53052V27.2019C34.8803 31.344 31.5224 34.7019 27.3803 34.7019H9.70892C5.56678 34.7019 2.20892 31.344 2.20892 27.2019V9.53051Z" stroke="white"/>
<path d="M26.1159 19.1582C25.7447 18.6895 25.8509 18.481 26.1159 18.062C26.1207 18.0572 29.1846 13.8234 29.5002 12.3876L29.5021 12.3867C29.659 11.8634 29.5022 11.4789 28.7436 11.4789H26.2335C25.5946 11.4789 25.2999 11.8089 25.1421 12.1781C25.1421 12.1781 23.8641 15.2373 22.0562 17.2202C21.4727 17.7932 21.2029 17.9769 20.8844 17.9769C20.7275 17.9769 20.4836 17.7932 20.4836 17.27V12.3867C20.4836 11.7592 20.3047 11.4789 19.7757 11.4789H15.8289C15.4281 11.4789 15.1899 11.7716 15.1899 12.0442C15.1899 12.6392 16.0939 12.776 16.1876 14.45V18.0821C16.1876 18.878 16.0432 19.0243 15.7227 19.0243C14.8695 19.0243 12.7985 15.9528 11.5712 12.4374C11.3234 11.7553 11.0814 11.4798 10.4377 11.4798H7.92665C7.21018 11.4798 7.06573 11.8099 7.06573 12.1791C7.06573 12.8315 7.919 16.0752 11.0336 20.3607C13.1094 23.2859 16.0326 24.8709 18.6919 24.8709C20.2904 24.8709 20.4855 24.5189 20.4855 23.9134C20.4855 21.1183 20.3411 20.8543 21.1417 20.8543C21.5129 20.8543 22.1518 21.0379 23.6441 22.4489C25.3497 24.1219 25.6299 24.8709 26.5846 24.8709H29.0947C29.8102 24.8709 30.1727 24.5189 29.9642 23.8244C29.4868 22.3637 26.2613 19.3591 26.1159 19.1582Z" fill="white"/>
</svg>
