<svg width="24" height="24" viewBox="0 0 24 24" fill="none" xmlns="http://www.w3.org/2000/svg">
<path d="M13.299 3.25L20.2272 15.25C20.8046 16.25 20.0829 17.5 18.9282 17.5H5.0718C3.9171 17.5 3.19541 16.25 3.77276 15.25L10.701 3.25C11.2783 2.25 12.7217 2.25 13.299 3.25Z" stroke="white"/>
<path d="M11.8949 12.76C11.6065 12.76 11.3666 12.5382 11.344 12.2507L11.12 9.4V7.78C11.12 7.34922 11.4692 7 11.9 7C12.3308 7 12.68 7.34922 12.68 7.78V9.4L12.4457 12.2526C12.4221 12.5393 12.1826 12.76 11.8949 12.76ZM12.536 15.28C12.36 15.456 12.148 15.544 11.9 15.544C11.652 15.544 11.44 15.456 11.264 15.28C11.088 15.104 11 14.892 11 14.644C11 14.396 11.084 14.184 11.252 14.008C11.428 13.832 11.644 13.744 11.9 13.744C12.148 13.744 12.36 13.832 12.536 14.008C12.712 14.184 12.8 14.396 12.8 14.644C12.8 14.892 12.712 15.104 12.536 15.28Z" fill="white"/>
</svg>
