<svg width="37" height="37" viewBox="0 0 37 37" fill="none" xmlns="http://www.w3.org/2000/svg">
<path d="M2.20898 9.53051C2.20898 5.38838 5.56685 2.03052 9.70898 2.03052H27.3804C31.5225 2.03052 34.8803 5.38838 34.8803 9.53052V27.2019C34.8803 31.344 31.5225 34.7019 27.3803 34.7019H9.70898C5.56684 34.7019 2.20898 31.344 2.20898 27.2019V9.53051Z" stroke="white"/>
<path d="M26.1159 19.1582C25.7448 18.6895 25.851 18.481 26.1159 18.062C26.1207 18.0572 29.1846 13.8234 29.5003 12.3876L29.5022 12.3867C29.6591 11.8634 29.5022 11.4789 28.7437 11.4789H26.2336C25.5946 11.4789 25.3 11.8089 25.1422 12.1781C25.1422 12.1781 23.8642 15.2372 22.0562 17.2202C21.4727 17.7932 21.203 17.9769 20.8844 17.9769C20.7276 17.9769 20.4836 17.7932 20.4836 17.27V12.3867C20.4836 11.7591 20.3048 11.4789 19.7758 11.4789H15.829C15.4282 11.4789 15.19 11.7716 15.19 12.0442C15.19 12.6392 16.0939 12.776 16.1877 14.45V18.0821C16.1877 18.878 16.0432 19.0243 15.7228 19.0243C14.8695 19.0243 12.7985 15.9528 11.5713 12.4374C11.3235 11.7553 11.0815 11.4798 10.4377 11.4798H7.92671C7.21024 11.4798 7.0658 11.8098 7.0658 12.1791C7.0658 12.8315 7.91906 16.0752 11.0337 20.3607C13.1094 23.2859 16.0327 24.8709 18.692 24.8709C20.2904 24.8709 20.4856 24.5189 20.4856 23.9134C20.4856 21.1183 20.3411 20.8542 21.1418 20.8542C21.5129 20.8542 22.1519 21.0379 23.6442 22.4489C25.3497 24.1219 25.63 24.8709 26.5847 24.8709H29.0947C29.8102 24.8709 30.1728 24.5189 29.9642 23.8244C29.4869 22.3637 26.2613 19.3591 26.1159 19.1582Z" fill="white"/>
</svg>
