<svg width="37" height="37" viewBox="0 0 37 37" fill="none" xmlns="http://www.w3.org/2000/svg">
<path d="M2.11975 9.53051C2.11975 5.38838 5.47761 2.03052 9.61975 2.03052H27.2911C31.4333 2.03052 34.7911 5.38838 34.7911 9.53052V27.2019C34.7911 31.344 31.4332 34.7019 27.2911 34.7019H9.61975C5.47761 34.7019 2.11975 31.344 2.11975 27.2019V9.53051Z" stroke="white"/>
<path d="M27.5754 13.8349C28.509 13.172 29.2944 12.3446 29.9343 11.3918V11.3909C29.0801 11.7649 28.1713 12.0136 27.2224 12.1341C28.1981 11.5516 28.9433 10.6361 29.2934 9.5332C28.3837 10.0756 27.3793 10.4582 26.3089 10.6725C25.4451 9.75226 24.214 9.1831 22.871 9.1831C20.2653 9.1831 18.1675 11.2981 18.1675 13.8904C18.1675 14.2635 18.1991 14.6222 18.2766 14.9637C14.3642 14.7724 10.9014 12.8975 8.575 10.0402C8.16941 10.7452 7.93027 11.5516 7.93027 12.4192C7.93027 14.0492 8.76918 15.4936 10.0213 16.3306C9.26468 16.3163 8.52334 16.0963 7.89487 15.7509V15.8026C7.89487 18.0897 9.52583 19.9895 11.6657 20.4276C11.2821 20.5328 10.865 20.5826 10.4317 20.5826C10.1304 20.5826 9.82619 20.5654 9.54113 20.5022C10.1505 22.3656 11.8819 23.7364 13.9385 23.7814C12.3372 25.0335 10.3035 25.7882 8.10245 25.7882C7.71695 25.7882 7.34676 25.771 6.97656 25.7242C9.06189 27.0681 11.5318 27.8363 14.1968 27.8363C22.5027 27.8363 27.9159 20.9069 27.5754 13.8349Z" fill="white"/>
</svg>
