<svg width="63" height="102" viewBox="0 0 63 102" fill="none" xmlns="http://www.w3.org/2000/svg">

<defs>
<linearGradient id="paint0_linear_1_30" x1="31.8616" y1="24.6554" x2="31.8616" y2="94.25" gradientUnits="userSpaceOnUse">
<stop offset="0.247917" stop-color="#FEDD2C"/>
<stop offset="1" stop-color="#EEA900"/>
</linearGradient>
</defs>
    <path fill-rule="evenodd" clip-rule="evenodd" d="M53.2394 11.8906H9.76056C7.31029 11.8906 5.32394 13.8478 5.32394 16.2621V92.1517C5.32394 94.5661 7.31029 96.5233 9.76056 96.5233H53.2394C55.6897 96.5233 57.6761 94.5661 57.6761 92.1517V16.2621C57.6761 13.8478 55.6897 11.8906 53.2394 11.8906ZM9.76056 6.64478C4.36995 6.64478 0 10.9506 0 16.2621V92.1517C0 97.4633 4.36995 101.769 9.76056 101.769H53.2394C58.63 101.769 63 97.4633 63 92.1517V16.2621C63 10.9506 58.63 6.64478 53.2394 6.64478H9.76056Z" fill="white"/>
    <path d="M7.58591 52.1085C7.58591 50.1771 9.17498 48.6113 11.1352 48.6113H51.7746C53.7349 48.6113 55.3239 50.1771 55.3239 52.1085V90.7528C55.3239 92.6843 53.7349 94.25 51.7746 94.25H11.1352C9.17498 94.25 7.58591 92.6843 7.58591 90.7528V52.1085Z" fill="white"/>
    <path d="M29.2455 25.6002L10.5003 65.4353C9.99777 66.5033 10.7708 67.4963 11.9436 67.4963H29.6725C30.5545 67.4963 31.2096 67.9761 31.2096 68.8651V92.5661C31.2096 94.272 33.5565 94.9167 34.3008 93.3845L53.0109 54.8664C53.3772 54.0993 53.7303 51.9337 51.4655 51.9337H33.7717C32.8897 51.9337 32.5136 51.7673 32.5136 50.8783V26.2292C32.5136 24.5124 29.9755 24.049 29.2455 25.6002Z" fill="url(#paint0_linear_1_30)"/>
    <path d="M23.4473 18.2729C23.4473 17.0658 24.4404 16.0872 25.6656 16.0872H37.3783C38.6034 16.0872 39.5966 17.0658 39.5966 18.2729C39.5966 19.4801 38.6034 20.4587 37.3783 20.4587H25.6656C24.4404 20.4587 23.4473 19.4801 23.4473 18.2729Z" fill="white"/>
    <path d="M22.068 2.62291C22.068 1.17432 23.2598 0 24.73 0H37.6849C39.1551 0 40.3469 1.17432 40.3469 2.62291V5.07097C40.3469 5.16754 40.2674 5.24583 40.1694 5.24583H22.2455C22.1474 5.24583 22.068 5.16754 22.068 5.07097V2.62291Z" fill="white"/>
</svg>
