<svg width="37" height="37" viewBox="0 0 37 37" fill="none" xmlns="http://www.w3.org/2000/svg">
<path d="M3.06335 9.53051C3.06335 5.38838 6.42122 2.03052 10.5634 2.03052H27.4695C31.6116 2.03052 34.9695 5.38838 34.9695 9.53052V27.2019C34.9695 31.344 31.6116 34.7019 27.4695 34.7019H10.5633C6.42121 34.7019 3.06335 31.344 3.06335 27.2019V9.53051Z" stroke="white"/>
<path d="M29.605 12.2719L29.6337 12.4594C29.3563 11.4751 28.6073 10.7155 27.6555 10.4391L27.6354 10.4343C25.8457 9.94837 18.6436 9.94837 18.6436 9.94837C18.6436 9.94837 11.4598 9.9388 9.65184 10.4343C8.68188 10.7155 7.93193 11.4751 7.6593 12.4393L7.65452 12.4594C6.98588 15.9518 6.98109 20.1483 7.68417 23.8875L7.65452 23.6981C7.93193 24.6825 8.68092 25.442 9.63271 25.7184L9.6528 25.7232C11.4406 26.2101 18.6446 26.2101 18.6446 26.2101C18.6446 26.2101 25.8275 26.2101 27.6364 25.7232C28.6073 25.442 29.3572 24.6825 29.6299 23.7182L29.6346 23.6981C29.9388 22.0739 30.1129 20.2047 30.1129 18.2954C30.1129 18.2256 30.1129 18.1548 30.112 18.084C30.1129 18.019 30.1129 17.9415 30.1129 17.864C30.1129 15.9537 29.9388 14.0846 29.605 12.2719ZM16.3459 21.5717V14.5954L22.3398 18.0888L16.3459 21.5717Z" fill="white"/>
</svg>
